<?xml version="1.0" standalone="no"?>
<!DOCTYPE svg PUBLIC "-//W3C//DTD SVG 1.1//EN" "http://www.w3.org/Graphics/SVG/1.1/DTD/svg11.dtd" >
<svg>
<metadata>
Created by FontForge 20090622 at Tue Apr 26 20:15:24 2016
 By deploy user
Copyright (c) 2015 by Mariya Pigoulevskaya. All rights reserved.
</metadata>
<defs>
<font id="Webnar-Light" horiz-adv-x="527" >
  <font-face 
    font-family="Webnar-Light"
    font-weight="400"
    font-stretch="normal"
    units-per-em="1000"
    panose-1="0 0 4 0 0 0 0 0 0 0"
    ascent="806"
    descent="-194"
    x-height="500"
    cap-height="700"
    bbox="-100.471 -250 1331 1093"
    underline-thickness="50"
    underline-position="-50"
    unicode-range="U+0020-U+FE6B"
  />
<missing-glyph horiz-adv-x="500" 
d="M0 0v700h500v-700h-500zM250 395l170 255h-340zM280 350l170 -255v510zM80 50h340l-170 255zM50 605v-510l170 255z" />
    <glyph glyph-name=".notdef" horiz-adv-x="500" 
d="M0 0v700h500v-700h-500zM250 395l170 255h-340zM280 350l170 -255v510zM80 50h340l-170 255zM50 605v-510l170 255z" />
    <glyph glyph-name=".null" horiz-adv-x="0" 
 />
    <glyph glyph-name="nonmarkingreturn" horiz-adv-x="333" 
 />
    <glyph glyph-name="space" unicode=" " horiz-adv-x="195" 
 />
    <glyph glyph-name="exclam" unicode="!" horiz-adv-x="141" 
d="M50 700h41q7 0 7 -7l-7 -489q0 -6 -7 -6h-27q-6 0 -7 6l-7 489q0 7 7 7zM45 71h51q8 0 8 -8v-56q0 -7 -8 -7h-51q-8 0 -8 7v56q0 8 8 8z" />
    <glyph glyph-name="quotedbl" unicode="&#x22;" horiz-adv-x="260" 
d="M43 700h41q7 0 7 -7l-7 -197q0 -7 -6 -7h-28q-6 0 -6 7l-7 197q-1 7 6 7zM176 700h41q7 0 7 -7l-7 -197q-1 -7 -7 -7h-27q-6 0 -7 7l-7 197q0 7 7 7z" />
    <glyph glyph-name="numbersign" unicode="#" horiz-adv-x="557" 
d="M416 452h96q10 0 8 -9l-6 -20q-2 -10 -12 -10h-96l-33 -126h96q10 0 8 -10l-6 -20q-2 -9 -12 -9h-96l-63 -239q-2 -9 -12 -9h-23q-11 0 -8 11l62 237h-136l-63 -239q-2 -9 -12 -9h-23q-11 0 -8 11l63 237h-96q-9 0 -7 9l5 20q2 10 12 10h96l33 126h-96q-9 0 -7 10l5 20
q2 9 13 9h96l62 239q2 9 12 9h24q10 0 7 -11l-62 -237h136l63 239q2 9 12 9h23q11 0 8 -11zM363 413h-136l-34 -126h137z" />
    <glyph glyph-name="dollar" unicode="$" horiz-adv-x="552" 
d="M256 393l49 -16q46 -15 75.5 -29t58 -36.5t42.5 -55t14 -75.5v-10q0 -79 -58 -129t-147 -55v-120q0 -7 -7 -7h-28q-7 0 -7 7v120q-93 5 -170 48q-7 4 -7 13v32q0 3 2 4t5 0q34 -16 56.5 -25.5t58 -17.5t70.5 -8h8q75 0 123.5 39t48.5 103v4q0 27 -8.5 48.5t-20 35.5
t-35 27t-42.5 20.5t-53 18.5l-48 16q-89 30 -134 71.5t-45 109.5v11q0 39 16 72t43 54.5t61 34t71 14.5v121q0 7 7 7h28q7 0 7 -7v-120q89 -5 156 -43q7 -3 7 -12v-32q0 -2 -1 -3.5t-2.5 -1.5t-3.5 1q-91 45 -171 45h-7q-64 0 -112 -35.5t-48 -98.5v-5q0 -49 35.5 -79
t112.5 -56z" />
    <glyph glyph-name="percent" unicode="%" horiz-adv-x="957" 
d="M213 310h-12q-76 0 -120 50.5t-44 134.5v33q0 84 44 134.5t120 50.5h12q76 0 120.5 -50.5t44.5 -134.5v-33q0 -84 -44.5 -134.5t-120.5 -50.5zM326 0h-24q-11 0 -7 10l323 681q5 9 14 9h23q11 0 7 -10l-323 -681q-5 -9 -13 -9zM203 350h8q59 0 91 39.5t32 105.5v33
q0 66 -32 105.5t-91 39.5h-8q-58 0 -90 -39.5t-32 -105.5v-33q0 -66 32 -105.5t90 -39.5zM744 390h12q76 0 120 -50.5t44 -134.5v-33q0 -84 -44 -134.5t-120 -50.5h-12q-38 0 -69 13.5t-52 37.5t-32.5 58.5t-11.5 75.5v33q0 41 11.5 75.5t32.5 58.5t52 37.5t69 13.5z
M754 350h-8q-59 0 -91 -39.5t-32 -105.5v-33q0 -66 32 -105.5t91 -39.5h8q58 0 90.5 39.5t32.5 105.5v33q0 66 -32.5 105.5t-90.5 39.5z" />
    <glyph glyph-name="ampersand" unicode="&#x26;" horiz-adv-x="689" 
d="M279 713h7q61 0 109 -22q7 -3 7 -12v-33q0 -7 -7 -4q-56 25 -108 25h-5q-71 0 -115 -38t-44 -100v-10q0 -52 44 -94t129 -42l163 -1v218q0 9 6 11l34 7q10 3 10 -7v-229h147q6 0 6 -7v-28q0 -7 -6 -7h-147v-229q0 -42 16.5 -61.5t53.5 -19.5h5q28 0 70 17q3 1 5.5 -1
t2.5 -5v-25q0 -7 -6 -10q-42 -19 -78 -19h-7q-89 0 -105 79q-94 -79 -199 -79h-9q-95 0 -153.5 53.5t-58.5 137.5v18q0 36 13 68.5t45 61t80 41.5q-37 15 -63 40.5t-37.5 54t-11.5 57.5v19q0 53 26.5 93t73.5 61t107 21zM459 340l-181 1q-33 0 -61 -6.5t-47 -17.5t-33.5 -25
t-22.5 -31t-12 -33.5t-4 -33.5v-8q0 -66 44.5 -109.5t121.5 -43.5h7q88 0 188 81v226z" />
    <glyph glyph-name="quotesingle" unicode="'" horiz-adv-x="128" 
d="M43 700h41q7 0 7 -7l-7 -197q0 -7 -6 -7h-28q-6 0 -6 7l-7 197q-1 7 6 7z" />
    <glyph glyph-name="parenleft" unicode="(" horiz-adv-x="266" 
d="M125 492v-411q0 -46 8.5 -79.5t24 -52.5t30.5 -29.5t35 -17.5q7 -2 7 -6v-29q0 -4 -2 -6t-5 -1q-67 13 -108 65.5t-41 147.5v427q0 95 41 147.5t108 65.5q3 1 5 -1t2 -6v-29q0 -4 -7 -6q-13 -5 -23 -10.5t-22 -14.5t-21 -22.5t-16.5 -31.5t-11.5 -43.5t-4 -56.5z" />
    <glyph glyph-name="parenright" unicode=")" horiz-adv-x="266" 
d="M141 81v411q0 46 -8.5 79.5t-24 52.5t-30.5 29.5t-35 17.5q-6 2 -6 6v29q0 4 2 6t4 1q68 -13 108.5 -65.5t40.5 -147.5v-427q0 -95 -40.5 -147.5t-108.5 -65.5q-2 0 -3.5 0.5t-2 2.5t-0.5 4v29q0 4 6 6q20 7 35 17.5t30.5 29.5t24 52.5t8.5 79.5z" />
    <glyph glyph-name="asterisk" unicode="*" horiz-adv-x="419" 
d="M369 606l13 -38q2 -7 -4 -9l-133 -43l95 -105q4 -4 -1 -9l-32 -26q-6 -4 -9 1l-88 115l-89 -115q-3 -5 -9 -1l-32 26q-5 5 -1 9l95 105l-133 43q-6 2 -4 9l13 38q3 8 10 5l128 -53l-6 135q0 7 7 7h41q7 0 7 -7l-6 -135l128 53q7 3 10 -5z" />
    <glyph glyph-name="plus" unicode="+" horiz-adv-x="538" 
d="M291 341h204q7 0 7 -6v-29q0 -7 -7 -7h-204v-182q0 -7 -7 -7h-30q-7 0 -7 7v182h-204q-6 0 -6 7v29q0 6 6 6h205v182q0 7 6 7h30q7 0 7 -7v-182z" />
    <glyph glyph-name="comma" unicode="," horiz-adv-x="150" 
d="M52 71h54q7 0 7 -8v-49q0 -7 -1 -13l-36 -162q-1 -6 -8 -6h-26q-6 0 -5 10l35 157h-20q-7 0 -7 7v56q0 8 7 8z" />
    <glyph glyph-name="hyphen" unicode="-" horiz-adv-x="385" 
d="M43 341h299q7 0 7 -6v-29q0 -7 -7 -7h-299q-6 0 -6 7v29q0 6 6 6z" />
    <glyph glyph-name="period" unicode="." horiz-adv-x="140" 
d="M44 71h52q7 0 7 -8v-56q0 -7 -7 -7h-52q-7 0 -7 7v56q0 8 7 8z" />
    <glyph glyph-name="slash" unicode="/" horiz-adv-x="296" 
d="M228 700h24q10 0 7 -11l-179 -680q-2 -9 -12 -9h-23q-11 0 -8 11l179 680q2 9 12 9z" />
    <glyph glyph-name="zero" unicode="0" horiz-adv-x="657" 
d="M321 713h15q111 0 178.5 -76t67.5 -221v-132q0 -145 -67.5 -221t-178.5 -76h-15q-111 0 -179 76t-68 221v132q0 145 68 221t179 76zM334 667h-12q-91 0 -143.5 -63.5t-52.5 -189.5v-128q0 -126 52.5 -189.5t143.5 -63.5h12q91 0 143.5 63.5t52.5 189.5v128
q0 126 -52.5 189.5t-143.5 63.5z" />
    <glyph glyph-name="one" unicode="1" horiz-adv-x="388" 
d="M225 46h120q6 0 6 -6v-33q0 -7 -6 -7h-302q-6 0 -6 7v33q0 6 6 6h130v597l-130 -53q-6 -2 -6 5v36q0 8 6 10l138 57q6 2 14 2h23q7 0 7 -7v-647z" />
    <glyph glyph-name="two" unicode="2" horiz-adv-x="548" 
d="M126 46h359q7 0 7 -6v-33q0 -7 -7 -7h-422q-6 0 -6 7v32q0 5 3 8l180 189l52 54q16 16 48.5 53.5t47.5 61.5t28.5 54.5t13.5 55.5v4q0 71 -47.5 109.5t-112.5 38.5h-7q-80 0 -171 -45q-2 -2 -4.5 -0.5t-2.5 4.5v32q0 9 7 12q30 17 77 30t95 13h9q87 0 148 -49t61 -137
v-10q0 -25 -8.5 -52.5t-28.5 -58.5l-34 -52q-14 -21 -44 -55l-41 -45l-41 -43z" />
    <glyph glyph-name="three" unicode="3" horiz-adv-x="529" 
d="M345 367q48 -13 80 -41.5t45 -61t13 -68.5v-18q0 -83 -64.5 -137t-166.5 -54h-10q-51 0 -98 12.5t-77 30.5q-8 3 -8 12v32q0 3 2.5 4.5t5.5 0.5q90 -46 174 -46h8q81 0 131.5 44t50.5 109v8q0 27 -9 51t-29 46.5t-56.5 36t-85.5 13.5h-92q-7 0 -7 7v28q0 7 7 7h74
q85 0 129 42t44 94v10q0 41 -20.5 72.5t-57.5 48.5t-86 17h-7q-80 0 -171 -46h-4q-1 0 -2 1.5t-1 3.5v32q0 9 7 12q30 17 76.5 30t95.5 13h9q93 0 152.5 -47.5t59.5 -127.5v-19q0 -46 -28.5 -88t-83.5 -64z" />
    <glyph glyph-name="four" unicode="4" horiz-adv-x="599" 
d="M375 700h54q7 0 7 -7v-457h120q6 0 6 -7v-33q0 -7 -6 -7h-120v-182q0 -7 -7 -7h-38q-6 0 -6 7v182h-342q-6 0 -6 7v29q0 9 4 15l320 453q4 7 14 7zM93 236h292v409z" />
    <glyph glyph-name="five" unicode="5" horiz-adv-x="531" 
d="M274 414q105 0 158 -56.5t53 -147.5v-17q0 -88 -64.5 -147t-169.5 -59h-9q-52 0 -100 13t-78 30q-7 3 -7 12v32q0 2 1 3.5t2 1.5h4q91 -46 177 -46h8q84 0 134 48t50 118v7q0 75 -43 121t-132 46q-24 0 -51.5 -5t-62.5 -13.5t-41 -9.5q-7 -1 -13 5l-6 7q-4 4 -4 10v326
q0 7 6 7h344q7 0 7 -7v-33q0 -6 -7 -6h-299v-263q101 23 143 23z" />
    <glyph glyph-name="six" unicode="6" horiz-adv-x="581" 
d="M329 421q64 0 111 -25t71 -69.5t24 -102.5v-17q0 -91 -60 -155.5t-162 -64.5h-9q-104 0 -167 77t-63 213v17q0 93 14.5 165.5t38 119.5t56.5 78t68.5 43.5t75.5 12.5h9q80 0 156 -43q7 -3 7 -12v-32q0 -3 -2.5 -4.5t-4.5 -0.5q-31 16 -49 24t-46.5 15t-58.5 7h-7
q-27 0 -51.5 -7.5t-51 -28t-46.5 -53.5t-34.5 -88.5t-19.5 -128.5q103 60 201 60zM483 214v7q0 72 -43 115t-121 43q-88 0 -192 -62l-1 -46q0 -111 47.5 -174.5t130.5 -63.5h6q82 0 127.5 52.5t45.5 128.5z" />
    <glyph glyph-name="seven" unicode="7" 
d="M43 700h440q7 0 7 -7v-31q0 -5 -3 -9l-239 -320q-4 -6 -4 -12v-314q0 -7 -6 -7h-38q-7 0 -7 7v326q0 10 5 17l229 304h-384q-6 0 -6 6v33q0 7 6 7z" />
    <glyph glyph-name="eight" unicode="8" horiz-adv-x="587" 
d="M289 713h9q96 0 156.5 -48t60.5 -128v-19q0 -46 -29 -88t-85 -63q71 -19 105.5 -67.5t34.5 -103.5v-19q0 -83 -66 -136.5t-174 -53.5h-15q-71 0 -126 24.5t-84.5 68t-29.5 97.5v19q0 55 34.5 103.5t105.5 66.5q-37 15 -63.5 40.5t-38.5 54t-12 57.5v19q0 53 27.5 93
t77 61.5t112.5 21.5zM298 667h-9q-49 0 -87 -17t-58.5 -48t-20.5 -72v-10q0 -24 9.5 -47t27.5 -43.5t50 -33.5t73 -13h16q43 0 76 13t51.5 33.5t28 43.5t9.5 47v10q0 62 -45.5 99.5t-120.5 37.5zM310 341h-33q-49 0 -85.5 -14t-56 -36.5t-28.5 -46.5t-9 -50v-8
q0 -66 50.5 -109.5t137.5 -43.5h15q87 0 137.5 43.5t50.5 109.5v8q0 26 -9 50t-28 46.5t-56 36.5t-86 14z" />
    <glyph glyph-name="nine" unicode="9" horiz-adv-x="581" 
d="M268 713h9q69 0 120.5 -34t80.5 -99.5t29 -156.5v-17q0 -93 -14.5 -165.5t-38 -119.5t-56.5 -78t-68.5 -43.5t-75.5 -12.5h-9q-80 0 -156 43q-7 3 -7 12v32q0 2 1 3.5t3 1.5h3q23 -12 37 -18.5t34 -13.5t40 -10.5t43 -3.5h7q27 0 51.5 7.5t51 28t46.5 53.5t34.5 88.5
t19.5 128.5q-103 -60 -201 -60q-64 0 -111 25t-71 69.5t-24 102.5v17q0 91 60 155.5t162 64.5zM277 667h-7q-81 0 -126.5 -52.5t-45.5 -128.5v-7q0 -72 43 -115t121 -43q88 0 192 62l1 46q0 111 -47.5 174.5t-130.5 63.5z" />
    <glyph glyph-name="colon" unicode=":" horiz-adv-x="140" 
d="M44 446h52q7 0 7 -8v-56q0 -7 -7 -7h-52q-7 0 -7 7v56q0 8 7 8zM44 71h52q7 0 7 -8v-56q0 -7 -7 -7h-52q-7 0 -7 7v56q0 8 7 8z" />
    <glyph glyph-name="semicolon" unicode=";" horiz-adv-x="150" 
d="M54 446h52q7 0 7 -8v-56q0 -7 -7 -7h-52q-7 0 -7 7v56q0 8 7 8zM52 71h54q7 0 7 -8v-49q0 -7 -1 -13l-36 -162q-1 -6 -8 -6h-26q-6 0 -5 10l35 157h-20q-7 0 -7 7v56q0 8 7 8z" />
    <glyph glyph-name="less" unicode="&#x3c;" horiz-adv-x="537" 
d="M44 304l446 166q4 2 7.5 -0.5t3.5 -7.5v-27q0 -9 -8 -11l-389 -143l389 -143q8 -2 8 -11v-27q0 -5 -3.5 -7t-7.5 -1l-446 166q-7 2 -7 10v26q0 8 7 10z" />
    <glyph glyph-name="equal" unicode="=" horiz-adv-x="537" 
d="M43 394h451q7 0 7 -7v-23q0 -7 -7 -7h-451q-6 0 -6 7v23q0 7 6 7zM43 253h451q7 0 7 -7v-23q0 -7 -7 -7h-451q-6 0 -6 7v23q0 7 6 7z" />
    <glyph glyph-name="greater" unicode="&#x3e;" horiz-adv-x="537" 
d="M48 470l446 -166q7 -2 7 -10v-26q0 -8 -7 -10l-446 -166q-5 -1 -8 1t-3 7v27q0 9 8 11l389 143l-389 143q-8 2 -8 11v27q0 5 3 7.5t8 0.5z" />
    <glyph glyph-name="question" unicode="?" horiz-adv-x="502" 
d="M222 713h9q106 0 170 -54.5t64 -137.5v-17q0 -78 -56 -132.5t-153 -54.5q-29 0 -60 5l-1 -118q0 -6 -7 -6h-27q-6 0 -7 6l-2 138q0 7 6 11l6 5q6 4 16 3q45 -6 56 -6q44 0 79 12.5t55.5 34t31.5 48.5t11 57v6q0 67 -49.5 110.5t-134.5 43.5h-8q-86 0 -177 -46
q-3 -1 -5 0.5t-2 4.5v32q0 9 7 12q30 17 78 30t100 13zM149 71h52q7 0 7 -8v-56q0 -7 -7 -7h-52q-7 0 -7 7v56q0 8 7 8z" />
    <glyph glyph-name="at" unicode="@" horiz-adv-x="885" 
d="M385 661h190q136 0 214.5 -75.5t78.5 -221.5v-265q0 -24 -5 -42.5t-14 -30.5t-19.5 -20t-23 -12t-23 -5.5t-21.5 -1.5h-37q-13 0 -27 3.5t-30 12t-27 26t-13 42.5q-35 -41 -81 -62.5t-88 -21.5h-4q-60 0 -102 26.5t-63 76.5t-21 121v76q0 109 53 167.5t145 58.5h7
q47 0 103.5 -17.5t90.5 -38.5q7 -5 7 -12v-340q0 -43 17 -59t40 -16h27q10 0 18.5 3t18 10t15 23t5.5 39v257q0 127 -63 189.5t-180 62.5h-186q-117 0 -180 -62.5t-63 -189.5v-220q0 -85 29 -142t83 -84t131 -27h268q7 0 7 -6v-33q0 -7 -7 -7h-270q-136 0 -214.5 75
t-78.5 222v224q0 146 78.5 221.5t214.5 75.5zM473 471h-4q-70 0 -110 -47t-40 -134v-79q0 -89 37 -135t109 -46h3q83 0 157 84v311q-79 46 -152 46z" />
    <glyph glyph-name="A" unicode="A" horiz-adv-x="619" 
d="M281 700h57q8 0 11 -9l233 -684q2 -7 -5 -7h-38q-8 0 -12 9l-74 216h-288l-74 -216q-3 -9 -11 -9h-38q-7 0 -5 7l232 684q4 9 12 9zM307 653l-93 -280l-35 -102h261l-35 102l-94 280h-4z" />
    <glyph glyph-name="B" unicode="B" horiz-adv-x="603" 
d="M423 367q70 -19 102 -65.5t32 -109.5v-17q0 -84 -52 -129.5t-160 -45.5h-247q-6 0 -6 7v686q0 7 6 7h223q211 0 211 -168v-14q0 -50 -27.5 -90.5t-81.5 -60.5zM480 519v4q0 65 -38 98t-124 33h-175v-271h167q86 0 128 38.5t42 97.5zM505 184v6q0 67 -41 109t-136 42h-185
v-295h199q87 0 125 36t38 102z" />
    <glyph glyph-name="C" unicode="C" horiz-adv-x="589" 
d="M358 713h11q91 0 167 -43q7 -4 7 -12v-32q0 -3 -2.5 -4t-4.5 0q-85 45 -165 45h-7q-48 0 -90.5 -17t-75.5 -49.5t-52.5 -84t-19.5 -115.5v-102q0 -51 12.5 -95t35 -75t52.5 -53t64.5 -32.5t73.5 -10.5h7q81 0 165 45q2 1 4.5 0t2.5 -4v-32q0 -8 -7 -12q-31 -17 -76 -30
t-91 -13h-11q-57 0 -107.5 20t-90 57.5t-63 97t-23.5 133.5v110q0 74 23.5 133.5t63 97t90 57.5t107.5 20z" />
    <glyph glyph-name="D" unicode="D" horiz-adv-x="663" 
d="M98 700h227q57 0 104 -18.5t83 -54.5t56.5 -93.5t20.5 -131.5v-104q0 -146 -73.5 -222t-190.5 -76h-227q-6 0 -6 7v686q0 7 6 7zM537 303v94q0 128 -58.5 192.5t-157.5 64.5h-178v-608h178q99 0 157.5 64.5t58.5 192.5z" />
    <glyph glyph-name="E" unicode="E" horiz-adv-x="559" 
d="M143 384h342q7 0 7 -7v-33q0 -6 -7 -6h-342v-292h364q6 0 6 -6v-33q0 -7 -6 -7h-409q-6 0 -6 7v686q0 7 6 7h409q6 0 6 -7v-33q0 -6 -6 -6h-364v-270z" />
    <glyph glyph-name="F" unicode="F" horiz-adv-x="559" 
d="M98 700h409q6 0 6 -7v-33q0 -6 -6 -6h-364v-272h342q7 0 7 -6v-33q0 -7 -7 -7h-342v-329q0 -7 -7 -7h-38q-6 0 -6 7v686q0 7 6 7z" />
    <glyph glyph-name="G" unicode="G" horiz-adv-x="649" 
d="M370 713h11q24 0 49.5 -4t47 -10.5t39 -13.5t31.5 -15q8 -4 8 -13v-31q0 -3 -2.5 -4t-4.5 0q-88 45 -165 45h-8q-49 0 -93.5 -17t-79.5 -49.5t-56 -84t-21 -115.5v-102q0 -85 35 -146.5t89.5 -90.5t121.5 -29h7q67 0 132 32v271q0 7 7 7h37q6 0 6 -7v-288q0 -9 -7 -13
q-31 -19 -78.5 -33.5t-95.5 -14.5h-11q-58 0 -110.5 20t-94 57.5t-66 97t-24.5 133.5v110q0 60 16.5 110.5t44.5 86.5t65.5 61t81 37.5t88.5 12.5z" />
    <glyph glyph-name="H" unicode="H" horiz-adv-x="682" 
d="M545 700h38q7 0 7 -7v-686q0 -7 -7 -7h-38q-6 0 -6 7v331h-396v-331q0 -7 -7 -7h-38q-6 0 -6 7v686q0 7 6 7h38q7 0 7 -7v-309h396v309q0 7 6 7z" />
    <glyph glyph-name="I" unicode="I" horiz-adv-x="235" 
d="M98 700h38q7 0 7 -7v-686q0 -7 -7 -7h-38q-6 0 -6 7v686q0 7 6 7z" />
    <glyph glyph-name="J" unicode="J" horiz-adv-x="390" 
d="M253 700h38q7 0 7 -7v-527q0 -92 -39.5 -135.5t-108.5 -43.5h-5q-56 0 -103 29q-5 4 -5 10v34q0 3 2.5 4.5t5.5 -0.5q48 -31 95 -31h3q103 0 103 137v523q0 7 7 7z" />
    <glyph glyph-name="K" unicode="K" horiz-adv-x="611" 
d="M315 354l258 -344q2 -3 0.5 -6.5t-5.5 -3.5h-43q-6 0 -9 4l-247 326h-126v-323q0 -7 -7 -7h-38q-6 0 -6 7v686q0 7 6 7h38q7 0 7 -7v-317h126l229 320q3 4 9 4h42q4 0 5 -3.5t-1 -6.5z" />
    <glyph glyph-name="L" unicode="L" horiz-adv-x="528" 
d="M143 46h342q7 0 7 -6v-33q0 -7 -7 -7h-387q-6 0 -6 7v686q0 7 6 7h38q7 0 7 -7v-647z" />
    <glyph glyph-name="M" unicode="M" horiz-adv-x="827" 
d="M681 700h47q7 0 7 -7v-686q0 -7 -7 -7h-38q-7 0 -7 7l1 398l3 216h-4l-128 -216l-123 -200q-3 -7 -11 -7h-19q-8 0 -12 7l-123 200l-128 216h-4l3 -216l1 -398q0 -7 -6 -7h-39q-7 0 -7 7v686q0 7 7 7h47q8 0 12 -7l257 -427h2l258 427q3 7 11 7z" />
    <glyph glyph-name="N" unicode="N" horiz-adv-x="681" 
d="M549 700h38q7 0 7 -7v-686q0 -7 -7 -7h-46q-7 0 -10 5l-392 616h-3l2 -254v-360q0 -7 -6 -7h-38q-7 0 -7 7v686q0 7 7 7h46q7 0 10 -5l392 -616h3l-2 309v305q0 7 6 7z" />
    <glyph glyph-name="O" unicode="O" horiz-adv-x="690" 
d="M338 713h15q55 0 102.5 -18.5t83.5 -54.5t56.5 -93.5t20.5 -130.5v-132q0 -145 -74 -221t-189 -76h-15q-116 0 -190 76t-74 221v132q0 42 7 79.5t20 67.5t31 54.5t40.5 42t49 29.5t55.5 18t61 6zM351 667h-12q-96 0 -154.5 -64t-58.5 -189v-128q0 -63 16 -112t45 -79.5
t67.5 -46t84.5 -15.5h12q96 0 154.5 64t58.5 189v128q0 51 -10.5 92.5t-29.5 71t-45.5 50t-58.5 30t-69 9.5z" />
    <glyph glyph-name="P" unicode="P" horiz-adv-x="628" 
d="M98 700h207q125 0 186.5 -52t61.5 -147v-21q0 -98 -62.5 -156t-187.5 -58h-160v-259q0 -7 -7 -7h-38q-6 0 -6 7v686q0 7 6 7zM501 483v12q0 77 -47.5 118t-154.5 41h-156v-343h156q54 0 94 13t63 36.5t34 54t11 68.5z" />
    <glyph glyph-name="Q" unicode="Q" horiz-adv-x="690" 
d="M616 416v-132q0 -182 -117 -257l115 -115q4 -4 0 -9l-25 -24q-4 -4 -9 0l-125 126q-47 -18 -102 -18h-15q-116 0 -190 76t-74 221v132q0 42 7 79.5t20 67.5t31 54.5t40.5 42t49 29.5t55.5 18t61 6h15q55 0 102.5 -18.5t83.5 -54.5t56.5 -93.5t20.5 -130.5zM339 33h12
q96 0 154.5 64t58.5 189v128q0 51 -10.5 92.5t-29.5 71t-45.5 50t-58.5 30t-69 9.5h-12q-96 0 -154.5 -64t-58.5 -189v-128q0 -63 16 -112t45 -79.5t67.5 -46t84.5 -15.5z" />
    <glyph glyph-name="R" unicode="R" horiz-adv-x="619" 
d="M98 700h213q64 0 110.5 -12.5t75.5 -37t43 -59.5t14 -81v-17q0 -75 -43.5 -128.5t-131.5 -69.5l73 -102l129 -185q2 -3 0.5 -5.5t-5.5 -2.5h-43q-7 0 -10 6l-195 281h-185v-280q0 -7 -7 -7h-38q-6 0 -6 7v686q0 7 6 7zM143 654v-323h158q54 0 94 13t62.5 36.5t33.5 52
t11 62.5v7q0 76 -45 114t-152 38h-162z" />
    <glyph glyph-name="S" unicode="S" horiz-adv-x="549" 
d="M234 345l48 -16q34 -11 53 -18.5t42.5 -20.5t35.5 -27t20.5 -35.5t8.5 -48.5v-4q0 -64 -48.5 -103t-124.5 -39h-7q-52 0 -93 13t-93 38q-2 1 -4.5 0t-2.5 -4v-33q0 -8 7 -12q33 -18 84 -33t103 -15h9q47 0 87.5 13t70 36.5t47 58.5t17.5 76v10q0 35 -10.5 63.5t-26 47.5
t-42 35.5t-51.5 27t-61 22.5l-48 16q-78 26 -113 56t-35 79v5q0 63 47.5 98.5t111.5 35.5h8q80 0 171 -45q2 -2 4.5 -0.5t2.5 4.5v32q0 9 -8 12q-29 17 -76 30t-95 13h-10q-53 0 -99.5 -19.5t-77.5 -60.5t-31 -96v-11q0 -68 45.5 -109.5t133.5 -71.5z" />
    <glyph glyph-name="T" unicode="T" horiz-adv-x="598" 
d="M43 700h511q7 0 7 -7v-33q0 -6 -7 -6h-230v-647q0 -7 -6 -7h-38q-7 0 -7 7v647h-230q-6 0 -6 6v33q0 7 6 7z" />
    <glyph glyph-name="U" unicode="U" horiz-adv-x="683" 
d="M551 700h38q7 0 7 -7v-442q0 -129 -66 -196.5t-179 -67.5h-15q-112 0 -178 67.5t-66 196.5v442q0 7 6 7h38q7 0 7 -7v-439q0 -109 51 -165t144 -56h12q92 0 143 56t51 165v439q0 7 7 7z" />
    <glyph glyph-name="V" unicode="V" horiz-adv-x="605" 
d="M526 700h37q7 0 5 -7l-225 -685q-4 -8 -12 -8h-57q-8 0 -11 8l-226 685q-2 7 5 7h38q8 0 11 -8l136 -411l74 -234h3l75 234l135 411q3 8 12 8z" />
    <glyph glyph-name="W" unicode="W" horiz-adv-x="972" 
d="M893 700h37q7 0 5 -7l-197 -685q-3 -8 -12 -8h-50q-10 0 -13 8l-75 264l-100 358h-4l-99 -358l-76 -264q-3 -8 -13 -8h-50q-9 0 -12 8l-197 685q-2 7 5 7h37q8 0 11 -8l80 -283l101 -358h3l101 358l80 283q3 8 11 8h40q8 0 12 -8l80 -283l100 -358h4l100 358l80 283
q3 8 11 8z" />
    <glyph glyph-name="X" unicode="X" horiz-adv-x="594" 
d="M502 700h42q4 0 5.5 -2.5t-0.5 -5.5l-215 -335l223 -349q1 -3 -0.5 -5.5t-5.5 -2.5h-42q-7 0 -11 6l-150 234l-49 83h-4l-49 -83l-150 -234q-4 -6 -11 -6h-42q-4 0 -5.5 2.5t0.5 5.5l222 349l-215 335q-2 3 -0.5 5.5t5.5 2.5h42q7 0 11 -6l142 -220l50 -84h4l50 84
l143 220q3 6 10 6z" />
    <glyph glyph-name="Y" unicode="Y" horiz-adv-x="616" 
d="M534 700h39q4 0 5.5 -2.5t0.5 -5.5l-246 -452v-233q0 -7 -6 -7h-38q-6 0 -6 7v233l-246 452q-1 3 0.5 5.5t5.5 2.5h39q8 0 12 -7l152 -278l61 -120h2l61 120l152 278q4 7 12 7z" />
    <glyph glyph-name="Z" unicode="Z" horiz-adv-x="563" 
d="M113 46h392q7 0 7 -6v-33q0 -7 -7 -7h-447q-7 0 -7 7v32q0 3 3 8l390 607h-373q-7 0 -7 6v33q0 7 7 7h429q7 0 7 -7v-32q0 -3 -3 -8z" />
    <glyph glyph-name="bracketleft" unicode="[" horiz-adv-x="318" 
d="M143 -85h132q6 0 6 -6v-29q0 -7 -6 -7h-177q-6 0 -6 7v813q0 7 6 7h177q6 0 6 -7v-29q0 -6 -6 -6h-132v-743z" />
    <glyph glyph-name="backslash" unicode="\" horiz-adv-x="296" 
d="M45 700h23q10 0 12 -9l179 -680q3 -11 -8 -11h-23q-9 0 -12 9l-179 680q-3 11 8 11z" />
    <glyph glyph-name="bracketright" unicode="]" horiz-adv-x="318" 
d="M43 700h177q6 0 6 -7v-813q0 -7 -6 -7h-177q-6 0 -6 7v29q0 6 6 6h132v743h-132q-6 0 -6 6v29q0 7 6 7z" />
    <glyph glyph-name="asciicircum" unicode="^" horiz-adv-x="371" 
d="M209 704l125 -336q2 -4 -0.5 -7.5t-7.5 -3.5h-27q-9 0 -11 8l-101 286h-3l-101 -286q-2 -8 -11 -8h-27q-5 0 -7 3.5t-1 7.5l126 336q2 7 10 7h26q7 0 10 -7z" />
    <glyph glyph-name="underscore" unicode="_" horiz-adv-x="537" 
d="M43 -42h451q7 0 7 -7v-29q0 -7 -7 -7h-451q-6 0 -6 7v29q0 7 6 7z" />
    <glyph glyph-name="grave" unicode="`" horiz-adv-x="195" 
d="M86 946l72 -157q1 -3 0 -5.5t-4 -2.5h-24q-7 0 -11 7l-82 157q-1 3 0.5 6t5.5 3h30q9 0 13 -8z" />
    <glyph glyph-name="a" unicode="a" horiz-adv-x="489" 
d="M245 513h6q87 0 127.5 -45.5t40.5 -142.5v-318q0 -7 -7 -7h-33q-6 0 -7 6l-1 64q-35 -40 -80.5 -61.5t-88.5 -21.5h-6q-73 0 -116 39t-43 104v5q0 80 56 118.5t173 43.5l103 4v24q0 75 -27.5 110.5t-98.5 35.5h-3q-72 0 -158 -41q-6 -3 -6 4v28q0 9 7 12q32 16 78 27.5
t84 11.5zM369 264l-111 -4q-88 -3 -129.5 -33t-41.5 -88v-5q0 -48 33 -76.5t90 -28.5h4q83 0 155 84v151z" />
    <glyph glyph-name="b" unicode="b" horiz-adv-x="545" 
d="M286 513h6q91 0 140.5 -58.5t49.5 -165.5v-76q0 -108 -55 -167t-148 -59h-6q-47 0 -103.5 17.5t-91.5 38.5q-6 5 -6 12v675q0 7 6 7h37q7 0 7 -7v-297q34 40 78.5 60t85.5 20zM432 210v79q0 88 -39 134.5t-112 46.5h-2q-84 0 -157 -84v-311q78 -46 151 -46h4
q71 0 113 47.5t42 133.5z" />
    <glyph glyph-name="c" unicode="c" horiz-adv-x="497" 
d="M281 513h11q72 0 137 -39q7 -4 7 -12v-29q0 -7 -7 -4q-73 41 -133 41h-9q-75 0 -124.5 -49t-49.5 -136v-70q0 -87 49.5 -136t124.5 -49h9q60 0 133 41q7 3 7 -4v-29q0 -8 -7 -12q-65 -39 -137 -39h-11q-60 0 -109 25t-79 78t-30 125v70q0 108 62.5 168t155.5 60z" />
    <glyph glyph-name="d" unicode="d" horiz-adv-x="545" 
d="M430 737h36q7 0 7 -7v-723q0 -7 -7 -7h-33q-6 0 -7 6l-1 62q-34 -39 -79 -60t-88 -21h-5q-91 0 -140.5 58.5t-49.5 165.5v76q0 109 51 167.5t142 58.5h6q40 0 83.5 -19.5t77.5 -57.5v294q0 7 7 7zM266 470h-2q-74 0 -112.5 -46.5t-38.5 -134.5v-78q0 -88 38.5 -134.5
t112.5 -46.5h2q84 0 157 84v272q-73 84 -157 84z" />
    <glyph glyph-name="e" unicode="e" horiz-adv-x="530" 
d="M268 513h11q91 0 140.5 -57.5t49.5 -167.5v-32q0 -8 -8 -8h-348v-53q0 -77 49 -121.5t126 -44.5h4q70 0 154 42q6 3 6 -4v-29q0 -8 -7 -12q-29 -16 -74 -27.5t-83 -11.5h-7q-95 0 -156.5 56.5t-61.5 155.5v77q0 109 57.5 173t147.5 64zM278 472h-8q-70 0 -113 -50.5
t-44 -137.5h309q0 188 -144 188z" />
    <glyph glyph-name="f" unicode="f" horiz-adv-x="354" 
d="M320 732q7 -3 7 -10v-25q0 -3 -1 -4.5t-3 -2t-4 0.5q-40 17 -74 17h-5q-39 0 -65 -26t-26 -78v-104h144q6 0 6 -7v-29q0 -6 -6 -6h-144v-451q0 -7 -7 -7h-36q-7 0 -7 7v451h-66q-6 0 -6 6v29q0 7 6 7h66v109q0 69 38 105t96 36h7q42 0 80 -18z" />
    <glyph glyph-name="g" unicode="g" horiz-adv-x="540" 
d="M462 457q6 -5 6 -12v-432q0 -95 -51 -144t-141 -49h-6q-80 0 -158 39q-7 3 -7 11v29q0 7 7 4q81 -41 152 -41h4q151 0 151 150v60q-36 -39 -80 -59t-85 -20h-5q-91 0 -138.5 58t-47.5 165v71q0 109 53 167.5t145 58.5h6q47 0 103.5 -17.5t91.5 -38.5zM259 36h2
q84 0 158 83v306q-79 45 -152 45h-4q-71 0 -110.5 -46.5t-39.5 -133.5v-74q0 -180 146 -180z" />
    <glyph glyph-name="h" unicode="h" horiz-adv-x="542" 
d="M298 513h5q169 0 169 -183v-323q0 -7 -7 -7h-36q-7 0 -7 7v318q0 71 -30.5 108t-100.5 37h-3q-79 0 -164 -76v-387q0 -7 -7 -7h-37q-6 0 -6 7v723q0 7 6 7h37q7 0 7 -7v-293q39 34 86 55t88 21z" />
    <glyph glyph-name="i" unicode="i" horiz-adv-x="207" 
d="M81 662h47q7 0 7 -7v-54q0 -8 -7 -8h-47q-7 0 -7 8v54q0 7 7 7zM86 500h37q6 0 6 -7v-486q0 -7 -6 -7h-37q-6 0 -6 7v486q0 7 6 7z" />
    <glyph glyph-name="j" unicode="j" horiz-adv-x="275" 
d="M149 662h47q7 0 7 -7v-54q0 -8 -7 -8h-47q-7 0 -7 8v54q0 7 7 7zM154 500h37q6 0 6 -7v-570q0 -52 -27 -77.5t-68 -25.5h-7q-32 0 -61 13q-7 3 -7 11v24q0 9 8 6q28 -12 54 -12h4q14 0 25.5 5t20.5 19t9 36v571q0 7 6 7z" />
    <glyph glyph-name="k" unicode="k" horiz-adv-x="475" 
d="M267 259l179 -248q3 -4 1.5 -7.5t-6.5 -3.5h-40q-7 0 -10 5l-169 232h-98v-230q0 -7 -7 -7h-37q-6 0 -6 7v723q0 7 6 7h37q7 0 7 -7v-451h99l149 216q4 5 10 5h38q4 0 6 -3.5t-1 -7.5z" />
    <glyph glyph-name="l" unicode="l" horiz-adv-x="193" 
d="M80 737h37q7 0 7 -7v-723q0 -7 -7 -7h-37q-6 0 -6 7v723q0 7 6 7z" />
    <glyph glyph-name="m" unicode="m" horiz-adv-x="872" 
d="M636 513h5q85 0 123 -46.5t38 -136.5v-323q0 -7 -6 -7h-37q-6 0 -6 7v318q0 73 -28 109t-97 36h-2q-82 0 -170 -81q6 -27 6 -65v-317q0 -7 -7 -7h-36q-7 0 -7 7v318q0 73 -27.5 109t-96.5 36h-2q-80 0 -164 -76v-387q0 -7 -7 -7h-37q-6 0 -6 7v486q0 7 6 7h34q6 0 6 -6
l2 -58q40 35 87 56t88 21h6q114 0 147 -89q29 27 61 47t64.5 31t62.5 11z" />
    <glyph glyph-name="n" unicode="n" horiz-adv-x="537" 
d="M295 513h6q166 0 166 -183v-323q0 -7 -6 -7h-37q-6 0 -6 7v318q0 72 -30 108.5t-100 36.5h-2q-80 0 -164 -76v-387q0 -7 -7 -7h-37q-6 0 -6 7v486q0 7 6 7h34q6 0 6 -6l2 -58q40 35 87 56t88 21z" />
    <glyph glyph-name="o" unicode="o" horiz-adv-x="559" 
d="M274 513h11q93 0 152 -59.5t59 -166.5v-74q0 -107 -59 -166.5t-152 -59.5h-11q-93 0 -152 59.5t-59 166.5v74q0 107 59 166.5t152 59.5zM284 470h-9q-72 0 -117 -47.5t-45 -133.5v-78q0 -86 45 -133.5t117 -47.5h9q72 0 117 47.5t45 133.5v78q0 86 -45 133.5t-117 47.5z
" />
    <glyph glyph-name="p" unicode="p" horiz-adv-x="547" 
d="M288 513h6q91 0 140.5 -58.5t49.5 -165.5v-76q0 -109 -51.5 -167.5t-142.5 -58.5h-5q-40 0 -84 19.5t-77 57.5v-224q0 -7 -7 -7h-37q-6 0 -6 7v653q0 7 6 7h34q6 0 6 -6l2 -62q34 39 79 60t87 21zM283 470h-2q-84 0 -157 -84v-272q73 -84 157 -84h2q73 0 112 46.5
t39 134.5v78q0 88 -39 134.5t-112 46.5z" />
    <glyph glyph-name="q" unicode="q" horiz-adv-x="540" 
d="M261 513h7q46 0 103 -17.5t91 -38.5q6 -5 6 -12v-605q0 -7 -6 -7h-37q-6 0 -6 7v227q-35 -40 -79 -60t-86 -20h-5q-91 0 -138.5 58t-47.5 166v76q0 109 53 167.5t145 58.5zM267 471h-4q-71 0 -110.5 -47t-39.5 -134v-79q0 -89 36.5 -135t109.5 -46h2q84 0 158 84v311
q-79 46 -152 46z" />
    <glyph glyph-name="r" unicode="r" horiz-adv-x="352" 
d="M285 513h4q17 0 29 -2q7 -1 7 -10v-31q0 -7 -10 -6q-13 2 -31 2h-3q-80 0 -159 -93v-366q0 -7 -7 -7h-37q-6 0 -6 7v486q0 7 6 7h34q6 0 6 -6l3 -73q75 92 164 92z" />
    <glyph glyph-name="s" unicode="s" horiz-adv-x="425" 
d="M207 513h10q23 0 49.5 -5.5t50 -14t40.5 -18.5q7 -3 7 -11v-28q0 -7 -7 -4q-74 41 -138 41h-7q-51 0 -86 -24t-35 -66v-6q0 -20 8 -34.5t26.5 -25t31.5 -16t39 -13.5q7 -2 11 -4l26 -8q39 -13 61.5 -23t45.5 -26.5t33.5 -39.5t10.5 -55v-6q0 -44 -24.5 -76.5t-62 -47.5
t-83.5 -15h-10q-35 0 -79.5 11.5t-69.5 26.5q-7 3 -7 12v27q0 8 7 5q75 -42 147 -42h9q52 0 87.5 25.5t35.5 71.5v6q0 18 -7 32.5t-15.5 23.5t-25.5 18t-28 13t-33 11l-26 9l-9 3q-24 8 -36 12.5t-33 13.5t-32.5 18t-23.5 22t-17.5 30t-5.5 37v7q0 63 48 98t117 35z" />
    <glyph glyph-name="t" unicode="t" horiz-adv-x="328" 
d="M104 611l33 7q10 3 10 -7v-111h147q7 0 7 -7v-29q0 -6 -7 -6h-147v-347q0 -42 16.5 -61.5t54.5 -19.5h4q29 0 71 17q3 1 5.5 -1t2.5 -5v-25q0 -7 -7 -10q-41 -19 -78 -19h-7q-111 0 -111 119v352h-65q-6 0 -6 6v27q0 5 6 6l65 3v100q0 9 6 11z" />
    <glyph glyph-name="u" unicode="u" 
d="M414 500h37q6 0 6 -7v-486q0 -7 -6 -7h-34q-6 0 -6 6l-2 58q-19 -17 -41 -31t-44.5 -24.5t-45.5 -16t-44 -5.5h-6q-83 0 -120.5 46.5t-37.5 136.5v323q0 7 6 7h37q7 0 7 -7v-318q0 -73 27 -109t94 -36h3q79 0 164 76v387q0 7 6 7z" />
    <glyph glyph-name="v" unicode="v" horiz-adv-x="491" 
d="M423 500h36q8 0 5 -8l-182 -484q-3 -8 -12 -8h-49q-9 0 -11 8l-183 484q-2 8 6 8h35q8 0 12 -8l89 -235l76 -213h2l76 213l89 235q3 8 11 8z" />
    <glyph glyph-name="w" unicode="w" horiz-adv-x="747" 
d="M679 500h35q8 0 6 -8l-147 -484q-4 -8 -12 -8h-45q-8 0 -12 8l-44 147l-85 291h-4l-84 -291l-45 -147q-3 -8 -11 -8h-45q-10 0 -12 8l-147 484q-2 8 6 8h35q8 0 11 -8l64 -212l66 -233h3l67 233l62 212q2 8 12 8h41q9 0 12 -8l63 -212l67 -233h2l66 233l64 212q3 8 11 8z
" />
    <glyph glyph-name="x" unicode="x" horiz-adv-x="451" 
d="M372 500h38q4 0 5.5 -3.5t-0.5 -7.5l-155 -232l163 -246q3 -4 1 -7.5t-6 -3.5h-38q-7 0 -10 5l-114 170l-29 49h-3l-29 -49l-114 -170q-3 -5 -9 -5h-39q-4 0 -5.5 3.5t0.5 7.5l164 246l-156 232q-2 4 -0.5 7.5t5.5 3.5h37q8 0 10 -5l107 -158l29 -48h3l29 48l106 158
q4 5 10 5z" />
    <glyph glyph-name="y" unicode="y" horiz-adv-x="494" 
d="M426 500h36q8 0 5 -8l-205 -539q-13 -35 -25.5 -58t-28.5 -41t-37 -26t-48 -8h-6q-34 0 -66 14q-7 3 -7 11v26q0 3 2.5 5t5.5 1q35 -15 62 -15h4q31 0 52 20t40 70l19 48h-7q-8 0 -11 8l-184 484q-2 8 6 8h35q8 0 12 -8l104 -274l62 -174h3l61 174l105 274q3 8 11 8z" />
    <glyph glyph-name="z" unicode="z" horiz-adv-x="438" 
d="M98 43h297q6 0 6 -7v-29q0 -7 -6 -7h-352q-6 0 -6 7v26q0 6 4 12l295 412h-278q-7 0 -7 7v29q0 7 7 7h332q6 0 6 -7v-26q0 -6 -4 -12z" />
    <glyph glyph-name="braceleft" unicode="{" horiz-adv-x="352" 
d="M177 628v-293q0 -34 -27 -49q27 -15 27 -49v-292q0 -13 7.5 -21.5t21.5 -8.5h103q7 0 7 -6v-29q0 -7 -7 -7h-124q-26 0 -42.5 16.5t-16.5 42.5v303q0 14 -7.5 22t-21.5 8h-54q-6 0 -6 7v29q0 6 6 6h54q14 0 21.5 8.5t7.5 21.5v304q0 26 16.5 42.5t42.5 16.5h124q7 0 7 -7
v-29q0 -6 -7 -6h-103q-9 0 -15.5 -4t-10 -10.5t-3.5 -15.5z" />
    <glyph glyph-name="bar" unicode="|" horiz-adv-x="235" 
d="M98 700h38q7 0 7 -7v-760q0 -7 -7 -7h-38q-6 0 -6 7v760q0 7 6 7z" />
    <glyph glyph-name="braceright" unicode="}" horiz-adv-x="352" 
d="M255 307h54q7 0 7 -6v-29q0 -7 -7 -7h-54q-13 0 -21 -8t-8 -22v-303q0 -26 -16.5 -42.5t-42.5 -16.5h-124q-6 0 -6 7v29q0 6 6 6h104q13 0 20.5 8.5t7.5 21.5v292q0 34 27 49q-27 15 -27 49v293q0 13 -7.5 21.5t-20.5 8.5h-104q-6 0 -6 6v29q0 7 6 7h124q26 0 42.5 -16.5
t16.5 -42.5v-304q0 -13 8 -21.5t21 -8.5z" />
    <glyph glyph-name="asciitilde" unicode="~" horiz-adv-x="455" 
d="M151 351q34 0 80 -24.5t75 -24.5q17 0 39.5 7.5t31 11.5t31.5 16q5 3 8 1t3 -7v-23q0 -6 -7 -10l-9 -5q-8 -5 -10 -6t-10 -5.5t-11.5 -5.5t-11.5 -4.5t-14 -5.5l-13 -3q-7 -2 -14 -2.5t-14 -0.5q-35 0 -80.5 24.5t-74.5 24.5q-18 0 -40 -7t-31 -11l-32 -17q-5 -2 -7.5 0
t-2.5 6v23q0 8 4 10q1 1 15 8.5t18 9t16.5 7.5t19.5 7.5t18.5 3.5t22.5 2z" />
    <glyph glyph-name="exclamdown" unicode="&#xa1;" horiz-adv-x="141" 
d="M45 533h51q8 0 8 -7v-56q0 -8 -8 -8h-51q-8 0 -8 8v56q0 7 8 7zM57 335h27q7 0 7 -6l7 -489q0 -7 -7 -7h-41q-7 0 -7 7l7 489q1 6 7 6z" />
    <glyph glyph-name="cent" unicode="&#xa2;" horiz-adv-x="497" 
d="M296 470h-9q-48 0 -87 -20.5t-63 -63t-24 -101.5v-70q0 -87 49.5 -136t124.5 -49h9q60 0 133 41q7 3 7 -4v-29q0 -8 -7 -12q-25 -14 -57 -25t-64 -13v-121q0 -7 -7 -7h-28q-7 0 -7 7v120q-88 6 -145.5 65.5t-57.5 162.5v70q0 103 57.5 162.5t145.5 65.5v120q0 7 7 7h28
q7 0 7 -7v-121q65 -4 121 -38q7 -4 7 -12v-29q0 -7 -7 -4q-73 41 -133 41z" />
    <glyph glyph-name="sterling" unicode="&#xa3;" horiz-adv-x="538" 
d="M114 46h369q6 0 6 -6v-33q0 -7 -6 -7h-414q-7 0 -7 7v27q0 6 3 11q2 4 9 17t9 18l8 18q6 13 9 20.5t7.5 20t6.5 23.5l4 23q3 13 3.5 27t0.5 30q0 32 -5 70h-74q-6 0 -6 7v23q0 7 6 7h67q-18 99 -18 149v10q0 92 59 148.5t151 56.5h9q81 0 157 -43q7 -3 7 -12v-32
q0 -3 -2 -4.5t-5 0.5q-23 12 -35.5 17.5t-33 13.5t-41.5 11t-46 3h-7q-47 0 -83.5 -20.5t-57 -58.5t-20.5 -88v-5q0 -50 17 -146h221q7 0 7 -7v-23q0 -7 -7 -7h-215q5 -36 5 -67q0 -60 -14 -105t-44 -94z" />
    <glyph glyph-name="currency" unicode="&#xa4;" horiz-adv-x="608" 
d="M486 127l83 -82q4 -5 0 -10l-21 -20q-4 -5 -9 0l-83 83q-65 -54 -151 -55q-88 1 -153 55l-83 -83q-5 -5 -10 0l-20 20q-5 5 0 10l83 83q-53 65 -52 151q0 86 54 151l-85 85q-5 5 0 9l20 21q5 4 10 0l84 -85q65 54 152 54q85 0 150 -53l84 84q5 4 9 0l21 -21q4 -4 0 -9
l-84 -84q55 -65 55 -152t-54 -152zM305 86q80 0 136 56.5t56 136.5t-56 136t-136 56q-81 0 -136.5 -55.5t-55.5 -136.5q-1 -81 55 -137t137 -56z" />
    <glyph glyph-name="yen" unicode="&#xa5;" horiz-adv-x="616" 
d="M534 700h39q3 0 4.5 -1.5t1.5 -2.5v-4l-226 -417h152q7 0 7 -6v-24q0 -6 -7 -6h-172v-105h172q7 0 7 -6v-24q0 -6 -7 -6h-172v-91q0 -7 -6 -7h-38q-6 0 -6 7v91h-172q-7 0 -7 6v24q0 6 7 6h172v105h-172q-7 0 -7 6v24q0 6 7 6h152l-226 417q-1 3 0.5 5.5t5.5 2.5h39
q8 0 12 -7l152 -278l61 -120h2l61 120l152 278q4 7 12 7z" />
    <glyph glyph-name="brokenbar" unicode="&#xa6;" horiz-adv-x="235" 
d="M98 700h38q7 0 7 -7v-304q0 -7 -7 -7h-38q-6 0 -6 7v304q0 7 6 7zM98 244h38q7 0 7 -7v-304q0 -7 -7 -7h-38q-6 0 -6 7v304q0 7 6 7z" />
    <glyph glyph-name="section" unicode="&#xa7;" horiz-adv-x="434" 
d="M214 649h11q33 0 73.5 -11t65.5 -27q7 -3 7 -11v-28q0 -7 -7 -4q-73 41 -137 41h-8q-49 0 -81.5 -24.5t-32.5 -65.5v-6q0 -20 8 -34.5t26.5 -25t31.5 -16t39 -13.5q8 -2 11 -4l26 -8q31 -10 50 -18t40.5 -20t33 -26t19.5 -34.5t8 -45.5v-6q0 -42 -22 -72.5t-59 -47.5
q62 -35 62 -96v-7q0 -62 -45.5 -97.5t-113.5 -35.5h-10q-34 0 -74 11t-66 27q-7 3 -7 11v28q0 7 7 4q74 -41 138 -41h7q32 0 58 10.5t41 31t15 48.5v6q0 49 -64 75q-10 4 -52 18l-26 8q-39 13 -61.5 23t-45.5 26.5t-33 39.5t-10 55v6q0 84 80 120q-61 35 -61 96v7
q0 62 45.5 97.5t112.5 35.5zM245 362l-80 27q-38 -8 -61 -31.5t-23 -60.5v-6q0 -18 6.5 -32.5t15 -23.5t26 -18t28.5 -13t32 -11l81 -28q37 9 60.5 32.5t23.5 60.5v6q0 18 -7 32.5t-15.5 23.5t-25.5 18t-28 13t-33 11z" />
    <glyph glyph-name="dieresis" unicode="&#xa8;" horiz-adv-x="280" 
d="M44 864h47q8 0 8 -7v-56q0 -8 -8 -8h-47q-7 0 -7 8v56q0 7 7 7zM188 864h47q8 0 8 -7v-56q0 -8 -8 -8h-47q-7 0 -7 8v56q0 7 7 7z" />
    <glyph glyph-name="copyright" unicode="&#xa9;" horiz-adv-x="622" 
d="M311 750q118 0 196 -79.5t78 -190.5t-78 -190.5t-196 -79.5t-196 79.5t-78 190.5q0 73 34.5 134.5t98 98.5t141.5 37zM311 720q-106 0 -174.5 -70t-68.5 -170t68.5 -170t174.5 -70t174.5 70t68.5 170t-68.5 170t-174.5 70zM319 584h-5q-36 0 -60 -24t-24 -65v-37
q0 -27 11 -47.5t30 -31t43 -10.5h5q29 0 67 20q6 2 6 -4v-21q0 -5 -5 -8t-13 -6t-18 -6t-20.5 -4.5t-19.5 -1.5h-5q-50 0 -83.5 31t-33.5 89v38q0 38 16 66t42.5 41t58.5 13h5q17 0 39 -6t32 -12q5 -4 5 -9v-21q0 -5 -6 -3q-38 19 -67 19z" />
    <glyph glyph-name="guillemotleft" unicode="&#xab;" horiz-adv-x="390" 
d="M233 256l119 -149q2 -3 1 -5t-4 -2h-31q-5 0 -9 4l-117 137q-3 4 -3 10v10q0 6 3 10l117 137q4 4 9 4h31q3 0 4 -2t-1 -5zM82 256l118 -149q2 -3 1 -5t-4 -2h-31q-5 0 -8 4l-117 137q-4 4 -4 10v10q0 6 4 10l117 137q3 4 8 4h31q3 0 4 -2t-1 -5z" />
    <glyph glyph-name="logicalnot" unicode="&#xac;" horiz-adv-x="537" 
d="M43 341h451q7 0 7 -6v-149q0 -7 -7 -7h-30q-7 0 -7 7v113h-414q-6 0 -6 7v29q0 6 6 6z" />
    <glyph glyph-name="registered" unicode="&#xae;" horiz-adv-x="622" 
d="M311 750q118 0 196 -79.5t78 -190.5t-78 -190.5t-196 -79.5t-196 79.5t-78 190.5q0 73 34.5 134.5t98 98.5t141.5 37zM311 720q-106 0 -174.5 -70t-68.5 -170t68.5 -170t174.5 -70t174.5 70t68.5 170t-68.5 170t-174.5 70zM213 616h108q49 0 73 -22t24 -60v-5
q0 -20 -7 -36t-23.5 -28t-39.5 -16l17 -22l64 -90q2 -2 1 -4.5t-4 -2.5h-29q-4 1 -7 4l-80 112h-65v-112q0 -4 -3 -4h-29q-4 0 -4 4v279q0 3 4 3zM245 476h73q32 0 48 15t16 37v6q0 50 -64 50h-73v-108z" />
    <glyph glyph-name="macron" unicode="&#xaf;" horiz-adv-x="332" 
d="M43 834h246q7 0 7 -7v-27q0 -7 -7 -7h-246q-6 0 -6 7v27q0 7 6 7z" />
    <glyph glyph-name="degree" unicode="&#xb0;" horiz-adv-x="319" 
d="M159 750q52 0 87.5 -35t35.5 -85t-35.5 -84.5t-87.5 -35.5q-51 0 -86.5 35t-35.5 85q0 33 16 60.5t44 43.5t62 16zM159 715q-18 0 -34.5 -6.5t-27.5 -18t-18 -27t-7 -33.5q0 -36 25 -60.5t62 -24.5q18 0 34.5 6.5t28 18t18 27.5t6.5 33q0 24 -11 43.5t-31 31t-45 10.5z
" />
    <glyph glyph-name="plusminus" unicode="&#xb1;" horiz-adv-x="538" 
d="M291 346h204q7 0 7 -7v-29q0 -7 -7 -7h-204v-147q0 -7 -7 -7h-30q-7 0 -7 7v147h-204q-6 0 -6 7v29q0 7 6 7h205v147q0 7 6 7h30q7 0 7 -7v-147zM43 98h452q7 0 7 -7v-23q0 -7 -7 -7h-452q-6 0 -6 7v23q0 7 6 7z" />
    <glyph glyph-name="acute" unicode="&#xb4;" horiz-adv-x="195" 
d="M38 789l72 157q3 8 12 8h30q4 0 6 -3t0 -6l-82 -157q-4 -7 -11 -7h-23q-3 0 -4.5 2.5t0.5 5.5z" />
    <glyph glyph-name="paragraph" unicode="&#xb6;" 
d="M215 700h214q6 0 6 -7v-853q0 -7 -6 -7h-29q-7 0 -7 7v825h-136v-825q0 -7 -7 -7h-29q-6 0 -6 7v468q-178 0 -178 192q0 52 13 91t36.5 62.5t55.5 35t73 11.5z" />
    <glyph glyph-name="periodcentered" unicode="&#xb7;" horiz-adv-x="140" 
d="M44 326h52q7 0 7 -8v-56q0 -7 -7 -7h-52q-7 0 -7 7v56q0 8 7 8z" />
    <glyph glyph-name="cedilla" unicode="&#xb8;" horiz-adv-x="242" 
d="M102 0l-11 -63q17 5 34 5q37 0 58.5 -20t21.5 -55q0 -39 -27 -60.5t-70 -21.5q-35 0 -62 10q-9 3 -9 13v12q0 7 7 6q39 -10 59 -10q66 0 66 49q0 22 -14 33.5t-38 11.5q-9 0 -41 -7q-8 -2 -12 1l-3 3q-7 6 -6 11l15 82h32z" />
    <glyph glyph-name="guillemotright" unicode="&#xbb;" horiz-adv-x="390" 
d="M157 256l-119 149q-2 3 -1 5t4 2h31q5 0 9 -4l117 -137q4 -4 4 -10v-10q0 -6 -4 -10l-117 -137q-4 -4 -9 -4h-31q-3 0 -4 2t1 5zM308 256l-118 149q-2 3 -1 5t4 2h31q5 0 9 -4l116 -137q4 -4 4 -10v-10q0 -6 -4 -10l-116 -137q-4 -4 -9 -4h-31q-3 0 -4 2t1 5z" />
    <glyph glyph-name="onequarter" unicode="&#xbc;" horiz-adv-x="860" 
d="M174 363h78q7 0 7 -7v-26q0 -7 -7 -7h-209q-6 0 -6 7v26q0 7 6 7h88v291l-88 -36q-6 -2 -6 5v26q0 7 6 10l96 39q6 2 13 2h15q7 0 7 -7v-330zM533 700h24q11 0 7 -10l-324 -681q-4 -9 -13 -9h-24q-11 0 -6 10l323 681q4 9 13 9zM739 136h78q7 0 7 -7v-24q0 -7 -7 -7h-79
v-91q0 -7 -6 -7h-29q-7 0 -7 7v91h-188q-7 0 -7 7v19q0 6 4 11l169 232q7 10 18 10h40q7 0 7 -7v-234zM696 338l-148 -202h148v202z" />
    <glyph glyph-name="onehalf" unicode="&#xbd;" horiz-adv-x="803" 
d="M174 363h78q7 0 7 -7v-26q0 -7 -7 -7h-209q-6 0 -6 7v26q0 7 6 7h88v291l-88 -36q-6 -2 -6 5v26q0 7 6 10l96 39q6 2 13 2h15q7 0 7 -7v-330zM533 700h24q11 0 7 -10l-324 -681q-4 -9 -13 -9h-24q-11 0 -6 10l323 681q4 9 13 9zM622 390h9q49 0 84.5 -29.5t35.5 -78.5
v-10q0 -11 -2 -22t-8 -23l-11 -20q-5 -9 -16 -22l-18 -20q-7 -8 -23 -23l-23 -23l-27 -24q-19 -17 -27 -25l-34 -30h198q6 0 6 -7v-26q0 -7 -6 -7h-252q-7 0 -7 7v24q0 6 4 9l56 49q7 6 21 19l52 48q17 16 37.5 38.5t28.5 40t8 34.5v5q0 36 -24.5 56.5t-56.5 20.5h-8
q-41 0 -99 -28q-6 -3 -6 4v26q0 8 7 11q50 26 101 26z" />
    <glyph glyph-name="threequarters" unicode="&#xbe;" horiz-adv-x="895" 
d="M152 713h5q54 0 91 -28.5t37 -75.5v-7q0 -55 -55 -84q29 -11 46.5 -34.5t17.5 -55.5v-10q0 -47 -39 -77.5t-99 -30.5h-7q-52 0 -105 26q-7 3 -7 11v25q0 7 6 4q61 -28 104 -28h6q42 0 69.5 21.5t27.5 55.5v5q0 27 -20.5 48t-62.5 21h-62q-6 0 -6 7v21q0 6 6 6h54
q41 0 62 21.5t21 45.5v2q0 35 -25.5 54.5t-62.5 19.5h-3q-41 0 -102 -29q-6 -2 -6 5v24q0 8 7 11q53 26 102 26zM568 700h24q11 0 6 -10l-323 -681q-4 -9 -13 -9h-24q-11 0 -7 10l324 681q4 9 13 9zM773 136h79q6 0 6 -7v-24q0 -7 -6 -7h-79v-91q0 -7 -6 -7h-30q-6 0 -6 7
v91h-188q-7 0 -7 7v19q0 6 3 11l170 232q7 10 18 10h40q6 0 6 -7v-234zM731 338l-148 -202h148v202z" />
    <glyph glyph-name="questiondown" unicode="&#xbf;" horiz-adv-x="502" 
d="M301 533h51q8 0 8 -7v-56q0 -8 -8 -8h-51q-7 0 -7 8v56q0 7 7 7zM313 335h27q7 0 7 -6l2 -138q0 -7 -5 -11l-6 -5q-6 -4 -17 -3q-44 6 -55 6q-87 0 -132 -44t-45 -108v-6q0 -67 49.5 -110.5t134.5 -43.5h7q87 0 178 46q2 1 4.5 -0.5t2.5 -4.5v-32q0 -9 -8 -12
q-29 -17 -77.5 -30t-100.5 -13h-9q-105 0 -169 54.5t-64 137.5v17q0 37 14 71t39.5 60t65.5 41t89 15q30 0 60 -5l1 118q1 6 7 6z" />
    <glyph glyph-name="Agrave" unicode="&#xc0;" horiz-adv-x="619" 
d="M258 946l72 -157q1 -3 0 -5.5t-5 -2.5h-23q-7 0 -11 7l-82 157q-2 7 6 9h30q9 0 13 -8zM281 700h57q8 0 11 -9l233 -684q2 -7 -5 -7h-38q-8 0 -12 9l-74 216h-288l-74 -216q-3 -9 -11 -9h-38q-7 0 -5 7l232 684q4 9 12 9zM307 653l-93 -280l-35 -102h261l-36 102l-93 280
h-4z" />
    <glyph glyph-name="Aacute" unicode="&#xc1;" horiz-adv-x="619" 
d="M289 789l72 157q3 8 12 8h30q4 0 6 -3t0 -6l-82 -157q-4 -7 -11 -7h-23q-3 0 -4.5 2.5t0.5 5.5zM281 700h57q8 0 11 -9l233 -684q2 -7 -5 -7h-38q-8 0 -12 9l-74 216h-288l-74 -216q-3 -9 -11 -9h-38q-7 0 -5 7l232 684q4 9 12 9zM307 653l-93 -280l-35 -102h261l-35 102
l-94 280h-4z" />
    <glyph glyph-name="Acircumflex" unicode="&#xc2;" horiz-adv-x="619" 
d="M331 946l90 -156q2 -4 0 -6.5t-6 -2.5h-27q-9 0 -13 8l-66 128l-65 -128q-4 -8 -13 -8h-27q-4 0 -6 2.5t0 6.5l90 156q4 8 11 8h21q7 0 11 -8zM281 700h57q8 0 11 -9l233 -684q2 -7 -5 -7h-38q-8 0 -12 9l-74 216h-288l-74 -216q-3 -9 -11 -9h-38q-7 0 -5 7l232 684
q4 9 12 9zM307 653l-93 -280l-35 -102h261l-36 102l-93 280h-4z" />
    <glyph glyph-name="Atilde" unicode="&#xc3;" horiz-adv-x="619" 
d="M425 858h18q8 0 5 -9q-10 -32 -35 -55t-55 -23h-4q-26 0 -51 22.5t-44 22.5q-31 0 -55 -39q-4 -6 -10 -6h-18q-8 0 -5 8q10 32 35 55t55 23h4q21 0 36 -11t28.5 -22.5t30.5 -11.5q31 0 55 40q3 6 10 6zM281 700h57q8 0 11 -9l233 -684q2 -7 -5 -7h-38q-8 0 -12 9l-74 216
h-288l-74 -216q-3 -9 -11 -9h-38q-7 0 -5 7l232 684q4 9 12 9zM307 653l-93 -280l-35 -102h261l-35 102l-94 280h-4z" />
    <glyph glyph-name="Adieresis" unicode="&#xc4;" horiz-adv-x="619" 
d="M214 864h47q8 0 8 -7v-56q0 -8 -8 -8h-47q-8 0 -8 8v56q0 7 8 7zM358 864h47q8 0 8 -7v-56q0 -8 -8 -8h-47q-8 0 -8 8v56q0 7 8 7zM281 700h57q8 0 11 -9l233 -684q2 -7 -5 -7h-38q-8 0 -12 9l-74 216h-288l-74 -216q-3 -9 -11 -9h-38q-7 0 -5 7l232 684q4 9 12 9z
M307 653l-93 -280l-35 -102h261l-36 102l-93 280h-4z" />
    <glyph glyph-name="Aring" unicode="&#xc5;" horiz-adv-x="619" 
d="M310 922q32 0 54.5 -22t22.5 -54t-22.5 -54.5t-54.5 -22.5q-33 0 -55.5 23t-22.5 54q0 21 10 38.5t28 27.5t40 10zM309.5 891q-19.5 0 -32 -12.5t-12.5 -31.5q0 -12 5.5 -23t15.5 -17.5t24 -6.5q19 0 31.5 14t12.5 33t-12.5 31.5t-32 12.5zM281 700h57q8 0 11 -9
l233 -684q2 -7 -5 -7h-38q-8 0 -12 9l-74 216h-288l-74 -216q-3 -9 -11 -9h-38q-7 0 -5 7l232 684q4 9 12 9zM307 653l-93 -280l-35 -102h261l-35 102l-94 280h-4z" />
    <glyph glyph-name="AE" unicode="&#xc6;" horiz-adv-x="777" 
d="M361 384h342q7 0 7 -7v-33q0 -6 -7 -6h-342v-292h364q7 0 7 -6v-33q0 -7 -7 -7h-408q-7 0 -7 7v218h-145l-74 -216q-3 -9 -11 -9h-38q-7 0 -5 7l232 684q4 9 12 9h444q7 0 7 -7v-33q0 -6 -7 -6h-364v-270zM310 653h-3l-93 -280l-35 -102h131v382z" />
    <glyph glyph-name="Ccedilla" unicode="&#xc7;" horiz-adv-x="589" 
d="M371 667h-7q-48 0 -90.5 -17t-75.5 -49.5t-52.5 -84t-19.5 -115.5v-102q0 -126 68.5 -196t169.5 -70h7q81 0 165 45q2 1 4.5 0t2.5 -4v-32q0 -8 -7 -12q-31 -17 -76 -30t-92 -13h-8l-8 -50q17 5 34 5q37 0 58.5 -20t21.5 -55q0 -26 -12.5 -45t-34.5 -28t-50 -9
q-35 0 -62 10q-9 3 -9 13v12q0 7 7 6q39 -10 59 -10q66 0 66 49q0 22 -14 33.5t-38 11.5q-9 0 -41 -7q-8 -2 -12 1l-4 3q-6 6 -5 11l13 70q-109 11 -182 91t-73 216v110q0 74 23.5 133.5t63 97t90 57.5t107.5 20h11q91 0 167 -43q7 -4 7 -12v-32q0 -3 -2.5 -4t-4.5 0
q-85 45 -165 45z" />
    <glyph glyph-name="Egrave" unicode="&#xc8;" horiz-adv-x="559" 
d="M250 946l72 -157q2 -3 0.5 -5.5t-4.5 -2.5h-23q-8 0 -11 7l-82 157q-2 7 6 9h30q8 0 12 -8zM143 384h342q7 0 7 -7v-33q0 -6 -7 -6h-342v-292h364q6 0 6 -6v-33q0 -7 -6 -7h-409q-6 0 -6 7v686q0 7 6 7h409q6 0 6 -7v-33q0 -6 -6 -6h-364v-270z" />
    <glyph glyph-name="Eacute" unicode="&#xc9;" horiz-adv-x="559" 
d="M272 789l72 157q4 8 13 8h30q4 0 5.5 -3t0.5 -6l-82 -157q-4 -7 -11 -7h-24q-3 0 -4 2.5t0 5.5zM143 384h342q7 0 7 -7v-33q0 -6 -7 -6h-342v-292h364q6 0 6 -6v-33q0 -7 -6 -7h-409q-6 0 -6 7v686q0 7 6 7h409q6 0 6 -7v-33q0 -6 -6 -6h-364v-270z" />
    <glyph glyph-name="Ecircumflex" unicode="&#xca;" horiz-adv-x="559" 
d="M324 946l90 -156q2 -4 0 -6.5t-6 -2.5h-28q-8 0 -12 8l-66 128l-66 -128q-4 -8 -12 -8h-28q-4 0 -6 2.5t0 6.5l91 156q3 8 11 8h20q8 0 12 -8zM143 384h342q7 0 7 -7v-33q0 -6 -7 -6h-342v-292h364q6 0 6 -6v-33q0 -7 -6 -7h-409q-6 0 -6 7v686q0 7 6 7h409q6 0 6 -7v-33
q0 -6 -6 -6h-364v-270z" />
    <glyph glyph-name="Edieresis" unicode="&#xcb;" horiz-adv-x="559" 
d="M202 864h47q8 0 8 -7v-56q0 -8 -8 -8h-47q-7 0 -7 8v56q0 7 7 7zM346 864h47q8 0 8 -7v-56q0 -8 -8 -8h-47q-7 0 -7 8v56q0 7 7 7zM143 384h342q7 0 7 -7v-33q0 -6 -7 -6h-342v-292h364q6 0 6 -6v-33q0 -7 -6 -7h-409q-6 0 -6 7v686q0 7 6 7h409q6 0 6 -7v-33q0 -6 -6 -6
h-364v-270z" />
    <glyph glyph-name="Igrave" unicode="&#xcc;" horiz-adv-x="235" 
d="M64 946l72 -157q2 -3 0.5 -5.5t-4.5 -2.5h-23q-8 0 -12 7l-81 157q-2 3 0 6t6 3h30q8 0 12 -8zM98 700h38q7 0 7 -7v-686q0 -7 -7 -7h-38q-6 0 -6 7v686q0 7 6 7z" />
    <glyph glyph-name="Iacute" unicode="&#xcd;" horiz-adv-x="235" 
d="M98 789l72 157q4 8 13 8h30q4 0 5.5 -3t0.5 -6l-82 -157q-4 -7 -11 -7h-23q-4 0 -5 2.5t0 5.5zM98 700h38q7 0 7 -7v-686q0 -7 -7 -7h-38q-6 0 -6 7v686q0 7 6 7z" />
    <glyph glyph-name="Icircumflex" unicode="&#xce;" horiz-adv-x="235" 
d="M140 946l90 -156q2 -4 0 -6.5t-6 -2.5h-28q-8 0 -12 8l-66 128l-66 -128q-4 -8 -12 -8h-28q-4 0 -6 2.5t0 6.5l90 156q4 8 12 8h20q8 0 12 -8zM98 700h38q7 0 7 -7v-686q0 -7 -7 -7h-38q-6 0 -6 7v686q0 7 6 7z" />
    <glyph glyph-name="Idieresis" unicode="&#xcf;" horiz-adv-x="235" 
d="M22 864h48q7 0 7 -7v-56q0 -8 -7 -8h-48q-7 0 -7 8v56q0 7 7 7zM166 864h48q7 0 7 -7v-56q0 -8 -7 -8h-48q-7 0 -7 8v56q0 7 7 7zM98 700h38q7 0 7 -7v-686q0 -7 -7 -7h-38q-6 0 -6 7v686q0 7 6 7z" />
    <glyph glyph-name="Eth" unicode="&#xd0;" horiz-adv-x="663" 
d="M98 700h227q117 0 190.5 -76t73.5 -222v-104q0 -146 -73.5 -222t-190.5 -76h-227q-6 0 -6 7v295h-49q-6 0 -6 7v29q0 6 6 6h49v349q0 7 6 7zM537 303v94q0 128 -58.5 192.5t-157.5 64.5h-178v-310h199q7 0 7 -6v-29q0 -7 -7 -7h-199v-256h178q99 0 157.5 64.5t58.5 192.5
z" />
    <glyph glyph-name="Ntilde" unicode="&#xd1;" horiz-adv-x="681" 
d="M456 858h18q8 0 5 -9q-10 -32 -35 -55t-55 -23h-4q-25 0 -50 22.5t-45 22.5q-30 0 -55 -39q-3 -6 -10 -6h-18q-8 0 -5 8q10 32 35 55t55 23h4q21 0 36 -11t28.5 -22.5t30.5 -11.5q31 0 55 40q3 6 10 6zM549 700h38q7 0 7 -7v-686q0 -7 -7 -7h-46q-7 0 -10 5l-392 616h-3
l2 -254v-360q0 -7 -6 -7h-38q-7 0 -7 7v686q0 7 7 7h46q7 0 10 -5l392 -616h3l-2 309v305q0 7 6 7z" />
    <glyph glyph-name="Ograve" unicode="&#xd2;" horiz-adv-x="690" 
d="M290 946l72 -157q2 -3 0.5 -5.5t-4.5 -2.5h-23q-7 0 -11 7l-82 157q-2 3 0 6t6 3h30q8 0 12 -8zM338 713h15q55 0 102.5 -18.5t83.5 -54.5t56.5 -93.5t20.5 -130.5v-132q0 -145 -74 -221t-189 -76h-15q-116 0 -190 76t-74 221v132q0 42 7 79.5t20 67.5t31 54.5t40.5 42
t49 29.5t55.5 18t61 6zM351 667h-12q-96 0 -154.5 -64t-58.5 -189v-128q0 -63 16 -112t45 -79.5t67.5 -46t84.5 -15.5h12q96 0 154.5 64t58.5 189v128q0 51 -10.5 92.5t-29.5 71t-45.5 50t-58.5 30t-69 9.5z" />
    <glyph glyph-name="Oacute" unicode="&#xd3;" horiz-adv-x="690" 
d="M331 789l72 157q4 8 12 8h31q3 0 5 -3t0 -6l-81 -157q-4 -7 -12 -7h-23q-3 0 -4.5 2.5t0.5 5.5zM338 713h15q115 0 189 -76t74 -221v-132q0 -145 -74 -221t-189 -76h-15q-116 0 -190 76t-74 221v132q0 145 74 221t190 76zM351 667h-12q-96 0 -154.5 -64t-58.5 -189v-128
q0 -125 58.5 -189t154.5 -64h12q96 0 154.5 64t58.5 189v128q0 125 -58.5 189t-154.5 64z" />
    <glyph glyph-name="Ocircumflex" unicode="&#xd4;" horiz-adv-x="690" 
d="M367 946l90 -156q2 -4 0.5 -6.5t-5.5 -2.5h-28q-9 0 -12 8l-66 128l-66 -128q-4 -8 -13 -8h-27q-4 0 -6 2.5t0 6.5l90 156q4 8 11 8h21q7 0 11 -8zM338 713h15q55 0 102.5 -18.5t83.5 -54.5t56.5 -93.5t20.5 -130.5v-132q0 -145 -74 -221t-189 -76h-15q-116 0 -190 76
t-74 221v132q0 42 7 79.5t20 67.5t31 54.5t40.5 42t49 29.5t55.5 18t61 6zM351 667h-12q-96 0 -154.5 -64t-58.5 -189v-128q0 -63 16 -112t45 -79.5t67.5 -46t84.5 -15.5h12q96 0 154.5 64t58.5 189v128q0 51 -10.5 92.5t-29.5 71t-45.5 50t-58.5 30t-69 9.5z" />
    <glyph glyph-name="Otilde" unicode="&#xd5;" horiz-adv-x="690" 
d="M461 858h18q8 0 5 -9q-10 -32 -35 -55t-55 -23h-4q-25 0 -50 22.5t-45 22.5q-30 0 -55 -39q-3 -6 -10 -6h-18q-8 0 -5 8q10 32 35 55t56 23h4q20 0 35 -11t29 -22.5t30 -11.5q31 0 55 40q4 6 10 6zM338 713h15q55 0 102.5 -18.5t83.5 -54.5t56.5 -93.5t20.5 -130.5v-132
q0 -145 -74 -221t-189 -76h-15q-116 0 -190 76t-74 221v132q0 42 7 79.5t20 67.5t31 54.5t40.5 42t49 29.5t55.5 18t61 6zM351 667h-12q-96 0 -154.5 -64t-58.5 -189v-128q0 -125 58.5 -189t154.5 -64h12q96 0 154.5 64t58.5 189v128q0 125 -58.5 189t-154.5 64z" />
    <glyph glyph-name="Odieresis" unicode="&#xd6;" horiz-adv-x="690" 
d="M250 864h47q8 0 8 -7v-56q0 -8 -8 -8h-47q-7 0 -7 8v56q0 7 7 7zM394 864h47q8 0 8 -7v-56q0 -8 -8 -8h-47q-7 0 -7 8v56q0 7 7 7zM338 713h15q115 0 189 -76t74 -221v-132q0 -145 -74 -221t-189 -76h-15q-116 0 -190 76t-74 221v132q0 145 74 221t190 76zM351 667h-12
q-96 0 -154.5 -64t-58.5 -189v-128q0 -125 58.5 -189t154.5 -64h12q96 0 154.5 64t58.5 189v128q0 125 -58.5 189t-154.5 64z" />
    <glyph glyph-name="multiply" unicode="&#xd7;" horiz-adv-x="426" 
d="M243 326l144 -145q5 -4 0 -9l-20 -20q-5 -5 -9 0l-145 144l-144 -145q-5 -4 -10 0l-20 21q-5 5 0 9l144 145l-144 144q-5 5 0 9l20 21q5 5 10 0l144 -144l145 144q4 5 9 0l20 -21q5 -4 0 -9z" />
    <glyph glyph-name="Oslash" unicode="&#xd8;" horiz-adv-x="690" 
d="M581 700h30q6 0 7 -3t-2 -8l-55 -76q55 -76 55 -197v-132q0 -145 -74 -221t-189 -76h-15q-111 0 -181 67l-33 -45q-7 -9 -15 -9h-30q-5 0 -6.5 3t1.5 8l55 76q-55 76 -55 197v132q0 145 74 221t190 76h15q111 0 181 -68l33 46q6 9 14 9zM126 414v-128q0 -94 35 -155
l343 473q-56 63 -153 63h-12q-96 0 -154.5 -64t-58.5 -189zM564 286v128q0 94 -35 155l-343 -474q56 -62 153 -62h12q96 0 154.5 64t58.5 189z" />
    <glyph glyph-name="Ugrave" unicode="&#xd9;" horiz-adv-x="683" 
d="M287 946l72 -157q2 -3 0.5 -5.5t-4.5 -2.5h-23q-8 0 -12 7l-81 157q-2 3 0 6t5 3h31q8 0 12 -8zM551 700h38q7 0 7 -7v-442q0 -129 -66 -196.5t-179 -67.5h-15q-112 0 -178 67.5t-66 196.5v442q0 7 6 7h38q7 0 7 -7v-439q0 -109 51 -165t144 -56h12q92 0 143 56t51 165
v439q0 7 7 7z" />
    <glyph glyph-name="Uacute" unicode="&#xda;" horiz-adv-x="683" 
d="M330 789l72 157q4 8 12 8h31q3 0 5 -3t0 -6l-81 -157q-4 -7 -12 -7h-23q-3 0 -4.5 2.5t0.5 5.5zM551 700h38q7 0 7 -7v-442q0 -129 -66 -196.5t-179 -67.5h-15q-112 0 -178 67.5t-66 196.5v442q0 7 6 7h38q7 0 7 -7v-439q0 -109 51 -165t144 -56h12q92 0 143 56t51 165
v439q0 7 7 7z" />
    <glyph glyph-name="Ucircumflex" unicode="&#xdb;" horiz-adv-x="683" 
d="M363 946l90 -156q2 -4 0 -6.5t-6 -2.5h-27q-9 0 -13 8l-65 128l-66 -128q-4 -8 -13 -8h-27q-4 0 -6 2.5t0 6.5l90 156q4 8 11 8h21q7 0 11 -8zM551 700h38q7 0 7 -7v-442q0 -129 -66 -196.5t-179 -67.5h-15q-112 0 -178 67.5t-66 196.5v442q0 7 6 7h38q7 0 7 -7v-439
q0 -109 51 -165t144 -56h12q92 0 143 56t51 165v439q0 7 7 7z" />
    <glyph glyph-name="Udieresis" unicode="&#xdc;" horiz-adv-x="683" 
d="M246 864h47q8 0 8 -7v-56q0 -8 -8 -8h-47q-8 0 -8 8v56q0 7 8 7zM390 864h47q8 0 8 -7v-56q0 -8 -8 -8h-47q-8 0 -8 8v56q0 7 8 7zM551 700h38q7 0 7 -7v-442q0 -129 -66 -196.5t-179 -67.5h-15q-112 0 -178 67.5t-66 196.5v442q0 7 6 7h38q7 0 7 -7v-439q0 -109 51 -165
t144 -56h12q92 0 143 56t51 165v439q0 7 7 7z" />
    <glyph glyph-name="Yacute" unicode="&#xdd;" horiz-adv-x="616" 
d="M296 789l72 157q4 8 13 8h30q3 0 5 -3t1 -6l-82 -157q-4 -7 -12 -7h-23q-3 0 -4.5 2.5t0.5 5.5zM534 700h39q4 0 5.5 -2.5t0.5 -5.5l-246 -452v-233q0 -7 -6 -7h-38q-6 0 -6 7v233l-246 452q-1 3 0.5 5.5t5.5 2.5h39q8 0 12 -7l152 -278l61 -120h2l61 120l152 278
q4 7 12 7z" />
    <glyph glyph-name="Thorn" unicode="&#xde;" horiz-adv-x="628" 
d="M143 607h162q125 0 186.5 -51.5t61.5 -147.5v-21q0 -47 -15 -85.5t-45 -67.5t-78.5 -45t-111.5 -16h-160v-166q0 -7 -7 -7h-38q-6 0 -6 7v686q0 7 6 7h38q7 0 7 -7v-86zM501 390v12q0 77 -47.5 118t-154.5 41h-156v-343h156q54 0 94 13t63 36.5t34 54t11 68.5z" />
    <glyph glyph-name="germandbls" unicode="&#xdf;" horiz-adv-x="546" 
d="M207 750h7q37 0 66.5 -13.5t49 -44.5t19.5 -74v-7q0 -31 -14.5 -58t-35.5 -45l-43 -35q-21 -17 -35.5 -37.5t-14.5 -43.5v-6q0 -18 7.5 -32.5t17 -24t27.5 -18.5t29 -13t33 -11q5 -2 8 -3l26 -8q31 -10 50 -18t40.5 -20t33 -26t19 -34.5t7.5 -45.5v-6q0 -66 -49 -102.5
t-120 -36.5h-10q-35 0 -79 11.5t-70 26.5q-7 3 -7 12v27q0 7 7 5q75 -42 147 -42h9q52 0 87.5 25.5t35.5 71.5v6q0 15 -4 27.5t-13 22t-17 16t-23.5 13.5t-24.5 10l-27 9l-26 9l-9 3l-44 16q-15 5 -38.5 17t-35.5 24t-21.5 32t-9.5 44v7q0 21 8.5 40t21.5 33.5t28 28.5
l32 27q16 14 29 28t21 32.5t8 38.5v6q0 46 -26.5 70t-64.5 24h-4q-39 0 -65.5 -26t-26.5 -78v-597q0 -7 -6 -7h-37q-7 0 -7 7v602q0 69 38.5 105t95.5 36z" />
    <glyph glyph-name="agrave" unicode="&#xe0;" horiz-adv-x="489" 
d="M194 746l72 -157q2 -3 0.5 -5.5t-4.5 -2.5h-23q-8 0 -12 7l-82 157q-1 3 0.5 6t5.5 3h30q9 0 13 -8zM245 513h6q87 0 127.5 -45.5t40.5 -142.5v-318q0 -7 -7 -7h-33q-6 0 -7 6l-1 64q-18 -20 -39 -36t-43 -26t-44 -15.5t-43 -5.5h-6q-73 0 -116 39t-43 104v5
q0 80 56 118.5t173 43.5l103 4v24q0 75 -27.5 110.5t-98.5 35.5h-3q-72 0 -158 -41q-6 -3 -6 4v28q0 9 7 12q32 16 78 27.5t84 11.5zM369 264l-111 -4q-88 -3 -129.5 -33t-41.5 -88v-5q0 -48 33 -76.5t90 -28.5h4q83 0 155 84v151z" />
    <glyph glyph-name="aacute" unicode="&#xe1;" horiz-adv-x="489" 
d="M235 589l72 157q4 8 13 8h30q4 0 5.5 -3t0.5 -6l-82 -157q-4 -7 -11 -7h-24q-3 0 -4 2.5t0 5.5zM245 513h6q87 0 127.5 -45.5t40.5 -142.5v-318q0 -7 -7 -7h-33q-6 0 -7 6l-1 64q-35 -40 -80.5 -61.5t-88.5 -21.5h-6q-73 0 -116 39t-43 104v5q0 80 56 118.5t173 43.5
l103 4v24q0 50 -11 81t-39 47.5t-76 16.5h-3q-72 0 -158 -40q-6 -3 -6 4v28q0 9 7 12q32 16 78 27.5t84 11.5zM369 264l-111 -4q-88 -3 -129.5 -33t-41.5 -88v-5q0 -32 15 -55.5t43 -36.5t65 -13h4q83 0 155 84v151z" />
    <glyph glyph-name="acircumflex" unicode="&#xe2;" horiz-adv-x="489" 
d="M266 746l90 -156q2 -4 0 -6.5t-6 -2.5h-27q-9 0 -13 8l-66 128l-65 -128q-4 -8 -13 -8h-27q-4 0 -6 2.5t0 6.5l90 156q4 8 11 8h21q7 0 11 -8zM245 513h6q87 0 127.5 -45.5t40.5 -142.5v-318q0 -7 -7 -7h-33q-6 0 -7 6l-1 64q-35 -40 -80.5 -61.5t-88.5 -21.5h-6
q-73 0 -116 39t-43 104v5q0 80 56 118.5t173 43.5l103 4v24q0 37 -6 63.5t-20.5 45.5t-39 28t-60.5 9h-3q-72 0 -158 -41q-6 -3 -6 4v28q0 9 7 12q32 16 78 27.5t84 11.5zM369 264l-111 -4q-88 -3 -129.5 -33t-41.5 -88v-5q0 -48 33 -76.5t90 -28.5h4q83 0 155 84v151z" />
    <glyph glyph-name="atilde" unicode="&#xe3;" horiz-adv-x="489" 
d="M360 658h18q8 0 5 -9q-6 -20 -19 -37.5t-32 -29t-39 -11.5h-4q-26 0 -50.5 22.5t-44.5 22.5q-30 0 -55 -39q-3 -6 -10 -6h-18q-8 0 -5 8q5 15 13.5 29t20 25t26.5 17.5t30 6.5h4q21 0 36 -11t28.5 -22.5t30.5 -11.5q31 0 55 40q3 6 10 6zM245 513h6q87 0 127.5 -45.5
t40.5 -142.5v-318q0 -7 -7 -7h-33q-6 0 -7 6l-1 64q-35 -40 -80.5 -61.5t-88.5 -21.5h-6q-73 0 -116 39t-43 104v5q0 80 56 118.5t173 43.5l103 4v24q0 75 -27.5 110.5t-98.5 35.5h-3q-72 0 -158 -41q-6 -3 -6 4v28q0 9 7 12q32 16 78 27.5t84 11.5zM369 264l-111 -4
q-88 -3 -129.5 -33t-41.5 -88v-5q0 -32 15 -55.5t43 -36.5t65 -13h4q83 0 155 84v151z" />
    <glyph glyph-name="adieresis" unicode="&#xe4;" horiz-adv-x="489" 
d="M149 664h47q8 0 8 -7v-56q0 -8 -8 -8h-47q-8 0 -8 8v56q0 7 8 7zM293 664h47q8 0 8 -7v-56q0 -8 -8 -8h-47q-8 0 -8 8v56q0 7 8 7zM245 513h6q87 0 127.5 -45.5t40.5 -142.5v-318q0 -7 -7 -7h-33q-6 0 -7 6l-1 64q-35 -40 -80.5 -61.5t-88.5 -21.5h-6q-73 0 -116 39
t-43 104v5q0 80 56 118.5t173 43.5l103 4v24q0 75 -27.5 110.5t-98.5 35.5h-3q-72 0 -158 -41q-6 -3 -6 4v28q0 9 7 12q32 16 78 27.5t84 11.5zM369 264l-111 -4q-88 -3 -129.5 -33t-41.5 -88v-5q0 -48 33 -76.5t90 -28.5h4q83 0 155 84v151z" />
    <glyph glyph-name="aring" unicode="&#xe5;" horiz-adv-x="489" 
d="M245 722q32 0 54.5 -22t22.5 -54t-22.5 -54.5t-54.5 -22.5q-33 0 -55.5 23t-22.5 54q0 32 22.5 54t55.5 22zM245 691q-14 0 -24 -6t-15.5 -16t-5.5 -22t5.5 -23t15.5 -17.5t24 -6.5q19 0 31.5 14t12.5 33t-12 31.5t-32 12.5zM245 513h6q87 0 127.5 -45.5t40.5 -142.5
v-318q0 -7 -7 -7h-33q-6 0 -7 6l-1 64q-35 -40 -80.5 -61.5t-88.5 -21.5h-6q-73 0 -116 39t-43 104v5q0 80 56 118.5t173 43.5l103 4v24q0 75 -27.5 110t-98.5 35h-3q-72 0 -158 -40q-6 -3 -6 4v28q0 9 7 12q32 16 78 27.5t84 11.5zM369 264l-111 -4q-88 -3 -129.5 -33
t-41.5 -88v-5q0 -32 15 -55.5t43 -36.5t65 -13h4q83 0 155 84v151z" />
    <glyph glyph-name="ae" unicode="&#xe6;" horiz-adv-x="837" 
d="M575 513h11q45 0 80.5 -14.5t59.5 -42.5t37 -70.5t13 -97.5v-32q0 -8 -8 -8h-348v-53q0 -77 49 -121t125 -44h4q71 0 154 41q7 3 7 -4v-29q0 -8 -7 -12q-30 -16 -75 -27.5t-82 -11.5h-7q-40 0 -74.5 10.5t-62.5 31t-46 49.5v-71q0 -7 -6 -7h-20q-6 0 -7 6l-1 64
q-35 -40 -80.5 -61.5t-88.5 -21.5h-6q-73 0 -116 39t-43 104v5q0 80 56 118.5t173 43.5l103 4v24q0 50 -11 81t-39 48t-76 17h-3q-72 0 -158 -41q-6 -3 -6 4v28q0 9 7 12q32 16 78 27.5t84 11.5h6q66 0 102.5 -27t50.5 -82q24 52 69 80.5t102 28.5zM420 284h308
q1 188 -144 188h-8q-45 0 -80.5 -22.5t-55.5 -65t-20 -100.5zM369 264l-111 -4q-88 -3 -129.5 -33t-41.5 -88v-5q0 -48 33 -76.5t90 -28.5h4q83 0 155 84v151z" />
    <glyph glyph-name="ccedilla" unicode="&#xe7;" horiz-adv-x="497" 
d="M296 470h-9q-48 0 -87 -20.5t-63 -63t-24 -101.5v-70q0 -87 49.5 -136t124.5 -49h9q60 0 133 41q7 3 7 -4v-29q0 -8 -7 -12q-65 -39 -137 -39h-11h-15l-9 -50q17 5 35 5q36 0 58 -20t22 -55q0 -26 -13 -45t-34.5 -28t-50.5 -9q-35 0 -62 10q-9 3 -9 13v12q0 7 7 6
q40 -10 60 -10q65 0 65 49q0 22 -14 33.5t-37 11.5q-9 0 -41 -7q-9 -2 -13 1l-3 3q-6 6 -5 11l13 73q-77 14 -124.5 72t-47.5 152v70q0 108 62.5 168t155.5 60h11q72 0 137 -39q7 -4 7 -12v-29q0 -7 -7 -4q-73 41 -133 41z" />
    <glyph glyph-name="egrave" unicode="&#xe8;" horiz-adv-x="530" 
d="M218 746l72 -157q2 -3 0.5 -5.5t-4.5 -2.5h-23q-8 0 -11 7l-82 157q-2 3 0 6t6 3h30q8 0 12 -8zM268 513h11q91 0 140.5 -57.5t49.5 -167.5v-32q0 -8 -8 -8h-348v-53q0 -77 49 -121.5t126 -44.5h4q70 0 154 42q6 3 6 -4v-29q0 -8 -6 -12q-30 -16 -75 -27.5t-83 -11.5h-7
q-95 0 -156.5 56.5t-61.5 155.5v77q0 109 57.5 173t147.5 64zM278 472h-8q-70 0 -113 -50.5t-44 -137.5h309q0 188 -144 188z" />
    <glyph glyph-name="eacute" unicode="&#xe9;" horiz-adv-x="530" 
d="M251 589l72 157q4 8 13 8h30q3 0 5 -3t1 -6l-82 -157q-4 -7 -12 -7h-23q-3 0 -4.5 2.5t0.5 5.5zM268 513h11q91 0 140.5 -57.5t49.5 -167.5v-32q0 -8 -8 -8h-348v-53q0 -77 49 -121.5t126 -44.5h4q70 0 154 42q6 3 6 -4v-29q0 -8 -6 -12q-30 -16 -75 -27.5t-83 -11.5h-7
q-95 0 -156.5 56.5t-61.5 155.5v77q0 109 57.5 173t147.5 64zM278 472h-8q-70 0 -113 -50.5t-44 -137.5h309q0 188 -144 188z" />
    <glyph glyph-name="ecircumflex" unicode="&#xea;" horiz-adv-x="530" 
d="M287 746l90 -156q2 -4 0 -6.5t-6 -2.5h-28q-8 0 -12 8l-66 128l-66 -128q-4 -8 -12 -8h-28q-4 0 -6 2.5t0 6.5l90 156q4 8 12 8h20q8 0 12 -8zM268 513h11q91 0 140.5 -57.5t49.5 -167.5v-32q0 -8 -8 -8h-348v-53q0 -77 49 -121.5t126 -44.5h4q70 0 154 42q6 3 6 -4v-29
q0 -8 -7 -12q-19 -10 -45.5 -19t-56.5 -14.5t-55 -5.5h-7q-95 0 -156.5 56.5t-61.5 155.5v77q0 109 57.5 173t147.5 64zM278 472h-9q-45 0 -80 -22.5t-55 -65t-21 -100.5h309q0 188 -144 188z" />
    <glyph glyph-name="edieresis" unicode="&#xeb;" horiz-adv-x="530" 
d="M169 664h48q7 0 7 -7v-56q0 -8 -7 -8h-48q-7 0 -7 8v56q0 7 7 7zM313 664h48q7 0 7 -7v-56q0 -8 -7 -8h-48q-7 0 -7 8v56q0 7 7 7zM268 513h11q91 0 140.5 -57.5t49.5 -167.5v-32q0 -8 -8 -8h-348v-53q0 -77 49 -121.5t126 -44.5h4q70 0 154 42q6 3 6 -4v-29q0 -8 -7 -12
q-29 -16 -74 -27.5t-83 -11.5h-7q-95 0 -156.5 56.5t-61.5 155.5v77q0 109 57.5 173t147.5 64zM278 472h-8q-70 0 -113 -50.5t-44 -137.5h309q0 188 -144 188z" />
    <glyph glyph-name="igrave" unicode="&#xec;" horiz-adv-x="195" 
d="M41 746l72 -157q1 -3 0 -5.5t-5 -2.5h-23q-7 0 -11 7l-82 157q-2 3 0 6t6 3h30q9 0 13 -8zM80 500h37q7 0 7 -7v-486q0 -7 -7 -7h-37q-6 0 -6 7v486q0 7 6 7z" />
    <glyph glyph-name="iacute" unicode="&#xed;" horiz-adv-x="195" 
d="M85 589l72 157q4 8 12 8h30q4 0 6 -3t0 -6l-81 -157q-4 -7 -12 -7h-23q-3 0 -4.5 2.5t0.5 5.5zM80 500h37q7 0 7 -7v-486q0 -7 -7 -7h-37q-6 0 -6 7v486q0 7 6 7z" />
    <glyph glyph-name="icircumflex" unicode="&#xee;" horiz-adv-x="195" 
d="M120 746l91 -156q2 -4 0 -6.5t-6 -2.5h-28q-8 0 -12 8l-66 128l-66 -128q-4 -8 -13 -8h-27q-4 0 -6 2.5t0 6.5l90 156q4 8 12 8h20q8 0 11 -8zM80 500h37q7 0 7 -7v-486q0 -7 -7 -7h-37q-6 0 -6 7v486q0 7 6 7z" />
    <glyph glyph-name="idieresis" unicode="&#xef;" horiz-adv-x="195" 
d="M3 664h47q8 0 8 -7v-56q0 -8 -8 -8h-47q-8 0 -8 8v56q0 7 8 7zM147 664h47q8 0 8 -7v-56q0 -8 -8 -8h-47q-8 0 -8 8v56q0 7 8 7zM80 500h37q7 0 7 -7v-486q0 -7 -7 -7h-37q-6 0 -6 7v486q0 7 6 7z" />
    <glyph glyph-name="eth" unicode="&#xf0;" horiz-adv-x="536" 
d="M493 749l14 -21q5 -5 -2 -10l-61 -43q30 -46 30 -118v-344q0 -108 -54.5 -167t-146.5 -59h-11q-88 0 -143.5 59.5t-55.5 166.5v62q0 107 49.5 165.5t140.5 58.5h5q42 0 86.5 -20t78.5 -59v138q0 54 -19 89l-86 -60q-5 -4 -10 1l-14 21q-5 5 2 10l83 58q-37 31 -105 31h-4
q-71 0 -153 -41q-6 -3 -6 4v29q0 8 7 11q77 39 158 39h5q88 0 138 -45l64 45q5 3 10 -1zM423 211v161q-73 84 -157 84h-2q-49 0 -82.5 -20.5t-51 -61t-17.5 -99.5v-64q0 -87 41.5 -134t109.5 -47h8q71 0 111 46.5t40 134.5z" />
    <glyph glyph-name="ntilde" unicode="&#xf1;" horiz-adv-x="537" 
d="M385 658h17q9 0 6 -9q-7 -20 -20 -37.5t-32 -29t-39 -11.5h-4q-25 0 -50 22.5t-44 22.5q-31 0 -55 -39q-4 -6 -10 -6h-18q-9 0 -6 8q5 15 14 29t20.5 25t26.5 17.5t30 6.5h4q20 0 35.5 -11t29 -22.5t29.5 -11.5q31 0 55 40q4 6 11 6zM295 513h6q166 0 166 -183v-323
q0 -7 -6 -7h-37q-6 0 -6 7v318q0 47 -12 78.5t-41.5 49t-76.5 17.5h-2q-79 0 -164 -76v-387q0 -7 -7 -7h-37q-6 0 -6 7v486q0 7 6 7h34q6 0 6 -6l2 -58q40 35 87 56t88 21z" />
    <glyph glyph-name="ograve" unicode="&#xf2;" horiz-adv-x="559" 
d="M224 746l71 -157q2 -3 0.5 -5.5t-4.5 -2.5h-23q-7 0 -11 7l-82 157q-2 3 0 6t6 3h30q9 0 13 -8zM274 513h11q93 0 152 -59.5t59 -166.5v-74q0 -107 -59 -166.5t-152 -59.5h-11q-93 0 -152 59.5t-59 166.5v74q0 107 59 166.5t152 59.5zM284 470h-9q-72 0 -117 -47.5
t-45 -133.5v-78q0 -86 45 -133.5t117 -47.5h9q72 0 117 47.5t45 133.5v78q0 86 -45 133.5t-117 47.5z" />
    <glyph glyph-name="oacute" unicode="&#xf3;" horiz-adv-x="559" 
d="M265 589l72 157q4 8 13 8h30q4 0 5.5 -3t0.5 -6l-82 -157q-4 -7 -11 -7h-24q-3 0 -4 2.5t0 5.5zM274 513h11q93 0 152 -59.5t59 -166.5v-74q0 -107 -59 -166.5t-152 -59.5h-11q-60 0 -107.5 25.5t-75.5 77t-28 123.5v74q0 107 59 166.5t152 59.5zM284 470h-9
q-72 0 -117 -47.5t-45 -133.5v-78q0 -86 45 -133.5t117 -47.5h9q72 0 117 47.5t45 133.5v78q0 58 -21 99t-57.5 61.5t-83.5 20.5z" />
    <glyph glyph-name="ocircumflex" unicode="&#xf4;" horiz-adv-x="559" 
d="M302 746l90 -156q2 -4 0 -6.5t-6 -2.5h-28q-8 0 -12 8l-66 128l-66 -128q-4 -8 -12 -8h-28q-4 0 -6 2.5t0 6.5l90 156q4 8 12 8h20q8 0 12 -8zM274 513h11q93 0 152 -59.5t59 -166.5v-74q0 -107 -59 -166.5t-152 -59.5h-11q-93 0 -152 59.5t-59 166.5v74q0 107 59 166.5
t152 59.5zM284 470h-9q-72 0 -117 -47.5t-45 -133.5v-78q0 -86 45 -133.5t117 -47.5h9q72 0 117 47.5t45 133.5v78q0 86 -45 133.5t-117 47.5z" />
    <glyph glyph-name="otilde" unicode="&#xf5;" horiz-adv-x="559" 
d="M396 658h17q9 0 6 -9q-10 -32 -35.5 -55t-55.5 -23h-4q-25 0 -50 22.5t-44 22.5q-31 0 -55 -39q-4 -6 -10 -6h-18q-8 0 -6 8q5 15 14 29t20.5 25t26.5 17.5t30 6.5h4q20 0 35.5 -11t29 -22.5t29.5 -11.5q31 0 55 40q4 6 11 6zM274 513h11q93 0 152 -59.5t59 -166.5v-74
q0 -107 -59 -166.5t-152 -59.5h-11q-93 0 -152 59.5t-59 166.5v74q0 107 59 166.5t152 59.5zM284 470h-9q-72 0 -117 -47.5t-45 -133.5v-78q0 -86 45 -133.5t117 -47.5h9q72 0 117 47.5t45 133.5v78q0 86 -45 133.5t-117 47.5z" />
    <glyph glyph-name="odieresis" unicode="&#xf6;" horiz-adv-x="559" 
d="M184 664h48q7 0 7 -7v-56q0 -8 -7 -8h-48q-7 0 -7 8v56q0 7 7 7zM328 664h48q7 0 7 -7v-56q0 -8 -7 -8h-48q-7 0 -7 8v56q0 7 7 7zM274 513h11q93 0 152 -59.5t59 -166.5v-74q0 -107 -59 -166.5t-152 -59.5h-11q-93 0 -152 59.5t-59 166.5v74q0 107 59 166.5t152 59.5z
M284 470h-9q-72 0 -117 -47.5t-45 -133.5v-78q0 -86 45 -133.5t117 -47.5h9q72 0 117 47.5t45 133.5v78q0 86 -45 133.5t-117 47.5z" />
    <glyph glyph-name="divide" unicode="&#xf7;" horiz-adv-x="537" 
d="M243 548h52q7 0 7 -7v-56q0 -8 -7 -8h-52q-7 0 -7 8v56q0 7 7 7zM43 341h451q7 0 7 -6v-29q0 -7 -7 -7h-451q-6 0 -6 7v29q0 6 6 6zM243 163h52q7 0 7 -8v-56q0 -7 -7 -7h-52q-7 0 -7 7v56q0 8 7 8z" />
    <glyph glyph-name="oslash" unicode="&#xf8;" horiz-adv-x="559" 
d="M461 500h31q5 0 6.5 -3t-2.5 -8l-43 -54q43 -59 43 -148v-74q0 -107 -59 -166.5t-152 -59.5h-11q-84 0 -140 48l-20 -26q-7 -9 -15 -9h-31q-6 0 -7.5 3t2.5 8l43 54q-43 59 -43 148v74q0 107 59 166.5t152 59.5h11q84 0 140 -48l21 26q7 9 15 9zM113 289v-78
q0 -63 25 -106l258 323q-43 42 -112 42h-9q-72 0 -117 -47.5t-45 -133.5zM446 211v78q0 62 -25 106l-257 -324q43 -41 111 -41h9q72 0 117 47.5t45 133.5z" />
    <glyph glyph-name="ugrave" unicode="&#xf9;" 
d="M208 746l72 -157q2 -3 0.5 -5.5t-4.5 -2.5h-23q-7 0 -11 7l-82 157q-2 3 0 6t6 3h30q9 0 12 -8zM414 500h37q6 0 6 -7v-486q0 -7 -6 -7h-34q-6 0 -6 6l-2 58q-40 -35 -86.5 -56t-88.5 -21h-6q-56 0 -91.5 22t-51 61.5t-15.5 99.5v323q0 7 6 7h37q7 0 7 -7v-318
q0 -73 27 -109t94 -36h3q79 0 164 76v387q0 7 6 7z" />
    <glyph glyph-name="uacute" unicode="&#xfa;" 
d="M250 589l72 157q4 8 12 8h30q4 0 6 -3t0 -6l-82 -157q-4 -7 -11 -7h-23q-3 0 -4.5 2.5t0.5 5.5zM414 500h37q6 0 6 -7v-486q0 -7 -6 -7h-34q-6 0 -6 6l-2 58q-26 -23 -55.5 -40t-60.5 -27t-59 -10h-6q-83 0 -120.5 46.5t-37.5 136.5v323q0 7 6 7h37q7 0 7 -7v-318
q0 -73 27 -109t94 -36h3q79 0 164 76v387q0 7 6 7z" />
    <glyph glyph-name="ucircumflex" unicode="&#xfb;" 
d="M286 746l90 -156q2 -4 0 -6.5t-6 -2.5h-28q-8 0 -12 8l-66 128l-66 -128q-4 -8 -12 -8h-28q-4 0 -6 2.5t0 6.5l90 156q4 8 12 8h20q8 0 12 -8zM414 500h37q6 0 6 -7v-486q0 -7 -6 -7h-34q-6 0 -6 6l-2 58q-19 -17 -41 -31t-44.5 -24.5t-45.5 -16t-44 -5.5h-6
q-83 0 -120.5 46.5t-37.5 136.5v323q0 7 6 7h37q7 0 7 -7v-318q0 -73 27 -109t94 -36h3q79 0 164 76v387q0 7 6 7z" />
    <glyph glyph-name="udieresis" unicode="&#xfc;" 
d="M168 664h48q7 0 7 -7v-56q0 -8 -7 -8h-48q-7 0 -7 8v56q0 7 7 7zM312 664h48q7 0 7 -7v-56q0 -8 -7 -8h-48q-7 0 -7 8v56q0 7 7 7zM414 500h37q6 0 6 -7v-486q0 -7 -6 -7h-34q-6 0 -6 6l-2 58q-40 -35 -86.5 -56t-88.5 -21h-6q-83 0 -120.5 46.5t-37.5 136.5v323q0 7 6 7
h37q7 0 7 -7v-318q0 -73 27 -109t94 -36h3q79 0 164 76v387q0 7 6 7z" />
    <glyph glyph-name="yacute" unicode="&#xfd;" horiz-adv-x="494" 
d="M237 589l72 157q4 8 12 8h30q4 0 6 -3t0 -6l-82 -157q-4 -7 -11 -7h-23q-3 0 -4.5 2.5t0.5 5.5zM426 500h36q8 0 5 -8l-205 -539q-27 -70 -57 -101.5t-82 -31.5h-6q-34 0 -66 14q-7 3 -7 11v26q0 3 2.5 5t5.5 1q35 -15 62 -15h4q31 0 52 20t40 70l19 48h-7q-8 0 -11 8
l-184 484q-2 8 6 8h35q8 0 12 -8l104 -274l62 -174h3l61 174l105 274q3 8 11 8z" />
    <glyph glyph-name="thorn" unicode="&#xfe;" horiz-adv-x="547" 
d="M288 513h6q91 0 140.5 -58.5t49.5 -165.5v-76q0 -109 -51.5 -167.5t-142.5 -58.5h-5q-40 0 -84 19.5t-77 57.5v-224q0 -7 -7 -7h-37q-6 0 -6 7v890q0 7 6 7h37q7 0 7 -7v-297q34 40 78.5 60t85.5 20zM434 211v78q0 88 -39 134.5t-112 46.5h-2q-84 0 -157 -84v-272
q73 -84 157 -84h2q73 0 112 46.5t39 134.5z" />
    <glyph glyph-name="ydieresis" unicode="&#xff;" horiz-adv-x="494" 
d="M151 664h48q7 0 7 -7v-56q0 -8 -7 -8h-48q-7 0 -7 8v56q0 7 7 7zM295 664h48q7 0 7 -7v-56q0 -8 -7 -8h-48q-7 0 -7 8v56q0 7 7 7zM426 500h36q8 0 5 -8l-205 -539q-27 -70 -57 -101.5t-82 -31.5h-6q-34 0 -66 14q-7 3 -7 11v26q0 3 2.5 5t5.5 1q35 -15 62 -15h4
q31 0 52 20t40 70l19 48h-7q-8 0 -11 8l-184 484q-2 8 6 8h35q8 0 12 -8l104 -274l62 -174h3l61 174l105 274q3 8 11 8z" />
    <glyph glyph-name="Amacron" unicode="&#x100;" horiz-adv-x="619" 
d="M187 834h245q7 0 7 -7v-27q0 -7 -7 -7h-245q-7 0 -7 7v27q0 7 7 7zM281 700h57q8 0 11 -9l233 -684q2 -7 -5 -7h-38q-8 0 -12 9l-74 216h-288l-74 -216q-3 -9 -11 -9h-38q-7 0 -5 7l232 684q4 9 12 9zM307 653l-93 -280l-35 -102h261l-36 102l-93 280h-4z" />
    <glyph glyph-name="amacron" unicode="&#x101;" horiz-adv-x="489" 
d="M122 634h245q7 0 7 -7v-27q0 -7 -7 -7l-245 1q-7 0 -7 6v27q0 7 7 7zM245 513h6q87 0 127.5 -45.5t40.5 -142.5v-318q0 -7 -7 -7h-33q-6 0 -7 6l-1 64q-35 -40 -80.5 -61.5t-88.5 -21.5h-6q-73 0 -116 39t-43 104v5q0 54 25.5 89t75.5 52.5t128 20.5l103 4v24
q0 75 -27.5 110t-98.5 35h-3q-72 0 -158 -40q-6 -3 -6 4v28q0 9 7 12q32 16 78 27.5t84 11.5zM369 264l-111 -4q-88 -3 -129.5 -33t-41.5 -88v-5q0 -32 15 -55.5t43 -36.5t65 -13h4q83 0 155 84v151z" />
    <glyph glyph-name="Abreve" unicode="&#x102;" horiz-adv-x="619" 
d="M432 864q4 2 7 0.5t3 -5.5v-24q0 -7 -6 -11q-8 -7 -20 -13t-28 -12.5t-37 -11t-42 -4.5q-39 0 -73 13t-53 28q-6 4 -6 11v24q0 4 3 5.5t7 -0.5q20 -12 33 -19t38 -14t51.5 -7t51.5 7t38 14t33 19zM281 700h57q8 0 11 -9l233 -684q2 -7 -5 -7h-38q-8 0 -12 9l-74 216h-288
l-74 -216q-3 -9 -11 -9h-38q-7 0 -5 7l232 684q4 9 12 9zM307 653l-93 -280l-35 -102h261l-36 102l-93 280h-4z" />
    <glyph glyph-name="abreve" unicode="&#x103;" horiz-adv-x="489" 
d="M367 664q4 2 7 0.5t3 -5.5v-24q0 -7 -6 -11q-19 -15 -53 -28t-73.5 -13t-73.5 13t-53 28q-6 4 -6 11v24q0 4 3 5.5t7 -0.5q20 -12 33 -19t38 -14t51.5 -7t51.5 7t38 14t33 19zM245 513h6q87 0 127.5 -45.5t40.5 -142.5v-318q0 -7 -7 -7h-33q-6 0 -7 6l-1 64
q-35 -40 -80.5 -61.5t-88.5 -21.5h-6q-73 0 -116 39t-43 104v5q0 80 56 118.5t173 43.5l103 4v24q0 75 -27.5 110.5t-98.5 35.5h-3q-72 0 -158 -41q-6 -3 -6 4v28q0 9 7 12q32 16 78 27.5t84 11.5zM369 264l-111 -4q-88 -3 -129.5 -33t-41.5 -88v-5q0 -48 33 -76.5t90 -28.5
h4q83 0 155 84v151z" />
    <glyph glyph-name="Aogonek" unicode="&#x104;" horiz-adv-x="619" 
d="M349 691l233 -684q2 -7 -5 -7q-34 -27 -50.5 -43t-31.5 -39.5t-15 -46.5q0 -17 7.5 -28.5t20 -17t29.5 -5.5q14 0 33 5q7 2 7 -6v-16q0 -9 -9 -12q-17 -6 -39 -6q-38 0 -62 21t-24 60q0 32 21 62t73 72q-7 1 -10 9l-74 216h-288l-74 -216q-3 -9 -11 -9h-38q-7 0 -5 7
l232 684q4 9 12 9h57q8 0 11 -9zM440 271l-36 102l-93 280h-4l-93 -280l-35 -102h261z" />
    <glyph glyph-name="aogonek" unicode="&#x105;" horiz-adv-x="489" 
d="M245 513h6q87 0 127.5 -45.5t40.5 -142.5v-318q0 -7 -7 -7q-33 -27 -50 -43t-32 -39.5t-15 -46.5q0 -25 16 -38t42 -13q14 0 32 5q7 2 7 -6v-16q0 -9 -9 -12q-16 -6 -39 -6q-37 0 -61.5 21t-24.5 60q0 16 5 31t16.5 31t29.5 33.5t46 39.5q-2 2 -3 5l-1 64
q-35 -40 -80.5 -61.5t-88.5 -21.5h-6q-73 0 -116 39t-43 104v5q0 80 56 118.5t173 43.5l103 4v24q0 75 -27.5 110.5t-98.5 35.5h-3q-72 0 -158 -41q-6 -3 -6 4v28q0 9 7 12q32 16 78 27.5t84 11.5zM369 264l-111 -4q-88 -3 -129.5 -33t-41.5 -88v-5q0 -48 33 -76.5t90 -28.5
h4q83 0 155 84v151z" />
    <glyph glyph-name="Cacute" unicode="&#x106;" horiz-adv-x="589" 
d="M334 789l72 157q3 8 12 8h30q4 0 6 -3t0 -6l-82 -157q-4 -7 -11 -7h-23q-3 0 -4.5 2.5t0.5 5.5zM358 713h11q91 0 167 -43q7 -4 7 -12v-32q0 -3 -2.5 -4t-4.5 0q-85 45 -165 45h-7q-48 0 -90.5 -17t-75.5 -49.5t-52.5 -84t-19.5 -115.5v-102q0 -127 68.5 -196.5
t169.5 -69.5h7q81 0 165 45q2 1 4.5 0t2.5 -4v-32q0 -8 -7 -12q-30 -17 -75.5 -30t-91.5 -13h-11q-57 0 -107.5 20t-90 57.5t-63 97t-23.5 133.5v110q0 60 15.5 110.5t42 86.5t62.5 61t77.5 37.5t86.5 12.5z" />
    <glyph glyph-name="cacute" unicode="&#x107;" horiz-adv-x="497" 
d="M245 589l72 157q4 8 12 8h31q3 0 5 -3t0 -6l-81 -157q-4 -7 -12 -7h-23q-3 0 -4.5 2.5t0.5 5.5zM281 513h11q72 0 137 -39q7 -4 7 -12v-29q0 -7 -7 -4q-73 41 -133 41h-9q-75 0 -124.5 -49t-49.5 -136v-70q0 -87 49.5 -136t124.5 -49h9q60 0 133 41q7 3 7 -4v-29
q0 -8 -7 -12q-65 -39 -137 -39h-11q-60 0 -109 25t-79 78t-30 125v70q0 108 62.5 168t155.5 60z" />
    <glyph glyph-name="Cdotaccent" unicode="&#x10a;" horiz-adv-x="589" 
d="M337 864h52q7 0 7 -7v-56q0 -8 -7 -8h-52q-7 0 -7 8v56q0 7 7 7zM358 713h11q91 0 167 -43q7 -4 7 -12v-32q0 -3 -2.5 -4t-4.5 0q-85 45 -165 45h-7q-48 0 -90.5 -17t-75.5 -49.5t-52.5 -84t-19.5 -115.5v-102q0 -51 12.5 -95t35 -75t52.5 -53t64.5 -32.5t73.5 -10.5h7
q81 0 165 45q2 1 4.5 0t2.5 -4v-32q0 -8 -7 -12q-31 -17 -76 -30t-91 -13h-11q-57 0 -107.5 20t-90 57.5t-63 97t-23.5 133.5v110q0 74 23.5 133.5t63 97t90 57.5t107.5 20z" />
    <glyph glyph-name="cdotaccent" unicode="&#x10b;" horiz-adv-x="497" 
d="M256 664h52q7 0 7 -7v-56q0 -8 -7 -8h-52q-7 0 -7 8v56q0 7 7 7zM281 513h11q72 0 137 -39q7 -4 7 -12v-29q0 -7 -7 -4q-73 41 -133 41h-9q-75 0 -124.5 -49t-49.5 -136v-70q0 -87 49.5 -136t124.5 -49h9q60 0 133 41q7 3 7 -4v-29q0 -8 -7 -12q-65 -39 -137 -39h-11
q-60 0 -109 25t-79 78t-30 125v70q0 108 62.5 168t155.5 60z" />
    <glyph glyph-name="Ccaron" unicode="&#x10c;" horiz-adv-x="589" 
d="M441 954h28q3 0 5 -2.5t0 -6.5l-90 -157q-4 -7 -11 -7h-21q-7 0 -11 7l-90 157q-2 4 0 6.5t6 2.5h27q9 0 13 -8l66 -129l65 129q4 8 13 8zM358 713h11q91 0 167 -43q7 -4 7 -12v-32q0 -3 -2.5 -4t-4.5 0q-85 45 -165 45h-7q-48 0 -90.5 -17t-75.5 -49.5t-52.5 -84
t-19.5 -115.5v-102q0 -51 12.5 -95t35 -75t52.5 -53t64.5 -32.5t73.5 -10.5h7q81 0 165 45q2 1 4.5 0t2.5 -4v-32q0 -8 -7 -12q-30 -17 -75.5 -30t-91.5 -13h-11q-57 0 -107.5 20t-90 57.5t-63 97t-23.5 133.5v110q0 74 23.5 133.5t63 97t90 57.5t107.5 20z" />
    <glyph glyph-name="ccaron" unicode="&#x10d;" horiz-adv-x="497" 
d="M349 754h28q3 0 5 -2.5t0 -6.5l-90 -157q-4 -7 -11 -7h-21q-7 0 -11 7l-90 157q-2 4 0 6.5t6 2.5h27q9 0 13 -8l66 -129l65 129q4 8 13 8zM281 513h11q72 0 137 -39q7 -4 7 -12v-29q0 -7 -7 -4q-73 41 -133 41h-9q-75 0 -124.5 -49t-49.5 -136v-70q0 -87 49.5 -136
t124.5 -49h9q60 0 133 41q7 3 7 -4v-29q0 -8 -7 -12q-65 -39 -137 -39h-11q-93 0 -155.5 60t-62.5 168v70q0 108 62.5 168t155.5 60z" />
    <glyph glyph-name="Dcaron" unicode="&#x10e;" horiz-adv-x="663" 
d="M367 954h27q4 0 6 -2.5t0 -6.5l-90 -157q-4 -7 -12 -7h-20q-7 0 -11 7l-91 157q-2 4 0 6.5t6 2.5h28q8 0 12 -8l66 -129l66 129q4 8 13 8zM98 700h227q57 0 104 -18.5t83 -54.5t56.5 -93.5t20.5 -131.5v-104q0 -146 -73.5 -222t-190.5 -76h-227q-6 0 -6 7v686q0 7 6 7z
M537 303v94q0 128 -58.5 192.5t-157.5 64.5h-178v-608h178q99 0 157.5 64.5t58.5 192.5z" />
    <glyph glyph-name="dcaron" unicode="&#x10f;" horiz-adv-x="630" 
d="M542 737h54q7 0 7 -7v-44q0 -8 -1 -13l-36 -110q-2 -6 -8 -6h-26q-9 0 -5 10l35 105h-20q-7 0 -7 7v51q0 7 7 7zM430 737h36q7 0 7 -7v-723q0 -7 -7 -7h-33q-6 0 -7 6l-1 62q-23 -26 -52.5 -45t-58 -27.5t-56.5 -8.5h-5q-91 0 -140.5 58.5t-49.5 165.5v76q0 109 51 167.5
t142 58.5h6q26 0 53.5 -8t56 -25.5t51.5 -43.5v294q0 7 7 7zM266 470h-2q-74 0 -112.5 -46.5t-38.5 -134.5v-78q0 -88 38.5 -134.5t112.5 -46.5h2q84 0 157 84v272q-73 84 -157 84z" />
    <glyph glyph-name="Dcroat" unicode="&#x110;" horiz-adv-x="663" 
d="M98 700h227q117 0 190.5 -76t73.5 -222v-104q0 -146 -73.5 -222t-190.5 -76h-227q-6 0 -6 7v295h-49q-6 0 -6 7v29q0 6 6 6h49v349q0 7 6 7zM537 303v94q0 128 -58.5 192.5t-157.5 64.5h-178v-310h199q7 0 7 -6v-29q0 -7 -7 -7h-199v-256h178q99 0 157.5 64.5t58.5 192.5
z" />
    <glyph glyph-name="dcroat" unicode="&#x111;" horiz-adv-x="545" 
d="M473 657h59q7 0 7 -7v-27q0 -6 -7 -6h-59v-610q0 -7 -7 -7h-33q-6 0 -7 6l-1 62q-34 -39 -79 -60t-88 -21h-5q-45 0 -81 15t-60 43.5t-36.5 70.5t-12.5 95v76q0 109 51 167.5t142 58.5h6q19 0 39.5 -4.5t41.5 -13.5t42 -24.5t38 -34.5v181h-138q-7 0 -7 6v27q0 7 7 7h138
v73q0 7 7 7h36q7 0 7 -7v-73zM423 114v272q-73 84 -157 84h-2q-74 0 -112.5 -46.5t-38.5 -134.5v-78q0 -88 38.5 -134.5t112.5 -46.5h2q84 0 157 84z" />
    <glyph glyph-name="Emacron" unicode="&#x112;" horiz-adv-x="559" 
d="M178 834h245q7 0 7 -7v-27q0 -7 -7 -7h-245q-7 0 -7 7v27q0 7 7 7zM143 384h342q7 0 7 -7v-33q0 -6 -7 -6h-342v-292h364q6 0 6 -6v-33q0 -7 -6 -7h-409q-6 0 -6 7v686q0 7 6 7h409q6 0 6 -7v-33q0 -6 -6 -6h-364v-270z" />
    <glyph glyph-name="emacron" unicode="&#x113;" horiz-adv-x="530" 
d="M142 634h246q7 0 7 -7v-27q0 -7 -7 -7h-246q-6 0 -6 7v27q0 7 6 7zM268 513h11q91 0 140.5 -57.5t49.5 -167.5v-32q0 -8 -8 -8h-348v-53q0 -77 49 -121.5t126 -44.5h4q70 0 154 42q6 3 6 -4v-29q0 -8 -7 -12q-29 -16 -74 -27.5t-83 -11.5h-7q-95 0 -156.5 56.5
t-61.5 155.5v77q0 109 57.5 173t147.5 64zM278 472h-8q-70 0 -113 -50.5t-44 -137.5h309q0 188 -144 188z" />
    <glyph glyph-name="Edotaccent" unicode="&#x116;" horiz-adv-x="559" 
d="M277 864h52q7 0 7 -7v-56q0 -8 -7 -8h-52q-7 0 -7 8v56q0 7 7 7zM143 384h342q7 0 7 -7v-33q0 -6 -7 -6h-342v-292h364q6 0 6 -6v-33q0 -7 -6 -7h-409q-6 0 -6 7v686q0 7 6 7h409q6 0 6 -7v-33q0 -6 -6 -6h-364v-270z" />
    <glyph glyph-name="edotaccent" unicode="&#x117;" horiz-adv-x="530" 
d="M239 664h52q7 0 7 -7v-56q0 -8 -7 -8h-52q-7 0 -7 8v56q0 7 7 7zM268 513h11q91 0 140.5 -57.5t49.5 -167.5v-32q0 -8 -8 -8h-348v-53q0 -77 49 -121.5t126 -44.5h4q70 0 154 42q6 3 6 -4v-29q0 -8 -7 -12q-29 -16 -74 -27.5t-83 -11.5h-7q-95 0 -156.5 56.5t-61.5 155.5
v77q0 109 57.5 173t147.5 64zM278 472h-8q-70 0 -113 -50.5t-44 -137.5h309q0 188 -144 188z" />
    <glyph glyph-name="Eogonek" unicode="&#x118;" horiz-adv-x="559" 
d="M143 654v-270h342q7 0 7 -7v-33q0 -6 -7 -6h-342v-292h364q6 0 6 -6v-33q0 -7 -6 -7h-1q-34 -27 -50.5 -43t-31.5 -39.5t-15 -46.5q0 -13 4 -22.5t12 -16t18.5 -9.5t22.5 -3q14 0 33 5q7 2 7 -6v-16q0 -9 -9 -12q-17 -6 -39 -6q-38 0 -62 21t-24 60q0 33 21.5 63t72.5 71
h-368q-6 0 -6 7v686q0 7 6 7h409q6 0 6 -7v-33q0 -6 -6 -6h-364z" />
    <glyph glyph-name="eogonek" unicode="&#x119;" horiz-adv-x="530" 
d="M268 513h11q91 0 140.5 -57.5t49.5 -167.5v-32q0 -8 -8 -8h-348v-53q0 -77 49 -121.5t126 -44.5h4q70 0 154 42q6 3 6 -4v-29q0 -8 -7 -12q-33 -18 -82 -29q-48 -39 -71 -66.5t-23 -59.5q0 -25 16 -38t42 -13q14 0 32 5q8 2 8 -6v-16q0 -9 -9 -12q-17 -6 -39 -6
q-38 0 -62 21t-24 60q0 31 18 59t61 63q-12 -1 -24 -1h-7q-95 0 -156.5 56.5t-61.5 155.5v77q0 109 57.5 173t147.5 64zM113 284h309q0 188 -144 188h-8q-70 0 -113 -50.5t-44 -137.5z" />
    <glyph glyph-name="Ecaron" unicode="&#x11a;" horiz-adv-x="559" 
d="M376 954h27q4 0 6 -2.5t0 -6.5l-90 -157q-4 -7 -11 -7h-21q-7 0 -11 7l-90 157q-2 4 -0.5 6.5t5.5 2.5h28q9 0 12 -8l66 -129l66 129q4 8 13 8zM143 384h342q7 0 7 -7v-33q0 -6 -7 -6h-342v-292h364q6 0 6 -6v-33q0 -7 -6 -7h-409q-6 0 -6 7v686q0 7 6 7h409q6 0 6 -7
v-33q0 -6 -6 -6h-364v-270z" />
    <glyph glyph-name="ecaron" unicode="&#x11b;" horiz-adv-x="530" 
d="M343 754h28q4 0 6 -2.5t0 -6.5l-90 -157q-4 -7 -12 -7h-20q-8 0 -12 7l-90 157q-2 4 0 6.5t6 2.5h28q8 0 12 -8l66 -129l66 129q4 8 12 8zM268 513h11q91 0 140.5 -57.5t49.5 -167.5v-32q0 -8 -8 -8h-348v-53q0 -77 49 -121.5t126 -44.5h4q70 0 154 42q6 3 6 -4v-29
q0 -8 -6 -12q-30 -16 -75 -27.5t-83 -11.5h-7q-95 0 -156.5 56.5t-61.5 155.5v77q0 109 57.5 173t147.5 64zM278 472h-8q-70 0 -113 -50.5t-44 -137.5h309q0 188 -144 188z" />
    <glyph glyph-name="Gbreve" unicode="&#x11e;" horiz-adv-x="649" 
d="M497 864q3 2 6 0.5t3 -5.5v-24q0 -7 -5 -11q-12 -9 -28.5 -17.5t-43.5 -16t-55 -7.5q-40 0 -74 13t-52 28q-6 4 -6 11v24q0 4 3 5.5t7 -0.5q19 -12 32 -19t38.5 -14t51.5 -7t51.5 7t38.5 14t33 19zM370 713h11q47 0 92 -13t75 -30q8 -4 8 -13v-31q0 -3 -2.5 -4t-4.5 0
q-88 45 -165 45h-8q-49 0 -93.5 -17t-79.5 -49.5t-56 -84t-21 -115.5v-102q0 -85 35 -146.5t89.5 -90.5t121.5 -29h7q67 0 132 32v271q0 7 7 7h37q6 0 6 -7v-288q0 -9 -7 -13q-31 -19 -78.5 -33.5t-95.5 -14.5h-11q-58 0 -110.5 20t-94 57.5t-66 97t-24.5 133.5v110
q0 60 16.5 110.5t44.5 86.5t65.5 61t81 37.5t88.5 12.5z" />
    <glyph glyph-name="gbreve" unicode="&#x11f;" horiz-adv-x="540" 
d="M393 664q3 2 6 0.5t3 -5.5v-24q0 -7 -6 -11q-11 -9 -27.5 -17.5t-43.5 -16t-55 -7.5t-55 7.5t-43.5 16t-27.5 17.5q-6 4 -6 11v24q0 4 3 5.5t7 -0.5q19 -12 32 -19t38.5 -14t51.5 -7t51.5 7t38.5 14t33 19zM462 457q6 -5 6 -12v-432q0 -95 -51 -144t-141 -49h-6
q-80 0 -158 39q-7 3 -7 11v29q0 7 7 4q81 -41 152 -41h4q150 0 150 150v60q-35 -39 -79 -59t-85 -20h-6q-90 0 -137.5 58t-47.5 165v71q0 109 53 167.5t145 58.5h6q24 0 53 -5t55 -13.5t48.5 -18t38.5 -19.5zM259 36h2q84 0 158 83v306q-79 45 -152 45h-4
q-71 0 -110.5 -46.5t-39.5 -133.5v-74q0 -180 146 -180z" />
    <glyph glyph-name="Gdotaccent" unicode="&#x120;" horiz-adv-x="649" 
d="M336 864h51q8 0 8 -7v-56q0 -8 -8 -8h-51q-8 0 -8 8v56q0 7 8 7zM370 713h11q24 0 49.5 -4t47 -10.5t39 -13.5t31.5 -15q8 -4 8 -13v-31q0 -3 -2.5 -4t-4.5 0q-88 45 -165 45h-8q-49 0 -93.5 -17t-79.5 -49.5t-56 -84t-21 -115.5v-102q0 -85 35 -146.5t89.5 -90.5
t121.5 -29h7q67 0 132 32v271q0 7 7 7h37q6 0 6 -7v-288q0 -9 -7 -13q-31 -19 -78.5 -33.5t-95.5 -14.5h-11q-58 0 -110.5 20t-94 57.5t-66 97t-24.5 133.5v110q0 60 16.5 110.5t44.5 86.5t65.5 61t81 37.5t88.5 12.5z" />
    <glyph glyph-name="gdotaccent" unicode="&#x121;" horiz-adv-x="540" 
d="M244 652h52q7 0 7 -8v-56q0 -7 -7 -7h-52q-7 0 -7 7v56q0 8 7 8zM462 457q6 -5 6 -12v-432q0 -95 -51 -144t-141 -49h-6q-80 0 -158 39q-7 3 -7 11v29q0 7 7 4q81 -41 152 -41h4q150 0 150 150v60q-35 -39 -79 -59t-85 -20h-6q-90 0 -137.5 58t-47.5 165v71
q0 109 53 167.5t145 58.5h6q47 0 103.5 -17.5t91.5 -38.5zM259 36h2q84 0 158 83v306q-79 46 -152 46h-4q-71 0 -110.5 -47t-39.5 -134v-74q0 -180 146 -180z" />
    <glyph glyph-name="Gcommaaccent" unicode="&#x122;" horiz-adv-x="649" 
d="M370 713h11q24 0 49.5 -4t47 -10.5t39 -13.5t31.5 -15q8 -4 8 -13v-31q0 -3 -2.5 -4t-4.5 0q-88 45 -165 45h-8q-49 0 -93.5 -17t-79.5 -49.5t-56 -84t-21 -115.5v-102q0 -85 35 -146.5t89.5 -90.5t121.5 -29h7q67 0 132 32v271q0 7 7 7h37q6 0 6 -7v-288q0 -9 -7 -13
q-31 -19 -78.5 -33.5t-95.5 -14.5h-11q-58 0 -110.5 20t-94 57.5t-66 97t-24.5 133.5v110q0 60 16.5 110.5t44.5 86.5t65.5 61t81 37.5t88.5 12.5zM345 -50h53q8 0 8 -7v-44q0 -8 -2 -13l-36 -110q-2 -6 -7 -6h-26q-9 0 -6 10l35 105h-19q-8 0 -8 7v51q0 7 8 7z" />
    <glyph glyph-name="gcommaaccent" unicode="&#x123;" horiz-adv-x="540" 
d="M292 581h-54q-8 0 -8 7v44q0 8 2 13l36 110q2 6 8 6h25q9 0 6 -10l-35 -105h20q7 0 7 -7v-51q0 -7 -7 -7zM462 457q6 -5 6 -12v-432q0 -95 -51 -144t-141 -49h-6q-80 0 -158 39q-7 3 -7 11v29q0 7 7 4q81 -41 152 -41h4q151 0 151 150v60q-36 -39 -80 -59t-85 -20h-5
q-91 0 -138.5 58t-47.5 165v71q0 109 53 167.5t145 58.5h6q47 0 103.5 -17.5t91.5 -38.5zM259 36h2q84 0 158 83v306q-79 45 -152 45h-4q-71 0 -110.5 -46.5t-39.5 -133.5v-74q0 -180 146 -180z" />
    <glyph glyph-name="Hbar" unicode="&#x126;" horiz-adv-x="692" 
d="M595 543h54q6 0 6 -7v-28q0 -7 -6 -7h-54v-494q0 -7 -7 -7h-38q-6 0 -6 7v331h-396v-331q0 -7 -6 -7h-38q-7 0 -7 7v494h-54q-6 0 -6 7v28q0 7 6 7h54v150q0 7 7 7h38q6 0 6 -7v-150h396v150q0 7 6 7h38q7 0 7 -7v-150zM544 501h-396v-117h396v117z" />
    <glyph glyph-name="hbar" unicode="&#x127;" horiz-adv-x="542" 
d="M298 513h5q169 0 169 -183v-323q0 -7 -7 -7h-36q-7 0 -7 7v318q0 71 -30.5 108t-100.5 37h-3q-79 0 -164 -76v-387q0 -7 -7 -7h-37q-6 0 -6 7v610h-60q-7 0 -7 7v26q0 7 7 7h60v73q0 7 6 7h37q7 0 7 -7v-73h137q7 0 7 -7v-27q0 -6 -7 -6h-137v-180q39 34 86 55t88 21z
" />
    <glyph glyph-name="Imacron" unicode="&#x12a;" horiz-adv-x="235" 
d="M-5 834h246q6 0 6 -7v-27q0 -7 -6 -7h-246q-7 0 -7 7v27q0 7 7 7zM98 700h38q7 0 7 -7v-686q0 -7 -7 -7h-38q-6 0 -6 7v686q0 7 6 7z" />
    <glyph glyph-name="imacron" unicode="&#x12b;" horiz-adv-x="195" 
d="M-29 634h246q7 0 7 -7v-27q0 -7 -7 -7h-246q-6 0 -6 7v27q0 7 6 7zM80 500h37q7 0 7 -7v-486q0 -7 -7 -7h-37q-6 0 -6 7v486q0 7 6 7z" />
    <glyph glyph-name="Iogonek" unicode="&#x12e;" horiz-adv-x="235" 
d="M98 700h38q7 0 7 -7v-686q0 -7 -7 -7q-33 -27 -50 -43t-32 -39.5t-15 -46.5q0 -25 16 -38t42 -13q14 0 32 5q7 2 7 -6v-16q0 -9 -9 -12q-16 -6 -39 -6q-37 0 -61.5 21t-24.5 60q0 32 21.5 62t73.5 72q-5 1 -5 7v686q0 7 6 7z" />
    <glyph glyph-name="iogonek" unicode="&#x12f;" horiz-adv-x="195" 
d="M73 664h51q8 0 8 -7v-56q0 -8 -8 -8h-51q-8 0 -8 8v56q0 7 8 7zM80 500h37q7 0 7 -7v-486q0 -7 -7 -7q-33 -27 -50 -43t-32 -39.5t-15 -46.5q0 -25 15.5 -38t42.5 -13q13 0 32 5q7 2 7 -6v-16q0 -9 -9 -12q-16 -6 -39 -6q-38 0 -62 21t-24 60q0 32 21 62t74 72q-4 2 -4 7
v486q0 7 6 7z" />
    <glyph glyph-name="Idotaccent" unicode="&#x130;" horiz-adv-x="235" 
d="M92 864h52q7 0 7 -7v-56q0 -8 -7 -8h-52q-7 0 -7 8v56q0 7 7 7zM98 700h38q7 0 7 -7v-686q0 -7 -7 -7h-38q-6 0 -6 7v686q0 7 6 7z" />
    <glyph glyph-name="dotlessi" unicode="&#x131;" horiz-adv-x="195" 
d="M80 500h37q7 0 7 -7v-486q0 -7 -7 -7h-37q-6 0 -6 7v486q0 7 6 7z" />
    <glyph glyph-name="IJ" unicode="&#x132;" horiz-adv-x="625" 
d="M98 700h38q7 0 7 -7v-686q0 -7 -7 -7h-38q-6 0 -6 7v686q0 7 6 7zM487 700h39q7 0 7 -7v-527q0 -92 -40 -135.5t-108 -43.5h-5q-56 0 -103 29q-5 4 -5 10v34q0 3 2 4.5t5 -0.5q49 -31 96 -31h3q103 0 103 137v523q0 7 6 7z" />
    <glyph glyph-name="ij" unicode="&#x133;" horiz-adv-x="412" 
d="M81 662h47q7 0 7 -7v-54q0 -8 -7 -8h-47q-7 0 -7 8v54q0 7 7 7zM287 662h46q8 0 8 -7v-54q0 -8 -8 -8h-46q-8 0 -8 8v54q0 7 8 7zM292 500h36q7 0 7 -7v-570q0 -35 -14 -59t-34.5 -34t-46.5 -10h-7q-33 0 -62 13q-7 3 -7 11v24q0 9 8 6q28 -12 54 -12h4q23 0 39 14t16 46
v571q0 7 7 7zM86 500h37q6 0 6 -7v-486q0 -7 -6 -7h-37q-6 0 -6 7v486q0 7 6 7z" />
    <glyph glyph-name="Kcommaaccent" unicode="&#x136;" horiz-adv-x="611" 
d="M315 354l258 -344q2 -3 0.5 -6.5t-5.5 -3.5h-43q-6 0 -9 4l-247 326h-126v-323q0 -7 -7 -7h-38q-6 0 -6 7v686q0 7 6 7h38q7 0 7 -7v-317h126l229 320q3 4 9 4h42q4 0 5 -3.5t-1 -6.5zM283 -50h53q8 0 8 -7v-44q0 -8 -2 -13l-36 -110q-2 -6 -7 -6h-26q-9 0 -6 10l35 105
h-19q-8 0 -8 7v51q0 7 8 7z" />
    <glyph glyph-name="kcommaaccent" unicode="&#x137;" horiz-adv-x="475" 
d="M267 259l179 -248q3 -4 1.5 -7.5t-6.5 -3.5h-40q-7 0 -10 5l-169 232h-98v-230q0 -7 -7 -7h-37q-6 0 -6 7v723q0 7 6 7h37q7 0 7 -7v-451h99l149 216q4 5 10 5h38q4 0 6 -3.5t-1 -7.5zM215 -50h54q7 0 7 -7v-44q0 -8 -2 -13l-35 -110q-3 -6 -8 -6h-26q-9 0 -5 10l35 105
h-20q-8 0 -8 7v51q0 7 8 7z" />
    <glyph glyph-name="Lacute" unicode="&#x139;" horiz-adv-x="528" 
d="M100 789l72 157q3 8 12 8h30q4 0 6 -3t0 -6l-82 -157q-4 -7 -11 -7h-23q-3 0 -4.5 2.5t0.5 5.5zM143 46h342q7 0 7 -6v-33q0 -7 -7 -7h-387q-6 0 -6 7v686q0 7 6 7h38q7 0 7 -7v-647z" />
    <glyph glyph-name="lacute" unicode="&#x13a;" horiz-adv-x="193" 
d="M83 826l72 157q4 8 13 8h30q4 0 5.5 -3t0.5 -6l-82 -157q-4 -7 -11 -7h-23q-4 0 -5 2.5t0 5.5zM80 737h37q7 0 7 -7v-723q0 -7 -7 -7h-37q-6 0 -6 7v723q0 7 6 7z" />
    <glyph glyph-name="Lcommaaccent" unicode="&#x13b;" horiz-adv-x="528" 
d="M143 46h342q7 0 7 -6v-33q0 -7 -7 -7h-387q-6 0 -6 7v686q0 7 6 7h38q7 0 7 -7v-647zM242 -50h53q8 0 8 -7v-44q0 -8 -2 -13l-36 -110q-2 -6 -7 -6h-26q-9 0 -6 10l35 105h-19q-8 0 -8 7v51q0 7 8 7z" />
    <glyph glyph-name="lcommaaccent" unicode="&#x13c;" horiz-adv-x="193" 
d="M80 737h37q7 0 7 -7v-723q0 -7 -7 -7h-37q-6 0 -6 7v723q0 7 6 7zM75 -50h53q8 0 8 -7v-44q0 -8 -2 -13l-36 -110q-2 -6 -8 -6h-25q-9 0 -6 10l35 105h-19q-8 0 -8 7v51q0 7 8 7z" />
    <glyph glyph-name="Lcaron" unicode="&#x13d;" horiz-adv-x="528" 
d="M378 700h54q7 0 7 -7v-44q0 -8 -2 -13l-35 -110q-3 -6 -8 -6h-26q-9 0 -5 10l35 105h-20q-7 0 -7 7v51q0 7 7 7zM143 46h342q7 0 7 -6v-33q0 -7 -7 -7h-387q-6 0 -6 7v686q0 7 6 7h38q7 0 7 -7v-647z" />
    <glyph glyph-name="lcaron" unicode="&#x13e;" horiz-adv-x="281" 
d="M193 737h54q7 0 7 -7v-44q0 -8 -2 -13l-35 -110q-3 -6 -8 -6h-26q-9 0 -5 10l35 105h-20q-7 0 -7 7v51q0 7 7 7zM80 737h37q7 0 7 -7v-723q0 -7 -7 -7h-37q-6 0 -6 7v723q0 7 6 7z" />
    <glyph glyph-name="Ldot" unicode="&#x13f;" horiz-adv-x="528" 
d="M143 46h342q7 0 7 -6v-33q0 -7 -7 -7h-387q-6 0 -6 7v686q0 7 6 7h38q7 0 7 -7v-647zM380 326h52q7 0 7 -8v-56q0 -7 -7 -7h-52q-7 0 -7 7v56q0 8 7 8z" />
    <glyph glyph-name="ldot" unicode="&#x140;" horiz-adv-x="278" 
d="M80 737h37q7 0 7 -7v-723q0 -7 -7 -7h-37q-6 0 -6 7v723q0 7 6 7zM192 326h52q7 0 7 -8v-56q0 -7 -7 -7h-52q-7 0 -7 7v56q0 8 7 8z" />
    <glyph glyph-name="Lslash" unicode="&#x141;" horiz-adv-x="541" 
d="M156 46h341q7 0 7 -6v-33q0 -7 -7 -7h-386q-7 0 -7 7v276l-52 -36q-5 -4 -9 1l-17 24q-4 5 2 10l76 53v358q0 7 7 7h38q7 0 7 -7v-322l126 88q4 3 9 -2l17 -24q4 -5 -2 -9l-150 -105v-273z" />
    <glyph glyph-name="lslash" unicode="&#x142;" horiz-adv-x="291" 
d="M246 491l17 -24q4 -5 -2 -10l-92 -64v-386q0 -7 -7 -7h-36q-7 0 -7 7v351l-65 -45q-5 -3 -9 2l-17 24q-4 5 2 9l89 62v320q0 7 7 7h36q7 0 7 -7v-285l68 47q5 4 9 -1z" />
    <glyph glyph-name="Nacute" unicode="&#x143;" horiz-adv-x="681" 
d="M322 789l72 157q4 8 12 8h31q3 0 5 -3t0 -6l-81 -157q-4 -7 -12 -7h-23q-3 0 -4.5 2.5t0.5 5.5zM549 700h38q7 0 7 -7v-686q0 -7 -7 -7h-46q-7 0 -10 5l-392 616h-3l2 -254v-360q0 -7 -6 -7h-38q-7 0 -7 7v686q0 7 7 7h46q7 0 10 -5l392 -616h3l-2 309v305q0 7 6 7z" />
    <glyph glyph-name="nacute" unicode="&#x144;" horiz-adv-x="537" 
d="M271 589l72 157q4 8 12 8h30q4 0 6 -3t0 -6l-82 -157q-4 -7 -11 -7h-23q-3 0 -4.5 2.5t0.5 5.5zM295 513h6q166 0 166 -183v-323q0 -7 -6 -7h-37q-6 0 -6 7v318q0 47 -12 78.5t-41.5 49t-76.5 17.5h-2q-79 0 -164 -76v-387q0 -7 -7 -7h-37q-6 0 -6 7v486q0 7 6 7h34
q6 0 6 -6l2 -58q40 35 87 56t88 21z" />
    <glyph glyph-name="Ncommaaccent" unicode="&#x145;" horiz-adv-x="681" 
d="M549 700h38q7 0 7 -7v-686q0 -7 -7 -7h-46q-7 0 -10 5l-392 616h-3l2 -254v-360q0 -7 -6 -7h-38q-7 0 -7 7v686q0 7 7 7h46q7 0 10 -5l392 -616h3l-2 309v305q0 7 6 7zM318 -50h54q7 0 7 -7v-44q0 -8 -2 -13l-35 -110q-3 -6 -8 -6h-26q-9 0 -5 10l35 105h-20q-8 0 -8 7
v51q0 7 8 7z" />
    <glyph glyph-name="ncommaaccent" unicode="&#x146;" horiz-adv-x="537" 
d="M295 513h6q166 0 166 -183v-323q0 -7 -6 -7h-37q-6 0 -6 7v318q0 72 -30 108.5t-100 36.5h-2q-80 0 -164 -76v-387q0 -7 -7 -7h-37q-6 0 -6 7v486q0 7 6 7h34q6 0 6 -6l2 -58q40 35 87 56t88 21zM246 -50h54q8 0 8 -7v-44q0 -8 -2 -13l-36 -110q-2 -6 -8 -6h-25
q-9 0 -6 10l35 105h-20q-7 0 -7 7v51q0 7 7 7z" />
    <glyph glyph-name="Ncaron" unicode="&#x147;" horiz-adv-x="681" 
d="M419 954h27q4 0 6 -2.5t0 -6.5l-90 -157q-4 -7 -11 -7h-21q-7 0 -11 7l-90 157q-2 4 0 6.5t6 2.5h27q9 0 13 -8l66 -129l65 129q4 8 13 8zM549 700h38q7 0 7 -7v-686q0 -7 -7 -7h-46q-7 0 -10 5l-392 616h-3l3 -254v-360q0 -7 -7 -7h-38q-7 0 -7 7v686q0 7 7 7h46
q7 0 10 -5l392 -616h3l-2 309v305q0 7 6 7z" />
    <glyph glyph-name="ncaron" unicode="&#x148;" horiz-adv-x="537" 
d="M347 754h28q4 0 6 -2.5t0 -6.5l-90 -157q-4 -7 -12 -7h-20q-8 0 -12 7l-90 157q-2 4 0 6.5t6 2.5h28q8 0 12 -8l66 -129l66 129q4 8 12 8zM295 513h6q166 0 166 -183v-323q0 -7 -6 -7h-37q-6 0 -6 7v318q0 47 -12 78.5t-41.5 49t-76.5 17.5h-2q-80 0 -164 -76v-387
q0 -7 -7 -7h-37q-6 0 -6 7v486q0 7 6 7h34q6 0 6 -6l2 -58q40 35 87 56t88 21z" />
    <glyph glyph-name="Eng" unicode="&#x14a;" horiz-adv-x="681" 
d="M549 700h38q7 0 7 -7v-694q0 -179 -144 -179h-5q-56 0 -102 29q-6 4 -6 10v33q0 3 2.5 4.5t5.5 0.5q48 -32 95 -32h4q95 0 95 127l-400 629h-3l2 -254v-360q0 -7 -6 -7h-38q-7 0 -7 7v686q0 7 7 7h46q7 0 10 -5l392 -616h3l-2 309v305q0 7 6 7z" />
    <glyph glyph-name="eng" unicode="&#x14b;" horiz-adv-x="537" 
d="M295 513h6q166 0 166 -183v-407q0 -35 -14 -59t-34.5 -34t-46.5 -10h-7q-32 0 -61 13q-7 3 -8 11v24q1 9 9 6q27 -12 53 -12h4q23 0 39.5 14t16.5 46v403q0 72 -30 108.5t-100 36.5h-2q-80 0 -164 -76v-387q0 -7 -7 -7h-37q-6 0 -6 7v486q0 7 6 7h34q6 0 6 -6l2 -58
q40 35 87 56t88 21z" />
    <glyph glyph-name="Omacron" unicode="&#x14c;" horiz-adv-x="690" 
d="M223 834h246q6 0 6 -7v-27q0 -7 -6 -7h-246q-7 0 -7 7v27q0 7 7 7zM338 713h15q55 0 102.5 -18.5t83.5 -54.5t56.5 -93.5t20.5 -130.5v-132q0 -145 -74 -221t-189 -76h-15q-116 0 -190 76t-74 221v132q0 42 7 79.5t20 67.5t31 54.5t40.5 42t49 29.5t55.5 18t61 6z
M351 667h-12q-96 0 -154.5 -64t-58.5 -189v-128q0 -63 16 -112t45 -79.5t67.5 -46t84.5 -15.5h12q96 0 154.5 64t58.5 189v128q0 51 -10.5 92.5t-29.5 71t-45.5 50t-58.5 30t-69 9.5z" />
    <glyph glyph-name="omacron" unicode="&#x14d;" horiz-adv-x="559" 
d="M157 634h246q7 0 7 -7v-27q0 -7 -7 -7l-246 1q-6 0 -6 6v27q0 7 6 7zM274 513h11q93 0 152 -59.5t59 -166.5v-74q0 -107 -59 -166.5t-152 -59.5h-11q-93 0 -152 59.5t-59 166.5v74q0 107 59 166.5t152 59.5zM284 470h-9q-72 0 -117 -47.5t-45 -133.5v-78q0 -86 45 -133.5
t117 -47.5h9q72 0 117 47.5t45 133.5v78q0 86 -45 133.5t-117 47.5z" />
    <glyph glyph-name="Ohungarumlaut" unicode="&#x150;" horiz-adv-x="690" 
d="M272 789l72 157q4 8 12 8h28q4 0 5.5 -3t0.5 -6l-82 -157q-4 -7 -11 -7h-21q-3 0 -4.5 2.5t0.5 5.5zM389 789l72 157q4 8 13 8h27q4 0 6 -3t0 -6l-82 -157q-3 -7 -11 -7h-20q-4 0 -5 2.5t0 5.5zM338 713h15q115 0 189 -76t74 -221v-132q0 -145 -74 -221t-189 -76h-15
q-116 0 -190 76t-74 221v132q0 145 74 221t190 76zM351 667h-12q-96 0 -154.5 -64t-58.5 -189v-128q0 -125 58.5 -189t154.5 -64h12q96 0 154.5 64t58.5 189v128q0 125 -58.5 189t-154.5 64z" />
    <glyph glyph-name="ohungarumlaut" unicode="&#x151;" horiz-adv-x="559" 
d="M210 589l72 157q3 8 12 8h28q3 0 5 -3t0 -6l-81 -157q-4 -7 -12 -7h-20q-3 0 -4.5 2.5t0.5 5.5zM327 589l72 157q4 8 13 8h27q4 0 5.5 -3t0.5 -6l-82 -157q-4 -7 -11 -7h-21q-3 0 -4.5 2.5t0.5 5.5zM274 513h11q93 0 152 -59.5t59 -166.5v-74q0 -107 -59 -166.5
t-152 -59.5h-11q-93 0 -152 59.5t-59 166.5v74q0 107 59 166.5t152 59.5zM284 470h-9q-72 0 -117 -47.5t-45 -133.5v-78q0 -86 45 -133.5t117 -47.5h9q72 0 117 47.5t45 133.5v78q0 86 -45 133.5t-117 47.5z" />
    <glyph glyph-name="OE" unicode="&#x152;" horiz-adv-x="1031" 
d="M338 713h15q74 0 132.5 -34t88.5 -100v114q0 7 7 7h398q6 0 6 -7v-33q0 -6 -6 -6h-364v-270h342q7 0 7 -7v-33q0 -6 -7 -6h-342v-292h364q6 0 6 -6v-33q0 -7 -6 -7h-398q-7 0 -7 7v114q-20 -44 -54 -74.5t-76 -45t-91 -14.5h-15q-116 0 -190 76t-74 221v132q0 42 7 79.5
t20 67.5t31 54.5t40.5 42t49 29.5t55.5 18t61 6zM351 667h-12q-96 0 -154.5 -64t-58.5 -189v-128q0 -63 16 -112t45 -79.5t67.5 -46t84.5 -15.5h12q96 0 154.5 64t58.5 189v128q0 125 -58.5 189t-154.5 64z" />
    <glyph glyph-name="oe" unicode="&#x153;" horiz-adv-x="913" 
d="M652 513h11q91 0 140.5 -57.5t49.5 -167.5v-32q0 -8 -9 -8h-347v-53q0 -77 48.5 -121.5t125.5 -44.5h4q70 0 154 42q7 3 7 -4v-29q0 -8 -7 -12q-30 -16 -75 -27.5t-82 -11.5h-7q-69 0 -121 31t-74 88q-23 -58 -72 -88.5t-113 -30.5h-11q-93 0 -152 59.5t-59 166.5v74
q0 107 59 166.5t152 59.5h11q66 0 115.5 -32.5t71.5 -93.5q23 60 70.5 93t109.5 33zM661 472h-8q-69 0 -112.5 -50.5t-43.5 -137.5h308q1 188 -144 188zM284 470h-9q-72 0 -117 -47.5t-45 -133.5v-78q0 -86 45 -133.5t117 -47.5h9q72 0 117 47.5t45 133.5v78q0 86 -45 133.5
t-117 47.5z" />
    <glyph glyph-name="Racute" unicode="&#x154;" horiz-adv-x="619" 
d="M263 789l72 157q4 8 12 8h31q3 0 5 -3t0 -6l-81 -157q-4 -7 -12 -7h-23q-3 0 -4.5 2.5t0.5 5.5zM98 700h213q126 0 184.5 -48.5t58.5 -141.5v-17q0 -75 -43.5 -128.5t-131.5 -69.5l73 -102l129 -185q2 -3 0.5 -5.5t-5.5 -2.5h-43q-7 0 -10 6l-195 281h-185v-280
q0 -7 -7 -7h-38q-6 0 -6 7v686q0 7 6 7zM143 654v-323h158q104 0 152.5 46t48.5 118v7q0 50 -18 82.5t-62 51t-117 18.5h-162z" />
    <glyph glyph-name="racute" unicode="&#x155;" horiz-adv-x="352" 
d="M175 589l72 157q4 8 13 8h30q4 0 6 -3t0 -6l-82 -157q-4 -7 -11 -7h-23q-4 0 -5 2.5t0 5.5zM285 513h4q17 0 29 -2q7 -1 7 -10v-31q0 -7 -10 -6q-13 2 -31 2h-3q-80 0 -159 -93v-366q0 -7 -7 -7h-37q-6 0 -6 7v486q0 7 6 7h34q6 0 6 -6l3 -73q75 92 164 92z" />
    <glyph glyph-name="Rcommaaccent" unicode="&#x156;" horiz-adv-x="619" 
d="M98 700h213q64 0 110.5 -12.5t75.5 -37t43 -59.5t14 -81v-17q0 -75 -43.5 -128.5t-131.5 -69.5l73 -102l129 -185q2 -3 0.5 -5.5t-5.5 -2.5h-43q-7 0 -10 6l-195 281h-185v-280q0 -7 -7 -7h-38q-6 0 -6 7v686q0 7 6 7zM143 654v-323h158q54 0 94 13t62.5 36.5t33.5 52
t11 62.5v7q0 76 -45 114t-152 38h-162zM290 -50h53q8 0 8 -7v-44q0 -8 -2 -13l-36 -110q-2 -6 -7 -6h-26q-9 0 -6 10l35 105h-19q-8 0 -8 7v51q0 7 8 7z" />
    <glyph glyph-name="rcommaaccent" unicode="&#x157;" horiz-adv-x="352" 
d="M285 513h4q17 0 29 -2q7 -1 7 -10v-31q0 -7 -10 -6q-13 2 -31 2h-3q-80 0 -159 -93v-366q0 -7 -7 -7h-37q-6 0 -6 7v486q0 7 6 7h34q6 0 6 -6l3 -73q75 92 164 92zM79 -50h54q7 0 7 -7v-44q0 -8 -1 -13l-36 -110q-2 -6 -8 -6h-26q-9 0 -5 10l35 105h-20q-7 0 -7 7v51
q0 7 7 7z" />
    <glyph glyph-name="Rcaron" unicode="&#x158;" horiz-adv-x="619" 
d="M384 954h27q4 0 6 -2.5t0 -6.5l-90 -157q-4 -7 -11 -7h-21q-7 0 -11 7l-90 157q-2 4 -0.5 6.5t5.5 2.5h28q9 0 12 -8l66 -129l66 129q4 8 13 8zM98 700h213q126 0 184.5 -48t58.5 -142v-17q0 -49 -17.5 -88.5t-57.5 -69t-100 -40.5l73 -102l129 -185q2 -3 0.5 -5.5
t-5.5 -2.5h-43q-7 0 -10 6l-195 281h-185v-280q0 -7 -7 -7h-38q-6 0 -6 7v686q0 7 6 7zM143 654v-323h158q104 0 152.5 46t48.5 118v7q0 76 -45 114t-151 38h-163z" />
    <glyph glyph-name="rcaron" unicode="&#x159;" horiz-adv-x="352" 
d="M254 754h28q4 0 6 -2.5t0 -6.5l-90 -157q-4 -7 -12 -7h-20q-8 0 -11 7l-91 157q-2 4 0 6.5t6 2.5h28q8 0 12 -8l66 -129l66 129q4 8 12 8zM285 513h4q17 0 29 -2q7 -1 7 -10v-31q0 -7 -10 -6q-13 2 -31 2h-3q-80 0 -159 -93v-366q0 -7 -7 -7h-37q-6 0 -6 7v486q0 7 6 7
h34q6 0 6 -6l3 -73q75 92 164 92z" />
    <glyph glyph-name="Sacute" unicode="&#x15a;" horiz-adv-x="549" 
d="M251 789l72 157q4 8 12 8h31q3 0 5 -3t0 -6l-81 -157q-4 -7 -12 -7h-23q-3 0 -4.5 2.5t0.5 5.5zM234 345l48 -16q34 -11 53 -18.5t42.5 -20.5t35.5 -27t20.5 -35.5t8.5 -48.5v-4q0 -64 -48.5 -103t-124.5 -39h-7q-52 0 -93 13t-93 38q-2 1 -3.5 0.5t-2.5 -1.5t-1 -3v-33
q0 -8 7 -12q33 -18 84 -33t103 -15h9q95 0 158.5 50.5t63.5 133.5v10q0 35 -10.5 63.5t-26 47.5t-42 35.5t-51.5 27t-61 22.5l-48 16q-78 26 -113 56t-35 79v5q0 63 47.5 98.5t111.5 35.5h8q80 0 171 -45q1 -1 2.5 -1t3 1.5t1.5 3.5v32q0 9 -8 12q-29 17 -76 30t-95 13h-10
q-53 0 -99.5 -19.5t-77.5 -60.5t-31 -96v-11q0 -68 45.5 -109.5t133.5 -71.5z" />
    <glyph glyph-name="sacute" unicode="&#x15b;" horiz-adv-x="425" 
d="M193 589l72 157q4 8 12 8h30q4 0 6 -3t0 -6l-82 -157q-4 -7 -11 -7h-23q-3 0 -4.5 2.5t0.5 5.5zM207 513h10q34 0 74 -11t66 -27q7 -3 7 -11v-28q0 -7 -7 -4q-74 41 -138 41h-7q-51 0 -86 -24t-35 -66v-6q0 -20 8 -34.5t26.5 -25t31.5 -16t39 -13.5q7 -2 11 -4l26 -8
q39 -13 61.5 -23t45.5 -26.5t33.5 -39.5t10.5 -55v-6q0 -44 -24.5 -76.5t-62 -47.5t-83.5 -15h-10q-35 0 -79.5 11.5t-69.5 26.5q-7 3 -7 12v27q0 7 7 5q75 -42 147 -42h9q52 0 87.5 25.5t35.5 71.5v6q0 18 -7 32.5t-15.5 23.5t-25.5 18t-28 13t-33 11l-26 9l-9 3l-43 16
q-15 5 -38.5 17t-35.5 24t-21.5 32t-9.5 44v7q0 63 48 98t117 35z" />
    <glyph glyph-name="Scedilla" unicode="&#x15e;" horiz-adv-x="549" 
d="M255 393l48 -16q46 -15 75.5 -29t58.5 -36.5t43 -55t14 -75.5v-10q0 -83 -63.5 -133.5t-158.5 -50.5h-4l-9 -50q17 5 35 5q36 0 58 -20t22 -55q0 -39 -27 -60.5t-71 -21.5q-35 0 -62 10q-9 3 -9 13v12q0 7 7 6q40 -10 60 -10q65 0 65 49q0 22 -14 33.5t-37 11.5
q-9 0 -41 -7q-9 -2 -13 1l-3 3q-6 6 -5 11l12 70q-88 7 -160 47q-7 4 -7 13v32q0 3 2.5 4t4.5 0q34 -16 57 -25.5t58 -17.5t71 -8h7q76 0 124.5 39t48.5 103v4q0 27 -8.5 48.5t-20.5 35.5t-35.5 27t-42.5 20.5t-53 18.5l-48 16q-43 15 -74.5 31t-55.5 37.5t-36.5 49.5
t-12.5 63v11q0 55 31 96t77.5 60.5t99.5 19.5h10q48 0 95 -13t76 -30q8 -3 8 -12v-32q0 -3 -2.5 -4.5t-4.5 0.5q-91 45 -171 45h-8q-64 0 -111.5 -35.5t-47.5 -98.5v-5q0 -49 35 -79t113 -56z" />
    <glyph glyph-name="scedilla" unicode="&#x15f;" horiz-adv-x="425" 
d="M207 284l26 -8q39 -13 61.5 -23t45.5 -26.5t33.5 -39.5t10.5 -55v-6q0 -66 -49.5 -102.5t-120.5 -36.5h-10h-13l-8 -50q17 5 34 5q37 0 58.5 -20t21.5 -55q0 -26 -12.5 -45t-34.5 -28t-50 -9q-35 0 -62 10q-9 3 -9 13v12q0 7 7 6q39 -10 59 -10q66 0 66 49q0 22 -14 33.5
t-38 11.5q-9 0 -41 -7q-8 -2 -12 1l-3 3q-7 6 -6 11l13 73q-66 11 -105 34q-7 3 -7 12v27q0 8 7 5q75 -42 147 -42h9q52 0 87.5 25.5t35.5 71.5v6q0 18 -7 32.5t-15.5 23.5t-25.5 18t-28 13t-33 11l-26 9l-9 3q-24 8 -36 12.5t-33 13.5t-32.5 18t-23.5 22t-17.5 30t-5.5 37
v7q0 63 48 98t117 35h10q17 0 36.5 -3t38 -8t35.5 -12t30 -15q7 -3 7 -11v-28q0 -7 -7 -4q-74 41 -138 41h-7q-51 0 -86 -24t-35 -66v-6q0 -20 8 -34.5t26.5 -25t31.5 -16t39 -13.5q7 -2 11 -4z" />
    <glyph glyph-name="Scaron" unicode="&#x160;" horiz-adv-x="549" 
d="M353 954h28q4 0 6 -2.5t0 -6.5l-91 -157q-3 -7 -11 -7h-20q-8 0 -12 7l-90 157q-2 4 0 6.5t6 2.5h27q9 0 13 -8l66 -129l66 129q4 8 12 8zM234 345l48 -16q24 -8 38.5 -13.5t33.5 -13.5t30.5 -16t23.5 -19t18.5 -23.5t11 -28.5t4.5 -36v-4q0 -32 -13 -58.5t-36 -45
t-55 -28.5t-69 -10h-7q-52 0 -93 13t-93 38q-2 1 -4.5 0t-2.5 -4v-33q0 -8 7 -12q33 -18 84 -33t103 -15h9q95 0 158.5 50.5t63.5 133.5v10q0 43 -14 75.5t-43 55t-58.5 36.5t-75.5 29l-48 16q-78 26 -113 56t-35 79v5q0 63 47.5 98.5t111.5 35.5h8q80 0 171 -45
q2 -2 4.5 -0.5t2.5 4.5v32q0 9 -8 12q-18 11 -43.5 20t-60 16t-67.5 7h-10q-53 0 -99.5 -19.5t-77.5 -60.5t-31 -96v-11q0 -68 45.5 -109.5t133.5 -71.5z" />
    <glyph glyph-name="scaron" unicode="&#x161;" horiz-adv-x="425" 
d="M292 754h27q4 0 6 -2.5t0 -6.5l-90 -157q-4 -7 -12 -7h-20q-8 0 -11 7l-91 157q-2 4 0 6.5t6 2.5h28q8 0 12 -8l66 -129l66 129q4 8 13 8zM207 513h10q34 0 74 -11t66 -27q7 -3 7 -11v-28q0 -7 -7 -4q-74 41 -138 41h-7q-33 0 -60 -10t-44 -31t-17 -49v-6q0 -20 8 -34.5
t26.5 -25t31.5 -16t39 -13.5q8 -2 11 -4l26 -8l42 -15q17 -6 36 -15.5t30.5 -19.5t22 -24t15.5 -31.5t5 -38.5v-6q0 -44 -24.5 -76.5t-62 -47.5t-83.5 -15h-10q-35 0 -79 11.5t-70 26.5q-7 3 -7 12v27q0 7 7 5q75 -42 147 -42h9q52 0 87.5 25.5t35.5 71.5v6q0 18 -7 32.5
t-15.5 23.5t-25.5 18t-28 13t-33 11l-26 9l-9 3l-43 16q-15 5 -38.5 17t-35.5 24t-21.5 32t-9.5 44v7q0 63 48 98t117 35z" />
    <glyph glyph-name="Tcedilla" unicode="&#x162;" horiz-adv-x="598" 
d="M43 700h511q7 0 7 -7v-33q0 -6 -7 -6h-230v-647q0 -7 -6 -7h-9l-11 -63q17 5 35 5q36 0 58 -20t22 -55q0 -26 -13 -45t-34.5 -28t-49.5 -9q-36 0 -63 10q-9 3 -9 13v12q0 7 7 6q40 -10 60 -10q65 0 65 49q0 22 -14 33.5t-37 11.5q-9 0 -41 -7q-9 -2 -13 1l-3 3
q-6 6 -5 11l15 82q-5 2 -5 7v647h-230q-6 0 -6 6v33q0 7 6 7z" />
    <glyph glyph-name="tcedilla" unicode="&#x163;" horiz-adv-x="328" 
d="M293 47q3 1 5.5 -1t2.5 -5v-25q0 -7 -7 -10q-41 -19 -78 -19h-7q-14 0 -27 2l-9 -52q17 5 35 5q23 0 41.5 -9t28.5 -26t10 -40q0 -39 -27 -60.5t-71 -21.5q-35 0 -62 10q-9 3 -9 13v12q0 7 7 6q39 -10 59 -10q66 0 66 49q0 22 -14 33.5t-37 11.5q-9 0 -42 -7q-8 -2 -12 1
l-3 3q-7 6 -6 11l15 80q-54 25 -54 108v352h-65q-6 0 -6 6v27q0 5 6 6l65 3v100q0 9 6 11l33 7q10 3 10 -7v-111h147q7 0 7 -7v-29q0 -6 -7 -6h-147v-347q0 -42 16.5 -61.5t54.5 -19.5h4q29 0 71 17z" />
    <glyph glyph-name="Tcaron" unicode="&#x164;" horiz-adv-x="598" 
d="M378 954h27q4 0 6 -2.5t0 -6.5l-90 -157q-4 -7 -11 -7h-21q-7 0 -11 7l-90 157q-2 4 0 6.5t5 2.5h28q9 0 12 -8l66 -129l66 129q4 8 13 8zM43 700h511q7 0 7 -7v-33q0 -6 -7 -6h-230v-647q0 -7 -6 -7h-38q-7 0 -7 7v647h-230q-6 0 -6 6v33q0 7 6 7z" />
    <glyph glyph-name="tcaron" unicode="&#x165;" horiz-adv-x="429" 
d="M341 737h54q7 0 7 -7v-44q0 -8 -1 -13l-36 -110q-2 -6 -8 -6h-26q-9 0 -5 10l35 105h-20q-7 0 -7 7v51q0 7 7 7zM104 611l33 7q10 3 10 -7v-111h147q7 0 7 -7v-29q0 -6 -7 -6h-147v-347q0 -42 16.5 -61.5t54.5 -19.5h4q29 0 71 17q3 1 5.5 -1t2.5 -5v-25q0 -7 -7 -10
q-41 -19 -78 -19h-7q-111 0 -111 119v352h-65q-6 0 -6 6v27q0 5 6 6l65 3v100q0 9 6 11z" />
    <glyph glyph-name="Tbar" unicode="&#x166;" horiz-adv-x="598" 
d="M43 700h511q7 0 7 -7v-33q0 -6 -7 -6h-230v-216h109q7 0 7 -7v-27q0 -7 -7 -7h-109v-390q0 -7 -6 -7h-38q-7 0 -7 7v390h-109q-6 0 -6 7v27q0 7 6 7h109v216h-230q-6 0 -6 6v33q0 7 6 7z" />
    <glyph glyph-name="tbar" unicode="&#x167;" horiz-adv-x="328" 
d="M147 297v-186q0 -42 16.5 -61.5t54.5 -19.5h4q29 0 71 17q3 1 5.5 -1t2.5 -5v-25q0 -7 -7 -10q-41 -19 -78 -19h-7q-111 0 -111 119v191h-65q-6 0 -6 7v27q0 6 6 6h65v121h-65q-6 0 -6 6v27q0 5 6 6l65 3v100q0 9 6 10l33 8q10 3 10 -7v-111h147q7 0 7 -7v-29q0 -6 -7 -6
h-147v-121h147q7 0 7 -6v-27q0 -7 -7 -7h-147z" />
    <glyph glyph-name="Umacron" unicode="&#x16a;" horiz-adv-x="683" 
d="M219 834h245q7 0 7 -7v-27q0 -7 -7 -7l-245 1q-7 0 -7 6v27q0 7 7 7zM551 700h38q7 0 7 -7v-442q0 -129 -66 -196.5t-179 -67.5h-15q-112 0 -178 67.5t-66 196.5v442q0 7 6 7h38q7 0 7 -7v-439q0 -109 51 -165t144 -56h12q92 0 143 56t51 165v439q0 7 7 7z" />
    <glyph glyph-name="umacron" unicode="&#x16b;" 
d="M141 634h246q7 0 7 -7v-27q0 -7 -7 -7l-246 1q-6 0 -6 6v27q0 7 6 7zM414 500h37q6 0 6 -7v-486q0 -7 -6 -7h-34q-6 0 -6 6l-2 58q-40 -35 -86.5 -56t-88.5 -21h-6q-83 0 -120.5 46.5t-37.5 136.5v323q0 7 6 7h37q7 0 7 -7v-318q0 -73 27 -109t94 -36h3q79 0 164 76v387
q0 7 6 7z" />
    <glyph glyph-name="Uring" unicode="&#x16e;" horiz-adv-x="683" 
d="M342 922q32 0 54.5 -22t22.5 -54t-22.5 -54.5t-54.5 -22.5q-33 0 -55.5 23t-22.5 54q0 32 22.5 54t55.5 22zM342 891q-20 0 -32.5 -12.5t-12.5 -31.5t12.5 -33t32 -14t32 14t12.5 33t-12 31.5t-32 12.5zM551 700h38q7 0 7 -7v-442q0 -129 -66 -196.5t-179 -67.5h-15
q-112 0 -178 67.5t-66 196.5v442q0 7 6 7h38q7 0 7 -7v-439q0 -109 51 -165t144 -56h12q92 0 143 56t51 165v439q0 7 7 7z" />
    <glyph glyph-name="uring" unicode="&#x16f;" 
d="M264 722q33 0 55.5 -22t22.5 -54t-23 -54.5t-55 -22.5q-33 0 -55.5 23t-22.5 54q0 32 22.5 54t55.5 22zM264 691q-13 0 -23.5 -6t-15.5 -16t-5 -22q0 -19 12 -33t32 -14q10 0 18.5 4t14 10.5t8.5 15t3 17.5q0 19 -12 31.5t-32 12.5zM414 500h37q6 0 6 -7v-486q0 -7 -6 -7
h-34q-6 0 -6 6l-2 58q-19 -17 -41 -31t-44.5 -24.5t-45.5 -16t-44 -5.5h-6q-83 0 -120.5 46.5t-37.5 136.5v323q0 7 6 7h37q7 0 7 -7v-318q0 -73 27 -109t94 -36h3q79 0 164 76v387q0 7 6 7z" />
    <glyph glyph-name="Uhungarumlaut" unicode="&#x170;" horiz-adv-x="683" 
d="M272 789l72 157q4 8 12 8h28q4 0 5.5 -3t0.5 -6l-82 -157q-4 -7 -11 -7h-21q-3 0 -4.5 2.5t0.5 5.5zM389 789l72 157q4 8 13 8h27q4 0 6 -3t0 -6l-82 -157q-4 -7 -11 -7h-21q-3 0 -4 2.5t0 5.5zM551 700h38q7 0 7 -7v-442q0 -129 -66 -196.5t-179 -67.5h-15
q-112 0 -178 67.5t-66 196.5v442q0 7 6 7h38q7 0 7 -7v-439q0 -109 51 -165t144 -56h12q92 0 143 56t51 165v439q0 7 7 7z" />
    <glyph glyph-name="uhungarumlaut" unicode="&#x171;" 
d="M189 589l72 157q4 8 13 8h27q4 0 6 -3t0 -6l-82 -157q-4 -7 -11 -7h-21q-3 0 -4 2.5t0 5.5zM307 589l72 157q4 8 12 8h28q4 0 5.5 -3t0.5 -6l-82 -157q-4 -7 -11 -7h-21q-3 0 -4.5 2.5t0.5 5.5zM414 500h37q6 0 6 -7v-486q0 -7 -6 -7h-34q-6 0 -6 6l-2 58
q-40 -35 -86.5 -56t-88.5 -21h-6q-83 0 -120.5 46.5t-37.5 136.5v323q0 7 6 7h37q7 0 7 -7v-318q0 -73 27 -109t94 -36h3q79 0 164 76v387q0 7 6 7z" />
    <glyph glyph-name="Uogonek" unicode="&#x172;" horiz-adv-x="683" 
d="M551 700h38q7 0 7 -7v-442q0 -105 -44.5 -169.5t-123.5 -85.5q-47 -38 -69.5 -65.5t-22.5 -59.5q0 -25 15.5 -38t42.5 -13q13 0 32 5q7 2 7 -6v-16q0 -9 -9 -12q-17 -6 -39 -6q-24 0 -43.5 9t-31 27.5t-11.5 44.5q0 31 18 58.5t61 63.5q-13 -1 -27 -1h-15
q-112 0 -178 67.5t-66 196.5v442q0 7 6 7h38q7 0 7 -7v-439q0 -109 51 -165t144 -56h12q92 0 143 56t51 165v439q0 7 7 7z" />
    <glyph glyph-name="uogonek" unicode="&#x173;" 
d="M414 500h37q6 0 6 -7v-486q0 -7 -6 -7q-25 -20 -38.5 -32.5t-29.5 -29.5t-22.5 -33t-6.5 -34q0 -25 15.5 -38t42.5 -13q13 0 32 5q7 2 7 -6v-16q0 -9 -9 -12q-17 -6 -39 -6q-38 0 -62 21t-24 60q0 32 21.5 62t74.5 73q-2 2 -2 5l-2 58q-19 -17 -41 -31t-44.5 -24.5
t-45.5 -16t-44 -5.5h-6q-83 0 -120.5 46.5t-37.5 136.5v323q0 7 6 7h37q7 0 7 -7v-318q0 -73 27 -109t94 -36h3q79 0 164 76v387q0 7 6 7z" />
    <glyph glyph-name="Wcircumflex" unicode="&#x174;" horiz-adv-x="972" 
d="M508 946l90 -156q2 -4 0 -6.5t-6 -2.5h-27q-9 0 -13 8l-66 128l-66 -128q-4 -8 -12 -8h-28q-4 0 -6 2.5t0 6.5l91 156q4 8 11 8h21q7 0 11 -8zM893 700h37q7 0 5 -7l-197 -685q-3 -8 -12 -8h-50q-10 0 -13 8l-75 264l-100 358h-4l-99 -358l-76 -264q-3 -8 -13 -8h-50
q-9 0 -12 8l-197 685q-2 7 5 7h37q8 0 11 -8l80 -283l101 -358h3l101 358l80 283q3 8 11 8h40q8 0 12 -8l80 -283l100 -358h3l101 358l80 283q3 8 11 8z" />
    <glyph glyph-name="wcircumflex" unicode="&#x175;" horiz-adv-x="747" 
d="M395 746l90 -156q2 -4 0 -6.5t-6 -2.5h-28q-8 0 -12 8l-66 128l-66 -128q-4 -8 -12 -8h-28q-4 0 -6 2.5t0 6.5l91 156q4 8 11 8h20q8 0 12 -8zM679 500h35q8 0 6 -8l-147 -484q-4 -8 -12 -8h-45q-8 0 -12 8l-44 147l-85 291h-4l-84 -291l-45 -147q-3 -8 -11 -8h-45
q-10 0 -12 8l-147 484q-2 8 6 8h35q8 0 11 -8l64 -212l66 -233h3l67 233l62 212q2 8 12 8h41q9 0 12 -8l63 -212l67 -233h2l66 233l64 212q3 8 11 8z" />
    <glyph glyph-name="Ycircumflex" unicode="&#x176;" horiz-adv-x="616" 
d="M329 946l90 -156q2 -4 0 -6.5t-5 -2.5h-28q-9 0 -12 8l-66 128l-66 -128q-4 -8 -13 -8h-27q-4 0 -6 2.5t0 6.5l90 156q4 8 11 8h21q7 0 11 -8zM534 700h39q4 0 5.5 -2.5t0.5 -5.5l-246 -452v-233q0 -7 -6 -7h-38q-6 0 -6 7v233l-246 452q-1 3 0.5 5.5t5.5 2.5h39
q8 0 12 -7l152 -278l61 -120h2l61 120l152 278q4 7 12 7z" />
    <glyph glyph-name="ycircumflex" unicode="&#x177;" horiz-adv-x="494" 
d="M269 746l90 -156q2 -4 0 -6.5t-6 -2.5h-28q-8 0 -12 8l-66 128l-66 -128q-4 -8 -12 -8h-28q-4 0 -6 2.5t0 6.5l90 156q4 8 12 8h20q8 0 12 -8zM426 500h36q8 0 5 -8l-205 -539q-27 -70 -57 -101.5t-82 -31.5h-6q-34 0 -66 14q-7 3 -7 11v26q0 3 2.5 5t5.5 1
q35 -15 62 -15h4q21 0 36.5 8.5t29 28t26.5 53.5l19 48h-7q-8 0 -11 8l-184 484q-2 8 6 8h35q8 0 12 -8l104 -274l62 -174h3l61 174l105 274q3 8 11 8z" />
    <glyph glyph-name="Ydieresis" unicode="&#x178;" horiz-adv-x="616" 
d="M212 864h47q8 0 8 -7v-56q0 -8 -8 -8h-47q-7 0 -7 8v56q0 7 7 7zM356 864h47q8 0 8 -7v-56q0 -8 -8 -8h-47q-7 0 -7 8v56q0 7 7 7zM534 700h39q3 0 4.5 -1.5t1.5 -2.5v-4l-246 -452v-233q0 -7 -6 -7h-38q-6 0 -6 7v233l-246 452q-1 3 0.5 5.5t5.5 2.5h39q8 0 12 -7
l152 -278l61 -120h2l61 120l152 278q4 7 12 7z" />
    <glyph glyph-name="Zacute" unicode="&#x179;" horiz-adv-x="563" 
d="M267 789l72 157q4 8 13 8h30q4 0 5.5 -3t0.5 -6l-82 -157q-4 -7 -11 -7h-24q-3 0 -4 2.5t0 5.5zM113 46h392q7 0 7 -6v-33q0 -7 -7 -7h-447q-7 0 -7 7v32q0 3 3 8l390 607h-373q-7 0 -7 6v33q0 7 7 7h429q7 0 7 -7v-32q0 -3 -3 -8z" />
    <glyph glyph-name="zacute" unicode="&#x17a;" horiz-adv-x="438" 
d="M205 589l72 157q4 8 12 8h30q4 0 6 -3t0 -6l-81 -157q-4 -7 -12 -7h-23q-3 0 -4.5 2.5t0.5 5.5zM98 43h297q6 0 6 -7v-29q0 -7 -6 -7h-352q-6 0 -6 7v26q0 6 4 12l295 412h-278q-7 0 -7 7v29q0 7 7 7h332q6 0 6 -7v-26q0 -6 -4 -12z" />
    <glyph glyph-name="Zdotaccent" unicode="&#x17b;" horiz-adv-x="563" 
d="M256 864h51q8 0 8 -7v-56q0 -8 -8 -8h-51q-8 0 -8 8v56q0 7 8 7zM113 46h392q7 0 7 -6v-33q0 -7 -7 -7h-447q-7 0 -7 7v32q0 3 3 8l390 607h-373q-7 0 -7 6v33q0 7 7 7h429q7 0 7 -7v-32q0 -3 -3 -8z" />
    <glyph glyph-name="zdotaccent" unicode="&#x17c;" horiz-adv-x="438" 
d="M194 664h51q8 0 8 -7v-56q0 -8 -8 -8h-51q-8 0 -8 8v56q0 7 8 7zM98 43h297q6 0 6 -7v-29q0 -7 -6 -7h-352q-6 0 -6 7v26q0 6 4 12l295 412h-278q-7 0 -7 7v29q0 7 7 7h332q6 0 6 -7v-26q0 -6 -4 -12z" />
    <glyph glyph-name="Zcaron" unicode="&#x17d;" horiz-adv-x="563" 
d="M360 954h27q4 0 6 -2.5t0 -6.5l-90 -157q-4 -7 -11 -7h-21q-7 0 -11 7l-90 157q-2 4 0 6.5t5 2.5h28q9 0 12 -8l66 -129l66 129q4 8 13 8zM113 46h392q7 0 7 -6v-33q0 -7 -7 -7h-447q-7 0 -7 7v32q0 3 3 8l390 607h-373q-7 0 -7 6v33q0 7 7 7h429q7 0 7 -7v-32
q0 -3 -3 -8z" />
    <glyph glyph-name="zcaron" unicode="&#x17e;" horiz-adv-x="438" 
d="M298 754h27q4 0 6 -2.5t0 -6.5l-90 -157q-4 -7 -11 -7h-21q-7 0 -11 7l-90 157q-2 4 0 6.5t6 2.5h27q9 0 13 -8l66 -129l65 129q4 8 13 8zM98 43h297q6 0 6 -7v-29q0 -7 -6 -7h-352q-6 0 -6 7v26q0 6 4 12l295 412h-278q-7 0 -7 7v29q0 7 7 7h332q6 0 6 -7v-26
q0 -6 -4 -12z" />
    <glyph glyph-name="Acaron" unicode="&#x1cd;" horiz-adv-x="619" 
d="M388 954h27q4 0 6 -2.5t0 -6.5l-90 -157q-4 -7 -11 -7h-21q-7 0 -11 7l-90 157q-2 4 0 6.5t6 2.5h27q9 0 13 -8l65 -129l66 129q4 8 13 8zM281 700h57q8 0 11 -9l233 -684q2 -7 -5 -7h-38q-8 0 -12 9l-74 216h-287l-75 -216q-3 -9 -11 -9h-38q-7 0 -5 7l232 684q4 9 12 9
zM307 653l-93 -280l-35 -102h261l-35 102l-94 280h-4z" />
    <glyph glyph-name="acaron" unicode="&#x1ce;" horiz-adv-x="489" 
d="M323 754h27q4 0 6 -2.5t0 -6.5l-90 -157q-4 -7 -11 -7h-21q-7 0 -11 7l-90 157q-2 4 0 6.5t6 2.5h27q9 0 13 -8l65 -129l66 129q4 8 13 8zM245 513h6q87 0 127.5 -45.5t40.5 -142.5v-318q0 -7 -7 -7h-33q-6 0 -7 6l-1 64q-35 -40 -80.5 -61.5t-88.5 -21.5h-6
q-73 0 -116 39t-43 104v5q0 80 56 118.5t173 43.5l103 4v24q0 75 -27.5 110.5t-98.5 35.5h-3q-72 0 -158 -41q-6 -3 -6 4v28q0 9 7 12q32 16 78 27.5t84 11.5zM369 264l-111 -4q-88 -3 -129.5 -33t-41.5 -88v-5q0 -48 33 -76.5t90 -28.5h4q83 0 155 84v151z" />
    <glyph glyph-name="Icaron" unicode="&#x1cf;" horiz-adv-x="235" 
d="M196 954h28q4 0 6 -2.5t0 -6.5l-90 -157q-4 -7 -12 -7h-20q-8 0 -12 7l-90 157q-2 4 0 6.5t6 2.5h28q8 0 12 -8l66 -129l66 129q4 8 12 8zM98 700h38q7 0 7 -7v-686q0 -7 -7 -7h-38q-6 0 -6 7v686q0 7 6 7z" />
    <glyph glyph-name="icaron" unicode="&#x1d0;" horiz-adv-x="195" 
d="M177 754h27q4 0 6 -2.5t0 -6.5l-90 -157q-4 -7 -11 -7h-21q-7 0 -11 7l-90 157q-2 4 0 6.5t6 2.5h27q9 0 13 -8l65 -129l66 129q4 8 13 8zM80 500h37q7 0 7 -7v-486q0 -7 -7 -7h-37q-6 0 -6 7v486q0 7 6 7z" />
    <glyph glyph-name="Ocaron" unicode="&#x1d1;" horiz-adv-x="690" 
d="M424 954h28q4 0 5.5 -2.5t-0.5 -6.5l-90 -157q-4 -7 -11 -7h-21q-7 0 -11 7l-90 157q-2 4 0 6.5t6 2.5h27q9 0 13 -8l66 -129l66 129q3 8 12 8zM338 713h15q55 0 102.5 -18.5t83.5 -54.5t56.5 -93.5t20.5 -130.5v-132q0 -145 -74 -221t-189 -76h-15q-116 0 -190 76
t-74 221v132q0 42 7 79.5t20 67.5t31 54.5t40.5 42t49 29.5t55.5 18t61 6zM351 667h-12q-96 0 -154.5 -64t-58.5 -189v-128q0 -63 16 -112t45 -79.5t67.5 -46t84.5 -15.5h12q96 0 154.5 64t58.5 189v128q0 51 -10.5 92.5t-29.5 71t-45.5 50t-58.5 30t-69 9.5z" />
    <glyph glyph-name="ocaron" unicode="&#x1d2;" horiz-adv-x="559" 
d="M358 754h28q4 0 6 -2.5t0 -6.5l-90 -157q-4 -7 -12 -7h-20q-8 0 -12 7l-90 157q-2 4 0 6.5t6 2.5h28q8 0 12 -8l66 -129l66 129q4 8 12 8zM274 513h11q93 0 152 -59.5t59 -166.5v-74q0 -107 -59 -166.5t-152 -59.5h-11q-93 0 -152 59.5t-59 166.5v74q0 107 59 166.5
t152 59.5zM284 470h-9q-72 0 -117 -47.5t-45 -133.5v-78q0 -86 45 -133.5t117 -47.5h9q72 0 117 47.5t45 133.5v78q0 86 -45 133.5t-117 47.5z" />
    <glyph glyph-name="Ucaron" unicode="&#x1d3;" horiz-adv-x="683" 
d="M420 954h27q4 0 6 -2.5t0 -6.5l-90 -157q-4 -7 -11 -7h-21q-7 0 -11 7l-90 157q-2 4 0 6.5t6 2.5h27q9 0 13 -8l66 -129l65 129q4 8 13 8zM551 700h38q7 0 7 -7v-442q0 -129 -66 -196.5t-179 -67.5h-15q-112 0 -178 67.5t-66 196.5v442q0 7 6 7h38q7 0 7 -7v-439
q0 -109 51 -165t144 -56h12q92 0 143 56t51 165v439q0 7 7 7z" />
    <glyph glyph-name="ucaron" unicode="&#x1d4;" 
d="M342 754h28q4 0 6 -2.5t0 -6.5l-90 -157q-4 -7 -12 -7h-20q-8 0 -12 7l-90 157q-2 4 0 6.5t6 2.5h28q8 0 12 -8l66 -129l66 129q4 8 12 8zM414 500h37q6 0 6 -7v-486q0 -7 -6 -7h-34q-6 0 -6 6l-2 58q-39 -35 -86 -56t-89 -21h-6q-83 0 -120.5 46.5t-37.5 136.5v323
q0 7 6 7h37q7 0 7 -7v-318q0 -73 27 -109t94 -36h3q79 0 164 76v387q0 7 6 7z" />
    <glyph glyph-name="Udieresismacron" unicode="&#x1d5;" horiz-adv-x="683" 
d="M219 973h245q7 0 7 -7v-27q0 -6 -7 -6h-245q-7 0 -7 6v27q0 7 7 7zM246 864h47q8 0 8 -7v-56q0 -8 -8 -8h-47q-8 0 -8 8v56q0 7 8 7zM390 864h47q8 0 8 -7v-56q0 -8 -8 -8h-47q-8 0 -8 8v56q0 7 8 7zM551 700h38q7 0 7 -7v-442q0 -129 -66 -196.5t-179 -67.5h-15
q-112 0 -178 67.5t-66 196.5v442q0 7 6 7h38q7 0 7 -7v-439q0 -109 51 -165t144 -56h12q92 0 143 56t51 165v439q0 7 7 7z" />
    <glyph glyph-name="udieresismacron" unicode="&#x1d6;" 
d="M141 773h246q7 0 7 -6v-27q0 -7 -7 -7h-246q-6 0 -6 7v27q0 6 6 6zM168 664h48q7 0 7 -7v-56q0 -8 -7 -8h-48q-7 0 -7 8v56q0 7 7 7zM312 664h48q7 0 7 -7v-56q0 -8 -7 -8h-48q-7 0 -7 8v56q0 7 7 7zM414 500h37q6 0 6 -7v-486q0 -7 -6 -7h-34q-6 0 -6 6l-2 58
q-40 -35 -86.5 -56t-88.5 -21h-6q-83 0 -120.5 46.5t-37.5 136.5v323q0 7 6 7h37q7 0 7 -7v-318q0 -73 27 -109t94 -36h3q79 0 164 76v387q0 7 6 7z" />
    <glyph glyph-name="Udieresisacute" unicode="&#x1d7;" horiz-adv-x="683" 
d="M323 928l72 157q4 8 13 8h30q4 0 5.5 -2.5t0.5 -6.5l-82 -156q-4 -8 -11 -8h-24q-3 0 -4 2.5t0 5.5zM246 864h47q8 0 8 -7v-56q0 -8 -8 -8h-47q-8 0 -8 8v56q0 7 8 7zM390 864h47q8 0 8 -7v-56q0 -8 -8 -8h-47q-8 0 -8 8v56q0 7 8 7zM551 700h38q7 0 7 -7v-442
q0 -129 -66 -196.5t-179 -67.5h-15q-112 0 -178 67.5t-66 196.5v442q0 7 6 7h38q7 0 7 -7v-439q0 -109 51 -165t144 -56h12q92 0 143 56t51 165v439q0 7 7 7z" />
    <glyph glyph-name="udieresisacute" unicode="&#x1d8;" 
d="M250 729l72 157q4 8 12 8h30q3 0 4.5 -1.5t2 -3.5t-0.5 -5l-82 -156q-3 -7 -11 -7h-23q-3 0 -4.5 2.5t0.5 5.5zM168 664h48q7 0 7 -7v-56q0 -8 -7 -8h-48q-7 0 -7 8v56q0 7 7 7zM312 664h48q7 0 7 -7v-56q0 -8 -7 -8h-48q-7 0 -7 8v56q0 7 7 7zM414 500h37q6 0 6 -7v-486
q0 -7 -6 -7h-34q-6 0 -6 6l-2 58q-26 -23 -55.5 -40t-60.5 -27t-59 -10h-6q-83 0 -120.5 46.5t-37.5 136.5v323q0 7 6 7h37q7 0 7 -7v-318q0 -73 27 -109t94 -36h3q79 0 164 76v387q0 7 6 7z" />
    <glyph glyph-name="Udieresiscaron" unicode="&#x1d9;" horiz-adv-x="683" 
d="M420 1093h27q4 0 6 -2.5t0 -6.5l-90 -156q-4 -8 -11 -8h-21q-7 0 -11 8l-90 156q-2 4 0 6.5t6 2.5h27q9 0 13 -8l66 -128l65 128q4 8 13 8zM246 864h47q8 0 8 -7v-56q0 -8 -8 -8h-47q-8 0 -8 8v56q0 7 8 7zM390 864h47q8 0 8 -7v-56q0 -8 -8 -8h-47q-8 0 -8 8v56q0 7 8 7
zM551 700h38q7 0 7 -7v-442q0 -129 -66 -196.5t-179 -67.5h-15q-112 0 -178 67.5t-66 196.5v442q0 7 6 7h38q7 0 7 -7v-439q0 -109 51 -165t144 -56h12q92 0 143 56t51 165v439q0 7 7 7z" />
    <glyph glyph-name="udieresiscaron" unicode="&#x1da;" 
d="M342 894h28q4 0 6 -3t0 -7l-90 -156q-4 -7 -12 -7h-20q-8 0 -12 7l-90 156q-2 4 0 7t6 3h28q8 0 12 -8l66 -129l66 129q4 8 12 8zM168 664h48q7 0 7 -7v-56q0 -8 -7 -8h-48q-7 0 -7 8v56q0 7 7 7zM312 664h48q7 0 7 -7v-56q0 -8 -7 -8h-48q-7 0 -7 8v56q0 7 7 7zM414 500
h37q6 0 6 -7v-486q0 -7 -6 -7h-34q-6 0 -6 6l-2 58q-39 -35 -86 -56t-89 -21h-6q-83 0 -120.5 46.5t-37.5 136.5v323q0 7 6 7h37q7 0 7 -7v-318q0 -73 27 -109t94 -36h3q79 0 164 76v387q0 7 6 7z" />
    <glyph glyph-name="Udieresisgrave" unicode="&#x1db;" horiz-adv-x="683" 
d="M284 1085l72 -157q1 -3 0 -5.5t-4 -2.5h-24q-7 0 -11 8l-82 156q-1 8 6 9h30q9 0 13 -8zM246 864h47q8 0 8 -7v-56q0 -8 -8 -8h-47q-8 0 -8 8v56q0 7 8 7zM390 864h47q8 0 8 -7v-56q0 -8 -8 -8h-47q-8 0 -8 8v56q0 7 8 7zM551 700h38q7 0 7 -7v-442q0 -129 -66 -196.5
t-179 -67.5h-15q-112 0 -178 67.5t-66 196.5v442q0 7 6 7h38q7 0 7 -7v-439q0 -109 51 -165t144 -56h12q92 0 143 56t51 165v439q0 7 7 7z" />
    <glyph glyph-name="udieresisgrave" unicode="&#x1dc;" 
d="M208 886l72 -157q2 -3 0.5 -5.5t-4.5 -2.5h-23q-8 0 -12 7l-81 156q-2 4 0 7t6 3h30q8 0 12 -8zM168 664h48q7 0 7 -7v-56q0 -8 -7 -8h-48q-7 0 -7 8v56q0 7 7 7zM312 664h48q7 0 7 -7v-56q0 -8 -7 -8h-48q-7 0 -7 8v56q0 7 7 7zM414 500h37q6 0 6 -7v-486q0 -7 -6 -7
h-34q-6 0 -6 6l-2 58q-40 -35 -86.5 -56t-88.5 -21h-6q-83 0 -120.5 46.5t-37.5 136.5v323q0 7 6 7h37q7 0 7 -7v-318q0 -73 27 -109t94 -36h3q79 0 164 76v387q0 7 6 7z" />
    <glyph glyph-name="Scommaaccent" unicode="&#x218;" horiz-adv-x="549" 
d="M234 345l48 -16q34 -11 53 -18.5t42.5 -20.5t35.5 -27t20.5 -35.5t8.5 -48.5v-4q0 -64 -48.5 -103t-124.5 -39h-7q-52 0 -93 13t-93 38q-2 1 -4.5 0t-2.5 -4v-33q0 -8 7 -12q33 -18 84 -33t103 -15h9q47 0 87.5 13t70 36.5t47 58.5t17.5 76v10q0 35 -10.5 63.5t-26 47.5
t-42 35.5t-51.5 27t-61 22.5l-48 16q-78 26 -113 56t-35 79v5q0 63 47.5 98.5t111.5 35.5h8q80 0 171 -45q2 -2 4.5 -0.5t2.5 4.5v32q0 9 -8 12q-29 17 -76 30t-95 13h-10q-53 0 -99.5 -19.5t-77.5 -60.5t-31 -96v-11q0 -68 45.5 -109.5t133.5 -71.5zM250 -50h54q8 0 8 -7
v-44q0 -8 -2 -13l-36 -110q-2 -6 -8 -6h-25q-9 0 -6 10l35 105h-20q-7 0 -7 7v51q0 7 7 7z" />
    <glyph glyph-name="scommaaccent" unicode="&#x219;" horiz-adv-x="425" 
d="M207 513h10q23 0 49.5 -5.5t50 -14t40.5 -18.5q7 -3 7 -11v-28q0 -7 -7 -4q-74 41 -138 41h-7q-51 0 -86 -24t-35 -66v-6q0 -20 8 -34.5t26.5 -25t31.5 -16t39 -13.5q7 -2 11 -4l26 -8q39 -13 61.5 -23t45.5 -26.5t33.5 -39.5t10.5 -55v-6q0 -44 -24.5 -76.5t-62 -47.5
t-83.5 -15h-10q-35 0 -79.5 11.5t-69.5 26.5q-7 3 -7 12v27q0 8 7 5q75 -42 147 -42h9q52 0 87.5 25.5t35.5 71.5v6q0 18 -7 32.5t-15.5 23.5t-25.5 18t-28 13t-33 11l-26 9l-9 3q-24 8 -36 12.5t-33 13.5t-32.5 18t-23.5 22t-17.5 30t-5.5 37v7q0 63 48 98t117 35zM191 -50
h53q8 0 8 -7v-44q0 -8 -2 -13l-36 -110q-2 -6 -7 -6h-26q-9 0 -6 10l35 105h-19q-8 0 -8 7v51q0 7 8 7z" />
    <glyph glyph-name="uni021A" unicode="&#x21a;" horiz-adv-x="598" 
d="M43 700h511q7 0 7 -7v-33q0 -6 -7 -6h-230v-647q0 -7 -6 -7h-38q-7 0 -7 7v647h-230q-6 0 -6 6v33q0 7 6 7zM273 -50h53q8 0 8 -7v-44q0 -8 -2 -13l-36 -110q-2 -6 -8 -6h-25q-9 0 -6 10l35 105h-19q-8 0 -8 7v51q0 7 8 7z" />
    <glyph glyph-name="uni021B" unicode="&#x21b;" horiz-adv-x="328" 
d="M104 611l33 7q10 3 10 -7v-111h147q7 0 7 -7v-29q0 -6 -7 -6h-147v-347q0 -42 16.5 -61.5t54.5 -19.5h4q29 0 71 17q3 1 5.5 -1t2.5 -5v-25q0 -7 -7 -10q-41 -19 -78 -19h-7q-111 0 -111 119v352h-65q-6 0 -6 6v27q0 5 6 6l65 3v100q0 9 6 11zM187 -50h54q7 0 7 -7v-44
q0 -8 -2 -13l-35 -110q-2 -6 -8 -6h-26q-9 0 -5 10l35 105h-20q-7 0 -7 7v51q0 7 7 7z" />
    <glyph glyph-name="uni0243" unicode="&#x243;" horiz-adv-x="610" 
d="M429 367q70 -19 102.5 -65.5t32.5 -109.5v-17q0 -84 -52.5 -129.5t-160.5 -45.5h-246q-7 0 -7 7v172h-55q-6 0 -6 7v19q0 6 6 6h55v482q0 7 7 7h222q211 0 211 -168v-14q0 -50 -27.5 -90.5t-81.5 -60.5zM149 383h167q87 0 129 38.5t42 97.5v4q0 43 -15.5 71t-52 44
t-94.5 16h-176v-271zM512 184v6q0 67 -41.5 109t-136.5 42h-185v-130h198q7 0 7 -6v-19q0 -7 -7 -7h-198v-133h199q88 0 126 36t38 102z" />
    <glyph glyph-name="circumflex" unicode="&#x2c6;" horiz-adv-x="299" 
d="M171 946l90 -156q2 -4 0 -6.5t-6 -2.5h-27q-9 0 -13 8l-66 128l-65 -128q-4 -8 -13 -8h-27q-4 0 -6 2.5t0 6.5l90 156q4 8 11 8h21q7 0 11 -8z" />
    <glyph glyph-name="caron" unicode="&#x2c7;" horiz-adv-x="299" 
d="M228 954h27q4 0 6 -2.5t0 -6.5l-90 -157q-4 -7 -11 -7h-21q-7 0 -11 7l-90 157q-2 4 0 6.5t6 2.5h27q9 0 13 -8l66 -129l65 129q4 8 13 8z" />
    <glyph glyph-name="breve" unicode="&#x2d8;" horiz-adv-x="338" 
d="M291 864q4 2 7 0.5t3 -5.5v-24q0 -7 -6 -11q-11 -9 -27.5 -17.5t-44 -16t-54.5 -7.5q-40 0 -74 13t-53 28q-5 4 -5 11v24q0 4 3 5.5t6 -0.5q20 -12 33 -19t38.5 -14t51.5 -7t51.5 7t38.5 14t32 19z" />
    <glyph glyph-name="dotaccent" unicode="&#x2d9;" horiz-adv-x="140" 
d="M44 864h52q7 0 7 -7v-56q0 -8 -7 -8h-52q-7 0 -7 8v56q0 7 7 7z" />
    <glyph glyph-name="ring" unicode="&#x2da;" horiz-adv-x="229" 
d="M115 922q32 0 54.5 -22t22.5 -54t-22.5 -54.5t-54.5 -22.5q-33 0 -55.5 23t-22.5 54q0 32 22.5 54t55.5 22zM115 891q-10 0 -18.5 -3.5t-14.5 -9.5t-9 -14t-3 -17q0 -19 12.5 -33t32 -14t32 14t12.5 33t-12 31.5t-32 12.5z" />
    <glyph glyph-name="ogonek" unicode="&#x2db;" horiz-adv-x="208" 
d="M131 0h40q-34 -27 -50.5 -43t-31.5 -39.5t-15 -46.5q0 -17 7.5 -28.5t20 -17t30.5 -5.5q13 0 32 5q7 2 7 -6v-16q0 -9 -9 -12q-16 -6 -39 -6q-38 0 -62 21t-24 60q0 33 21.5 63t72.5 71z" />
    <glyph glyph-name="tilde" unicode="&#x2dc;" horiz-adv-x="352" 
d="M292 858h18q8 0 5 -9q-10 -32 -35 -55t-56 -23h-4q-25 0 -50 22.5t-44 22.5q-31 0 -55 -39q-4 -6 -10 -6h-18q-8 0 -6 8q10 32 35.5 55t55.5 23h4q20 0 35.5 -11t29 -22.5t30.5 -11.5q30 0 55 40q3 6 10 6z" />
    <glyph glyph-name="hungarumlaut" unicode="&#x2dd;" horiz-adv-x="310" 
d="M38 789l72 157q3 8 12 8h28q3 0 5 -3t0 -6l-81 -157q-4 -7 -12 -7h-20q-3 0 -4.5 2.5t0.5 5.5zM155 789l72 157q4 8 13 8h27q4 0 5.5 -3t0.5 -6l-82 -157q-4 -7 -11 -7h-21q-3 0 -4.5 2.5t0.5 5.5z" />
    <glyph glyph-name="uni0326" unicode="&#x326;" horiz-adv-x="0" 
d="M53 -50h53q8 0 8 -7v-44q0 -8 -2 -13l-36 -110q-2 -6 -7 -6h-26q-9 0 -6 10l35 105h-19q-8 0 -8 7v51q0 7 8 7z" />
    <glyph glyph-name="uni0401" unicode="&#x401;" horiz-adv-x="559" 
d="M205 864h47q7 0 7 -7v-56q0 -8 -7 -8h-47q-8 0 -8 8v56q0 7 8 7zM349 864h47q7 0 7 -7v-56q0 -8 -7 -8h-47q-8 0 -8 8v56q0 7 8 7zM98 700h409q6 0 6 -7v-33q0 -6 -6 -6h-364v-270h342q7 0 7 -7v-33q0 -6 -7 -6h-342v-292h364q6 0 6 -6v-33q0 -7 -6 -7h-409q-6 0 -6 7
v686q0 7 6 7z" />
    <glyph glyph-name="uni0404" unicode="&#x404;" horiz-adv-x="589" 
d="M371 667h-7q-101 0 -169.5 -70t-68.5 -196v-19h338q7 0 7 -7v-32q0 -7 -7 -7h-338v-37q0 -127 68.5 -196.5t169.5 -69.5h7q81 0 165 45q2 1 4.5 0t2.5 -4v-32q0 -8 -7 -12q-31 -17 -76 -30t-91 -13h-11q-57 0 -107.5 20t-90 57.5t-63 97t-23.5 133.5v110q0 60 15.5 110.5
t42 86.5t62.5 61t77.5 37.5t86.5 12.5h11q91 0 167 -43q7 -4 7 -12v-32q0 -3 -2.5 -4t-4.5 0q-85 45 -165 45z" />
    <glyph glyph-name="uni0406" unicode="&#x406;" horiz-adv-x="235" 
d="M98 700h38q7 0 7 -7v-686q0 -7 -7 -7h-38q-6 0 -6 7v686q0 7 6 7z" />
    <glyph glyph-name="uni0407" unicode="&#x407;" horiz-adv-x="235" 
d="M22 864h47q7 0 7 -7v-56q0 -8 -7 -8h-47q-8 0 -8 8v56q0 7 8 7zM166 864h47q7 0 7 -7v-56q0 -8 -7 -8h-47q-8 0 -8 8v56q0 7 8 7zM98 700h38q7 0 7 -7v-686q0 -7 -7 -7h-38q-6 0 -6 7v686q0 7 6 7z" />
    <glyph glyph-name="uni040E" unicode="&#x40e;" horiz-adv-x="622" 
d="M433 864q4 2 7 0.5t3 -5.5v-24q0 -7 -6 -11q-11 -9 -27.5 -17.5t-44 -16t-54.5 -7.5q-40 0 -74 13t-53 28q-5 4 -5 11v24q0 4 3 5.5t6 -0.5q20 -12 33 -19t38.5 -14.5t51.5 -7.5t51.5 7.5t38.5 14.5t32 19zM540 700h39q4 0 5.5 -2.5t-0.5 -5.5l-252 -537
q-30 -63 -54.5 -97.5t-53.5 -51t-69 -16.5h-5q-33 0 -51 8q-6 2 -6 10v34q0 7 8 4q24 -9 44 -9h3q42 0 69.5 25.5t61.5 99.5l4 7l-246 523q-1 3 0.5 5.5t5.5 2.5h39q8 0 12 -7l147 -313l69 -159h2l69 159l147 313q3 7 12 7z" />
    <glyph glyph-name="uni0410" unicode="&#x410;" horiz-adv-x="619" 
d="M281 700h57q8 0 11 -9l233 -684q2 -7 -5 -7h-38q-8 0 -12 9l-74 216h-288l-74 -216q-3 -9 -11 -9h-38q-7 0 -5 7l232 684q4 9 12 9zM307 653l-93 -280l-35 -102h261l-35 102l-94 280h-4z" />
    <glyph glyph-name="uni0411" unicode="&#x411;" horiz-adv-x="594" 
d="M143 410h158q247 0 247 -192v-21q0 -93 -61.5 -145t-186.5 -52h-202q-6 0 -6 7v686q0 7 6 7h386q6 0 6 -7v-33q0 -6 -6 -6h-341v-244zM496 204v11q0 49 -18.5 81t-63.5 50.5t-117 18.5h-154v-319h152q106 0 153.5 41t47.5 117z" />
    <glyph glyph-name="uni0412" unicode="&#x412;" horiz-adv-x="603" 
d="M423 367q70 -19 102 -65.5t32 -109.5v-17q0 -84 -52 -129.5t-160 -45.5h-247q-6 0 -6 7v686q0 7 6 7h223q211 0 211 -168v-14q0 -50 -27.5 -90.5t-81.5 -60.5zM480 519v4q0 65 -38 98t-124 33h-175v-271h167q86 0 128 38.5t42 97.5zM505 184v6q0 67 -41 109t-136 42h-185
v-295h199q87 0 125 36t38 102z" />
    <glyph glyph-name="uni0413" unicode="&#x413;" horiz-adv-x="528" 
d="M98 700h387q7 0 7 -7v-33q0 -6 -7 -6h-342v-647q0 -7 -7 -7h-38q-6 0 -6 7v686q0 7 6 7z" />
    <glyph glyph-name="uni0414" unicode="&#x414;" horiz-adv-x="736" 
d="M616 46h76q7 0 7 -6v-168q0 -6 -7 -6h-37q-7 0 -7 6v128h-552v-128q0 -6 -6 -6h-38q-7 0 -7 6v168q0 6 7 6h80q39 26 46 123l40 525q0 6 6 6h385q7 0 7 -7v-647zM266 654l-36 -488q-7 -81 -35 -120h369v608h-298z" />
    <glyph glyph-name="uni0415" unicode="&#x415;" horiz-adv-x="559" 
d="M143 384h342q7 0 7 -7v-33q0 -6 -7 -6h-342v-292h364q6 0 6 -6v-33q0 -7 -6 -7h-409q-6 0 -6 7v686q0 7 6 7h409q6 0 6 -7v-33q0 -6 -6 -6h-364v-270z" />
    <glyph glyph-name="uni0416" unicode="&#x416;" horiz-adv-x="921" 
d="M626 354l257 -344q2 -3 0.5 -6.5t-4.5 -3.5h-44q-5 0 -9 4l-246 326h-94v-323q0 -7 -7 -7h-37q-7 0 -7 7v323h-94l-246 -326q-4 -4 -9 -4h-44q-3 0 -4.5 3.5t0.5 6.5l257 344l-238 336q-2 3 -0.5 6.5t4.5 3.5h43q5 0 9 -4l228 -320h94v317q0 7 7 7h37q7 0 7 -7v-317h94
l228 320q4 4 9 4h43q3 0 4.5 -3.5t-0.5 -6.5z" />
    <glyph glyph-name="uni0417" unicode="&#x417;" horiz-adv-x="534" 
d="M350 367q70 -19 104 -66.5t34 -104.5v-18q0 -83 -67 -137t-169 -54h-10q-51 0 -98 12.5t-77 30.5q-8 3 -8 12v32q0 3 2.5 4.5t5.5 0.5q90 -46 174 -46h8q82 0 134.5 44t52.5 109v8q0 27 -9 51t-29 46.5t-56.5 36t-85.5 13.5h-96q-7 0 -7 7v28q0 7 7 7h78q85 0 129 42
t44 94v10q0 62 -47.5 100t-121.5 38h-7q-80 0 -171 -46h-4q-1 0 -2 1.5t-1 3.5v32q0 9 7 12q30 17 76.5 30t95.5 13h9q94 0 155.5 -47.5t61.5 -127.5v-19q0 -29 -11.5 -57.5t-37.5 -54t-63 -40.5z" />
    <glyph glyph-name="uni0418" unicode="&#x418;" horiz-adv-x="681" 
d="M541 700h46q7 0 7 -7v-686q0 -7 -7 -7h-38q-6 0 -6 7v346l2 268h-3l-392 -616q-3 -5 -10 -5h-46q-7 0 -7 7v686q0 7 7 7h38q6 0 6 -7v-319l-2 -295h3l392 616q3 5 10 5z" />
    <glyph glyph-name="uni0419" unicode="&#x419;" horiz-adv-x="681" 
d="M468 864q3 2 6 0.5t3 -5.5v-24q0 -7 -5 -11q-8 -7 -20 -13t-28 -12.5t-37 -11t-42 -4.5q-40 0 -74 13t-52 28q-6 4 -6 11v24q0 4 3 5.5t7 -0.5q19 -12 32 -19t38.5 -14t51.5 -7t51.5 7t38.5 14t33 19zM541 700h46q7 0 7 -7v-686q0 -7 -7 -7h-38q-6 0 -6 7v346l2 268h-3
l-392 -616q-3 -5 -10 -5h-46q-7 0 -7 7v686q0 7 7 7h38q6 0 6 -7v-319l-2 -295h3l392 616q3 5 10 5z" />
    <glyph glyph-name="uni041A" unicode="&#x41a;" horiz-adv-x="611" 
d="M315 354l258 -344q2 -3 0.5 -6.5t-5.5 -3.5h-43q-6 0 -9 4l-247 326h-126v-323q0 -7 -7 -7h-38q-6 0 -6 7v686q0 7 6 7h38q7 0 7 -7v-317h126l229 320q3 4 9 4h42q4 0 5 -3.5t-1 -6.5z" />
    <glyph glyph-name="uni041B" unicode="&#x41b;" horiz-adv-x="700" 
d="M222 700h384q7 0 7 -7v-686q0 -7 -7 -7h-37q-7 0 -7 7v647h-299l-36 -488q-7 -94 -40.5 -136.5t-95.5 -42.5h-6q-21 0 -42 9q-6 2 -6 9v30q0 10 8 6q19 -8 37 -8h4q42 0 63 31t27 105l39 525q0 6 7 6z" />
    <glyph glyph-name="uni041C" unicode="&#x41c;" horiz-adv-x="827" 
d="M681 700h47q7 0 7 -7v-686q0 -7 -7 -7h-38q-7 0 -7 7l1 398l3 216h-4l-128 -216l-123 -200q-3 -7 -11 -7h-19q-8 0 -12 7l-123 200l-128 216h-4l3 -216l1 -398q0 -7 -6 -7h-39q-7 0 -7 7v686q0 7 7 7h47q8 0 12 -7l257 -427h2l258 427q3 7 11 7z" />
    <glyph glyph-name="uni041D" unicode="&#x41d;" horiz-adv-x="682" 
d="M545 700h38q7 0 7 -7v-686q0 -7 -7 -7h-38q-6 0 -6 7v331h-396v-331q0 -7 -7 -7h-38q-6 0 -6 7v686q0 7 6 7h38q7 0 7 -7v-309h396v309q0 7 6 7z" />
    <glyph glyph-name="uni041E" unicode="&#x41e;" horiz-adv-x="690" 
d="M338 713h15q55 0 102.5 -18.5t83.5 -54.5t56.5 -93.5t20.5 -130.5v-132q0 -145 -74 -221t-189 -76h-15q-116 0 -190 76t-74 221v132q0 42 7 79.5t20 67.5t31 54.5t40.5 42t49 29.5t55.5 18t61 6zM351 667h-12q-96 0 -154.5 -64t-58.5 -189v-128q0 -63 16 -112t45 -79.5
t67.5 -46t84.5 -15.5h12q96 0 154.5 64t58.5 189v128q0 51 -10.5 92.5t-29.5 71t-45.5 50t-58.5 30t-69 9.5z" />
    <glyph glyph-name="uni041F" unicode="&#x41f;" horiz-adv-x="687" 
d="M98 700h490q7 0 7 -7v-686q0 -7 -7 -7h-38q-6 0 -6 7v647h-401v-647q0 -7 -7 -7h-38q-6 0 -6 7v686q0 7 6 7z" />
    <glyph glyph-name="uni0420" unicode="&#x420;" horiz-adv-x="628" 
d="M98 700h207q125 0 186.5 -52t61.5 -147v-21q0 -98 -62.5 -156t-187.5 -58h-160v-259q0 -7 -7 -7h-38q-6 0 -6 7v686q0 7 6 7zM501 483v12q0 77 -47.5 118t-154.5 41h-156v-343h156q54 0 94 13t63 36.5t34 54t11 68.5z" />
    <glyph glyph-name="uni0421" unicode="&#x421;" horiz-adv-x="589" 
d="M358 713h11q91 0 167 -43q7 -4 7 -12v-32q0 -3 -2.5 -4t-4.5 0q-85 45 -165 45h-7q-48 0 -90.5 -17t-75.5 -49.5t-52.5 -84t-19.5 -115.5v-102q0 -51 12.5 -95t35 -75t52.5 -53t64.5 -32.5t73.5 -10.5h7q81 0 165 45q2 1 4.5 0t2.5 -4v-32q0 -8 -7 -12q-31 -17 -76 -30
t-91 -13h-11q-57 0 -107.5 20t-90 57.5t-63 97t-23.5 133.5v110q0 74 23.5 133.5t63 97t90 57.5t107.5 20z" />
    <glyph glyph-name="uni0422" unicode="&#x422;" horiz-adv-x="598" 
d="M43 700h511q7 0 7 -7v-33q0 -6 -7 -6h-230v-647q0 -7 -6 -7h-38q-7 0 -7 7v647h-230q-6 0 -6 6v33q0 7 6 7z" />
    <glyph glyph-name="uni0423" unicode="&#x423;" horiz-adv-x="622" 
d="M540 700h39q4 0 5.5 -2.5t-0.5 -5.5l-252 -537q-30 -63 -54.5 -97.5t-53.5 -51t-69 -16.5h-5q-33 0 -51 8q-6 2 -6 10v34q0 7 8 4q24 -9 44 -9h3q42 0 69.5 25.5t61.5 99.5l4 7l-246 523q-1 3 0.5 5.5t5.5 2.5h39q8 0 12 -7l147 -313l69 -159h2l69 159l147 313q3 7 12 7z
" />
    <glyph glyph-name="uni0424" unicode="&#x424;" horiz-adv-x="890" 
d="M471 636h81q74 0 133 -30.5t95 -91t36 -141.5v-17q0 -122 -75 -193t-189 -71h-81v-85q0 -7 -7 -7h-38q-7 0 -7 7v85h-81q-114 0 -189 71t-75 193v17q0 121 75 192t189 71h81v57q0 7 7 7h38q7 0 7 -7v-57zM419 590h-80q-94 0 -153.5 -59t-59.5 -162v-10
q0 -103 59.5 -161.5t153.5 -58.5h80v451zM764 359v10q0 103 -59.5 162t-153.5 59h-80v-451h80q94 0 153.5 58.5t59.5 161.5z" />
    <glyph glyph-name="uni0425" unicode="&#x425;" horiz-adv-x="594" 
d="M502 700h42q4 0 5.5 -2.5t-0.5 -5.5l-215 -335l223 -349q1 -3 -0.5 -5.5t-5.5 -2.5h-42q-7 0 -11 6l-150 234l-49 83h-4l-49 -83l-150 -234q-4 -6 -11 -6h-42q-4 0 -5.5 2.5t0.5 5.5l222 349l-215 335q-2 3 -0.5 5.5t5.5 2.5h42q7 0 11 -6l142 -220l50 -84h4l50 84
l143 220q3 6 10 6z" />
    <glyph glyph-name="uni0426" unicode="&#x426;" horiz-adv-x="706" 
d="M586 46h77q6 0 6 -6v-168q0 -6 -6 -6h-38q-7 0 -7 6v128h-520q-6 0 -6 7v686q0 7 6 7h38q7 0 7 -7v-647h392v647q0 7 6 7h38q7 0 7 -7v-647z" />
    <glyph glyph-name="uni0427" unicode="&#x427;" horiz-adv-x="630" 
d="M494 700h38q7 0 7 -7v-686q0 -7 -7 -7h-38q-7 0 -7 7v272q-32 -19 -83 -34t-97 -15h-11q-102 0 -162 61t-60 172v230q0 7 7 7h39q6 0 6 -7v-224q0 -94 47 -143.5t131 -49.5h7q90 0 176 49v368q0 7 7 7z" />
    <glyph glyph-name="uni0428" unicode="&#x428;" horiz-adv-x="986" 
d="M849 700h38q7 0 7 -7v-686q0 -7 -7 -7h-789q-6 0 -6 7v686q0 7 6 7h38q7 0 7 -7v-647h324v647q0 7 7 7h38q7 0 7 -7v-647h324v647q0 7 6 7z" />
    <glyph glyph-name="uni0429" unicode="&#x429;" horiz-adv-x="1014" 
d="M894 46h77q6 0 6 -6v-168q0 -6 -6 -6h-38q-7 0 -7 6v128h-828q-6 0 -6 7v686q0 7 6 7h38q7 0 7 -7v-647h324v647q0 7 7 7h38q7 0 7 -7v-647h324v647q0 7 6 7h38q7 0 7 -7v-647z" />
    <glyph glyph-name="uni042A" unicode="&#x42a;" horiz-adv-x="693" 
d="M214 410h157q248 0 248 -192v-21q0 -93 -62 -145t-187 -52h-201q-7 0 -7 7v647h-119q-6 0 -6 6v33q0 7 6 7h164q7 0 7 -7v-283zM567 204v11q0 49 -18.5 81t-63.5 50.5t-117 18.5h-154v-319h151q107 0 154.5 41t47.5 117z" />
    <glyph glyph-name="uni042B" unicode="&#x42b;" horiz-adv-x="793" 
d="M143 410h158q247 0 247 -192v-21q0 -93 -61.5 -145t-186.5 -52h-202q-6 0 -6 7v686q0 7 6 7h38q7 0 7 -7v-283zM657 700h38q6 0 6 -7v-686q0 -7 -6 -7h-38q-7 0 -7 7v686q0 7 7 7zM496 204v11q0 49 -18.5 81t-63.5 50.5t-117 18.5h-154v-319h152q106 0 153.5 41t47.5 117
z" />
    <glyph glyph-name="uni042C" unicode="&#x42c;" horiz-adv-x="622" 
d="M143 410h158q247 0 247 -192v-21q0 -93 -61.5 -145t-186.5 -52h-202q-6 0 -6 7v686q0 7 6 7h38q7 0 7 -7v-283zM496 204v11q0 49 -18.5 81t-63.5 50.5t-117 18.5h-154v-319h152q106 0 153.5 41t47.5 117z" />
    <glyph glyph-name="uni042D" unicode="&#x42d;" horiz-adv-x="590" 
d="M220 713h11q57 0 107.5 -20t90.5 -57.5t63.5 -97t23.5 -133.5v-110q0 -74 -23.5 -133.5t-63.5 -97t-90.5 -57.5t-107.5 -20h-11q-46 0 -91.5 13t-75.5 30q-7 4 -7 12v32q0 3 2.5 4t4.5 0q84 -45 165 -45h7q49 0 91.5 17t75.5 49.5t52.5 84t19.5 115.5v37h-340q-6 0 -6 7
v33q0 6 6 6h340v19q0 64 -19.5 115.5t-52.5 84t-75.5 49.5t-91.5 17h-7q-80 0 -165 -45q-2 -1 -4.5 0t-2.5 4v32q0 8 7 12q76 43 167 43z" />
    <glyph glyph-name="uni042E" unicode="&#x42e;" horiz-adv-x="893" 
d="M540 713h15q116 0 189.5 -76t73.5 -221v-132q0 -145 -73.5 -221t-189.5 -76h-15q-116 0 -189.5 76t-73.5 221v52h-134v-329q0 -7 -7 -7h-38q-6 0 -6 7v686q0 7 6 7h38q7 0 7 -7v-311h134v34q0 73 20 130.5t56.5 93.5t83.5 54.5t103 18.5zM766 286v128q0 63 -16 112
t-44.5 79.5t-67 46t-84.5 15.5h-13q-96 0 -154 -64t-58 -189v-128q0 -63 16 -112t44.5 -79.5t67 -46t84.5 -15.5h13q96 0 154 64t58 189z" />
    <glyph glyph-name="uni042F" unicode="&#x42f;" horiz-adv-x="619" 
d="M308 700h213q6 0 6 -7v-686q0 -7 -6 -7h-38q-7 0 -7 7v280h-185l-195 -281q-3 -6 -10 -6h-43q-4 0 -5.5 2.5t1.5 5.5l128 185l73 102q-88 16 -131.5 69.5t-43.5 128.5v17q0 94 58.5 142t184.5 48zM476 654h-162q-73 0 -117 -18.5t-62 -51t-18 -82.5v-7q0 -72 48.5 -118
t152.5 -46h158v323z" />
    <glyph glyph-name="uni0430" unicode="&#x430;" horiz-adv-x="489" 
d="M245 513h6q87 0 127.5 -45.5t40.5 -142.5v-318q0 -7 -7 -7h-33q-6 0 -7 6l-1 64q-35 -40 -80.5 -61.5t-88.5 -21.5h-6q-73 0 -116 39t-43 104v5q0 80 56 118.5t173 43.5l103 4v24q0 75 -27.5 110.5t-98.5 35.5h-3q-72 0 -158 -41q-6 -3 -6 4v28q0 9 7 12q32 16 78 27.5
t84 11.5zM369 264l-111 -4q-88 -3 -129.5 -33t-41.5 -88v-5q0 -48 33 -76.5t90 -28.5h4q83 0 155 84v151z" />
    <glyph glyph-name="uni0431" unicode="&#x431;" horiz-adv-x="536" 
d="M278 499h5q91 0 141 -58.5t50 -165.5v-62q0 -107 -56 -166.5t-144 -59.5h-11q-92 0 -146 59t-54 167v272q0 103 53.5 160.5t159.5 57.5h5q100 0 163 46q3 1 5 -0.5t2 -3.5v-30q0 -7 -8 -12q-56 -43 -164 -43h-4q-81 0 -121.5 -44t-40.5 -121v-75q17 20 38 35t42.5 25
t43 14.5t41.5 4.5zM423 211v64q0 89 -38.5 135t-111.5 46h-3q-84 0 -157 -84v-161q0 -88 40 -134.5t111 -46.5h9q68 0 109 47t41 134z" />
    <glyph glyph-name="uni0432" unicode="&#x432;" horiz-adv-x="485" 
d="M78 500h173q86 0 128 -31.5t42 -89.5v-10q0 -35 -18.5 -64.5t-54.5 -45.5q95 -25 95 -118v-10q0 -59 -42.5 -95t-127.5 -36h-195q-6 0 -6 7v486q0 7 6 7zM122 460v-189h122q64 0 96 28t32 67v11q0 83 -126 83h-124zM122 236v-196h146q64 0 94.5 26t30.5 66v12
q0 42 -30 67t-95 25h-146z" />
    <glyph glyph-name="uni0433" unicode="&#x433;" horiz-adv-x="408" 
d="M78 500h296q7 0 7 -7v-29q0 -6 -7 -6h-252v-451q0 -7 -7 -7h-37q-6 0 -6 7v486q0 7 6 7z" />
    <glyph glyph-name="uni0434" unicode="&#x434;" horiz-adv-x="597" 
d="M486 42h78q6 0 6 -6v-164q0 -6 -6 -6h-37q-7 0 -7 6v128h-444v-128q0 -6 -6 -6h-37q-6 0 -6 6v164q0 6 6 6h72q24 21 29 81l28 370q0 7 7 7h310q7 0 7 -7v-451zM208 458l-24 -325q-5 -59 -23 -91h275v416h-228z" />
    <glyph glyph-name="uni0435" unicode="&#x435;" horiz-adv-x="530" 
d="M268 513h11q91 0 140.5 -57.5t49.5 -167.5v-32q0 -8 -8 -8h-348v-53q0 -77 49 -121.5t126 -44.5h4q70 0 154 42q6 3 6 -4v-29q0 -8 -7 -12q-29 -16 -74 -27.5t-83 -11.5h-7q-95 0 -156.5 56.5t-61.5 155.5v77q0 109 57.5 173t147.5 64zM278 472h-8q-70 0 -113 -50.5
t-44 -137.5h309q0 188 -144 188z" />
    <glyph glyph-name="uni0436" unicode="&#x436;" horiz-adv-x="716" 
d="M508 259l180 -248q2 -4 0.5 -7.5t-5.5 -3.5h-40q-7 0 -10 5l-169 231h-81v-229q0 -7 -7 -7h-36q-7 0 -7 7v229h-81l-169 -231q-3 -5 -9 -5h-41q-4 0 -5.5 3.5t0.5 7.5l180 248l-159 230q-2 4 -0.5 7.5t6.5 3.5h37q6 0 10 -5l150 -216h81v214q0 7 7 7h36q7 0 7 -7v-214h81
l150 216q4 5 10 5h38q4 0 5.5 -3.5t-0.5 -7.5z" />
    <glyph glyph-name="uni0437" unicode="&#x437;" horiz-adv-x="433" 
d="M191 513h10q42 0 75 -10t53.5 -28t31.5 -42t11 -52v-10q0 -24 -8 -45t-25.5 -39t-41.5 -29q47 -13 70.5 -44.5t23.5 -75.5v-9q0 -61 -49.5 -101.5t-135.5 -40.5h-11q-36 0 -78.5 11t-67.5 27q-7 3 -7 11v29q0 7 6 4q74 -41 145 -41h8q66 0 103 30.5t37 71.5v11
q0 42 -30.5 68t-95.5 26h-82q-6 0 -6 6v25q0 7 6 7h61q64 0 96 27.5t32 66.5v11q0 40 -31.5 67t-93.5 27h-8q-63 0 -137 -41q-7 -3 -7 4v29q0 8 7 11q25 16 65 27t74 11z" />
    <glyph glyph-name="uni0438" unicode="&#x438;" horiz-adv-x="539" 
d="M412 500h48q7 0 7 -7v-486q0 -7 -7 -7h-36q-7 0 -7 7v241l1 186h-3l-277 -427q-4 -7 -11 -7h-49q-6 0 -6 7v486q0 7 6 7h37q7 0 7 -7v-217l-1 -210h3l276 427q5 7 12 7z" />
    <glyph glyph-name="uni0439" unicode="&#x439;" horiz-adv-x="539" 
d="M397 664q4 2 7 0.5t3 -5.5v-24q0 -7 -6 -11q-11 -9 -27.5 -17.5t-44 -16t-55 -7.5t-54.5 7.5t-43.5 16t-28.5 17.5q-5 4 -5 11v24q0 4 3 5.5t6 -0.5q20 -12 33 -19t38.5 -14t51.5 -7t51.5 7t38.5 14t32 19zM412 500h48q7 0 7 -7v-486q0 -7 -7 -7h-36q-7 0 -7 7v241l1 186
h-3l-277 -427q-4 -7 -11 -7h-49q-6 0 -6 7v486q0 7 6 7h37q7 0 7 -7v-217l-1 -210h3l276 427q5 7 12 7z" />
    <glyph glyph-name="uni043A" unicode="&#x43a;" horiz-adv-x="475" 
d="M267 259l179 -248q3 -4 1.5 -7.5t-6.5 -3.5h-40q-7 0 -10 5l-169 232h-98v-230q0 -7 -7 -7h-37q-6 0 -6 7v486q0 7 6 7h37q7 0 7 -7v-214h99l149 216q4 5 10 5h38q4 0 6 -3.5t-1 -7.5z" />
    <glyph glyph-name="uni043B" unicode="&#x43b;" horiz-adv-x="557" 
d="M168 500h311q6 0 6 -7v-486q0 -7 -6 -7h-37q-6 0 -6 7v451h-228l-26 -339q-11 -132 -99 -132h-6q-23 0 -44 10q-6 3 -6 10v25q0 2 1 3.5t2.5 2.5t4.5 -1q18 -7 35 -7h4q53 0 59 91l29 372q0 7 6 7z" />
    <glyph glyph-name="uni043C" unicode="&#x43c;" horiz-adv-x="625" 
d="M495 500h51q7 0 7 -7v-486q0 -7 -7 -7h-36q-7 0 -7 7v187l5 249h-5l-167 -279q-4 -8 -13 -8h-22q-8 0 -12 8l-168 279h-4l5 -249v-187q0 -7 -7 -7h-37q-6 0 -6 7v486q0 7 6 7h51q7 0 12 -7l170 -286h3l170 286q4 7 11 7z" />
    <glyph glyph-name="uni043D" unicode="&#x43d;" horiz-adv-x="536" 
d="M421 500h36q7 0 7 -7v-486q0 -7 -7 -7h-36q-7 0 -7 7v227h-292v-227q0 -7 -7 -7h-37q-6 0 -6 7v486q0 7 6 7h37q7 0 7 -7v-216h292v216q0 7 7 7z" />
    <glyph glyph-name="uni043E" unicode="&#x43e;" horiz-adv-x="559" 
d="M274 513h11q93 0 152 -59.5t59 -166.5v-74q0 -107 -59 -166.5t-152 -59.5h-11q-93 0 -152 59.5t-59 166.5v74q0 107 59 166.5t152 59.5zM284 470h-9q-72 0 -117 -47.5t-45 -133.5v-78q0 -86 45 -133.5t117 -47.5h9q72 0 117 47.5t45 133.5v78q0 86 -45 133.5t-117 47.5z
" />
    <glyph glyph-name="uni043F" unicode="&#x43f;" horiz-adv-x="539" 
d="M78 500h382q7 0 7 -7v-486q0 -7 -7 -7h-36q-7 0 -7 7v451h-295v-451q0 -7 -7 -7h-37q-6 0 -6 7v486q0 7 6 7z" />
    <glyph glyph-name="uni0440" unicode="&#x440;" horiz-adv-x="547" 
d="M288 513h6q91 0 140.5 -58.5t49.5 -165.5v-76q0 -109 -51.5 -167.5t-142.5 -58.5h-5q-40 0 -84 19.5t-77 57.5v-224q0 -7 -7 -7h-37q-6 0 -6 7v653q0 7 6 7h34q6 0 6 -6l2 -62q34 39 79 60t87 21zM283 470h-2q-84 0 -157 -84v-272q73 -84 157 -84h2q73 0 112 46.5
t39 134.5v78q0 88 -39 134.5t-112 46.5z" />
    <glyph glyph-name="uni0441" unicode="&#x441;" horiz-adv-x="497" 
d="M281 513h11q72 0 137 -39q7 -4 7 -12v-29q0 -7 -7 -4q-73 41 -133 41h-9q-75 0 -124.5 -49t-49.5 -136v-70q0 -87 49.5 -136t124.5 -49h9q60 0 133 41q7 3 7 -4v-29q0 -8 -7 -12q-65 -39 -137 -39h-11q-60 0 -109 25t-79 78t-30 125v70q0 108 62.5 168t155.5 60z" />
    <glyph glyph-name="uni0442" unicode="&#x442;" horiz-adv-x="464" 
d="M33 500h398q6 0 6 -7v-29q0 -6 -6 -6h-174v-451q0 -7 -7 -7h-36q-7 0 -7 7v451h-174q-6 0 -6 6v29q0 7 6 7z" />
    <glyph glyph-name="uni0443" unicode="&#x443;" horiz-adv-x="494" 
d="M426 500h36q8 0 5 -8l-205 -539q-13 -35 -25.5 -58t-28.5 -41t-37 -26t-48 -8h-6q-34 0 -66 14q-7 3 -7 11v26q0 3 2.5 5t5.5 1q35 -15 62 -15h4q31 0 52 20t40 70l19 48h-7q-8 0 -11 8l-184 484q-2 8 6 8h35q8 0 12 -8l104 -274l62 -174h3l61 174l105 274q3 8 11 8z" />
    <glyph glyph-name="uni0444" unicode="&#x444;" horiz-adv-x="742" 
d="M396 513h62q94 0 157.5 -60t63.5 -166v-74q0 -106 -63.5 -166t-157.5 -60h-62v-147q0 -7 -7 -7h-36q-7 0 -7 7v147h-62q-61 0 -110.5 25t-80 77.5t-30.5 123.5v74q0 106 63.5 166t157.5 60h62v217q0 7 7 7h36q7 0 7 -7v-217zM346 470h-61q-74 0 -123 -48t-49 -133v-78
q0 -85 49 -133t123 -48h61v440zM629 211v78q0 85 -49 133t-123 48h-61v-440h61q74 0 123 48t49 133z" />
    <glyph glyph-name="uni0445" unicode="&#x445;" horiz-adv-x="451" 
d="M372 500h38q4 0 5.5 -3.5t-0.5 -7.5l-155 -232l163 -246q3 -4 1 -7.5t-6 -3.5h-38q-7 0 -10 5l-114 170l-29 49h-3l-29 -49l-114 -170q-3 -5 -9 -5h-39q-4 0 -5.5 3.5t0.5 7.5l164 246l-156 232q-2 4 -0.5 7.5t5.5 3.5h37q8 0 10 -5l107 -158l29 -48h3l29 48l106 158
q4 5 10 5z" />
    <glyph glyph-name="uni0446" unicode="&#x446;" horiz-adv-x="577" 
d="M466 42h78q6 0 6 -6v-164q0 -6 -6 -6h-37q-6 0 -6 6v128h-423q-6 0 -6 7v486q0 7 6 7h37q7 0 7 -7v-451h294v451q0 7 7 7h36q7 0 7 -7v-451z" />
    <glyph glyph-name="uni0447" unicode="&#x447;" horiz-adv-x="521" 
d="M408 500h37q7 0 7 -7v-486q0 -7 -7 -7h-37q-6 0 -6 7v183q-76 -51 -161 -51h-6q-165 0 -165 186v168q0 7 6 7h37q7 0 7 -7v-165q0 -72 29 -109t96 -37h3q80 0 154 55v256q0 7 6 7z" />
    <glyph glyph-name="uni0448" unicode="&#x448;" horiz-adv-x="804" 
d="M689 500h37q6 0 6 -7v-486q0 -7 -6 -7h-648q-6 0 -6 7v486q0 7 6 7h37q7 0 7 -7v-451h255v451q0 7 7 7h36q7 0 7 -7v-451h256v451q0 7 6 7z" />
    <glyph glyph-name="uni0449" unicode="&#x449;" horiz-adv-x="844" 
d="M732 42h78q7 0 7 -6v-164q0 -6 -7 -6h-36q-7 0 -7 6v128h-689q-6 0 -6 7v486q0 7 6 7h37q7 0 7 -7v-451h255v451q0 7 7 7h36q7 0 7 -7v-451h256v451q0 7 6 7h37q6 0 6 -7v-451z" />
    <glyph glyph-name="uni044A" unicode="&#x44a;" horiz-adv-x="536" 
d="M179 307h146q85 0 127.5 -38t42.5 -105v-10q0 -68 -43 -111t-127 -43h-189q-6 0 -6 7v451h-97q-6 0 -6 6v29q0 7 6 7h140q6 0 6 -7v-186zM179 42h138q65 0 96 31.5t31 79.5v11q0 47 -30.5 74.5t-96.5 27.5h-138v-224z" />
    <glyph glyph-name="uni044B" unicode="&#x44b;" horiz-adv-x="646" 
d="M122 307h145q85 0 127.5 -38t42.5 -105v-10q0 -68 -43 -111t-127 -43h-189q-6 0 -6 7v486q0 7 6 7h37q7 0 7 -7v-186zM531 500h36q7 0 7 -7v-486q0 -7 -7 -7h-36q-7 0 -7 7v486q0 7 7 7zM386 153v11q0 47 -30.5 74.5t-96.5 27.5h-137v-224h137q65 0 96 31.5t31 79.5z" />
    <glyph glyph-name="uni044C" unicode="&#x44c;" horiz-adv-x="479" 
d="M122 307h145q86 0 128 -38t42 -105v-10q0 -68 -43 -111t-127 -43h-189q-6 0 -6 7v486q0 7 6 7h37q7 0 7 -7v-186zM122 42h138q64 0 95 31.5t31 79.5v11q0 47 -30.5 74.5t-95.5 27.5h-138v-224z" />
    <glyph glyph-name="uni044D" unicode="&#x44d;" horiz-adv-x="497" 
d="M204 513h11q94 0 156.5 -60t62.5 -168v-70q0 -108 -62.5 -168t-156.5 -60h-11q-71 0 -136 39q-7 4 -7 12v29q0 7 6 4q73 -41 134 -41h8q49 0 88 20.5t63 63t24 101.5v21h-245q-7 0 -7 7v24q0 7 7 7h245v11q0 87 -50 136t-125 49h-8q-61 0 -134 -41q-6 -3 -6 4v29
q0 8 7 12q65 39 136 39z" />
    <glyph glyph-name="uni044E" unicode="&#x44e;" horiz-adv-x="736" 
d="M451 513h11q93 0 152.5 -59.5t59.5 -166.5v-74q0 -72 -28.5 -123.5t-75.5 -77t-108 -25.5h-11q-93 0 -152 59.5t-59 166.5v21h-118v-227q0 -7 -7 -7h-37q-6 0 -6 7v486q0 7 6 7h37q7 0 7 -7v-216h118v10q0 107 59 166.5t152 59.5zM623 211v78q0 86 -44.5 133.5
t-117.5 47.5h-9q-72 0 -117 -47.5t-45 -133.5v-78q0 -86 45 -133.5t117 -47.5h9q73 0 117.5 47.5t44.5 133.5z" />
    <glyph glyph-name="uni044F" unicode="&#x44f;" horiz-adv-x="502" 
d="M233 500h191q6 0 6 -7v-486q0 -7 -6 -7h-37q-7 0 -7 7v194h-144l-139 -194q-4 -7 -12 -7h-36q-5 0 -6.5 4t0.5 8l112 157l30 39q-60 10 -91 47.5t-31 90.5v9q0 67 42 106t128 39zM380 458h-140q-66 0 -96.5 -27.5t-30.5 -74.5v-11q0 -45 31 -75t96 -30h140v218z" />
    <glyph glyph-name="uni0451" unicode="&#x451;" horiz-adv-x="530" 
d="M172 664h47q8 0 8 -7v-56q0 -8 -8 -8h-47q-7 0 -7 8v56q0 7 7 7zM316 664h47q8 0 8 -7v-56q0 -8 -8 -8h-47q-7 0 -7 8v56q0 7 7 7zM268 513h11q91 0 140.5 -57.5t49.5 -167.5v-32q0 -8 -8 -8h-348v-53q0 -77 49 -121.5t126 -44.5h4q70 0 154 42q6 3 6 -4v-29q0 -8 -7 -12
q-29 -16 -74 -27.5t-83 -11.5h-7q-95 0 -156.5 56.5t-61.5 155.5v77q0 109 57.5 173t147.5 64zM278 472h-8q-70 0 -113 -50.5t-44 -137.5h309q0 188 -144 188z" />
    <glyph glyph-name="uni0454" unicode="&#x454;" horiz-adv-x="497" 
d="M296 470h-9q-75 0 -124.5 -49t-49.5 -136v-11h245q6 0 6 -7v-24q0 -7 -6 -7h-245v-21q0 -87 49.5 -136t124.5 -49h9q60 0 133 41q7 3 7 -4v-29q0 -8 -7 -12q-65 -39 -137 -39h-11q-60 0 -109 25t-79 78t-30 125v70q0 108 62.5 168t155.5 60h11q72 0 137 -39q7 -4 7 -12
v-29q0 -7 -7 -4q-73 41 -133 41z" />
    <glyph glyph-name="uni0456" unicode="&#x456;" horiz-adv-x="207" 
d="M81 662h47q7 0 7 -7v-54q0 -8 -7 -8h-47q-7 0 -7 8v54q0 7 7 7zM86 500h37q6 0 6 -7v-486q0 -7 -6 -7h-37q-6 0 -6 7v486q0 7 6 7z" />
    <glyph glyph-name="uni0457" unicode="&#x457;" horiz-adv-x="195" 
d="M3 664h48q7 0 7 -7v-56q0 -8 -7 -8h-48q-7 0 -7 8v56q0 7 7 7zM147 664h48q7 0 7 -7v-56q0 -8 -7 -8h-48q-7 0 -7 8v56q0 7 7 7zM80 500h37q7 0 7 -7v-486q0 -7 -7 -7h-37q-6 0 -6 7v486q0 7 6 7z" />
    <glyph glyph-name="uni045E" unicode="&#x45e;" horiz-adv-x="494" 
d="M370 664q4 2 6.5 0.5t2.5 -5.5v-24q0 -7 -5 -11q-19 -15 -53 -28t-74 -13t-74 13t-52 28q-6 4 -6 11v24q0 4 3 5.5t7 -0.5l33 -19q12 -7 37.5 -14t51.5 -7q20 0 38.5 3t34.5 10.5t25.5 12.5t24.5 14zM426 500h36q8 0 5 -8l-205 -539q-13 -35 -25.5 -58t-28.5 -41t-37 -26
t-48 -8h-6q-34 0 -66 14q-7 3 -7 11v26q0 3 2.5 5t5.5 1q35 -15 62 -15h4q31 0 52 20t40 70l19 48h-7q-8 0 -11 8l-184 484q-2 8 6 8h35q8 0 12 -8l104 -274l62 -174h3l61 174l105 274q3 8 11 8z" />
    <glyph glyph-name="uni0490" unicode="&#x490;" horiz-adv-x="528" 
d="M453 771h32q7 0 7 -7v-104q0 -6 -7 -6h-342v-647q0 -7 -7 -7h-38q-6 0 -6 7v686q0 7 6 7h348v64q0 7 7 7z" />
    <glyph glyph-name="uni0491" unicode="&#x491;" horiz-adv-x="408" 
d="M346 571h28q7 0 7 -7v-100q0 -6 -7 -6h-252v-451q0 -7 -7 -7h-37q-6 0 -6 7v486q0 7 6 7h261v64q0 7 7 7z" />
    <glyph glyph-name="Wgrave" unicode="&#x1e80;" horiz-adv-x="972" 
d="M429 946l72 -157q1 -3 0 -5.5t-4 -2.5h-24q-7 0 -11 7l-82 157q-1 3 0.5 6t5.5 3h30q9 0 13 -8zM893 700h37q7 0 5 -7l-197 -685q-3 -8 -12 -8h-50q-10 0 -13 8l-75 264l-100 358h-4l-99 -358l-76 -264q-3 -8 -13 -8h-50q-9 0 -12 8l-197 685q-2 7 5 7h37q8 0 11 -8
l80 -283l101 -358h3l101 358l80 283q3 8 11 8h40q8 0 12 -8l80 -283l100 -358h3l101 358l80 283q3 8 11 8z" />
    <glyph glyph-name="wgrave" unicode="&#x1e81;" horiz-adv-x="747" 
d="M313 746l72 -157q2 -3 0.5 -5.5t-4.5 -2.5h-23q-7 0 -11 7l-82 157q-2 3 0 6t6 3h30q8 0 12 -8zM679 500h35q8 0 6 -8l-147 -484q-4 -8 -12 -8h-45q-8 0 -11 8l-45 147l-85 291h-4l-84 -291l-45 -147q-3 -8 -11 -8h-45q-10 0 -12 8l-147 484q-2 8 6 8h35q8 0 11 -8
l64 -212l66 -233h3l67 233l62 212q2 8 12 8h41q9 0 12 -8l63 -212l67 -233h2l66 233l64 212q3 8 11 8z" />
    <glyph glyph-name="Wacute" unicode="&#x1e82;" horiz-adv-x="972" 
d="M471 789l72 157q3 8 12 8h30q4 0 6 -3t0 -6l-82 -157q-4 -7 -11 -7h-23q-3 0 -4.5 2.5t0.5 5.5zM893 700h37q7 0 5 -7l-197 -685q-3 -8 -12 -8h-50q-10 0 -13 8l-75 264l-100 358h-4l-99 -358l-76 -264q-3 -8 -13 -8h-50q-9 0 -12 8l-197 685q-2 7 5 7h37q8 0 11 -9
l80 -282l101 -358h3l101 358l80 282q3 9 11 9h40q8 0 12 -9l80 -282l100 -358h4l100 358l80 282q3 9 11 9z" />
    <glyph glyph-name="wacute" unicode="&#x1e83;" horiz-adv-x="747" 
d="M358 589l72 157q4 8 13 8h30q4 0 5.5 -3t0.5 -6l-82 -157q-4 -7 -11 -7h-24q-3 0 -4 2.5t0 5.5zM679 500h35q8 0 6 -8l-147 -484q-4 -8 -12 -8h-45q-8 0 -11 8l-45 147l-85 291h-4l-84 -291l-45 -147q-3 -8 -11 -8h-45q-10 0 -12 8l-147 484q-2 8 6 8h35q8 0 11 -8
l64 -212l66 -233h3l67 233l62 212q2 8 12 8h41q9 0 12 -8l63 -212l67 -233h2l66 233l64 212q3 8 11 8z" />
    <glyph glyph-name="Wdieresis" unicode="&#x1e84;" horiz-adv-x="972" 
d="M391 864h47q7 0 7 -7v-56q0 -8 -7 -8h-47q-8 0 -8 8v56q0 7 8 7zM535 864h47q7 0 7 -7v-56q0 -8 -7 -8h-47q-8 0 -8 8v56q0 7 8 7zM893 700h37q7 0 5 -7l-197 -685q-3 -8 -12 -8h-50q-10 0 -13 8l-75 264l-100 358h-4l-99 -358l-76 -264q-3 -8 -13 -8h-50q-9 0 -12 8
l-197 685q-2 7 5 7h37q8 0 11 -8l80 -283l101 -358h3l101 358l80 283q3 8 11 8h40q8 0 12 -8l80 -283l100 -358h3l101 358l80 283q3 8 11 8z" />
    <glyph glyph-name="wdieresis" unicode="&#x1e85;" horiz-adv-x="747" 
d="M278 664h47q7 0 7 -7v-56q0 -8 -7 -8h-47q-8 0 -8 8v56q0 7 8 7zM422 664h47q7 0 7 -7v-56q0 -8 -7 -8h-47q-8 0 -8 8v56q0 7 8 7zM679 500h35q8 0 6 -8l-147 -484q-4 -8 -12 -8h-45q-8 0 -11 8l-45 147l-85 291h-4l-84 -291l-45 -147q-3 -8 -11 -8h-45q-10 0 -12 8
l-147 484q-2 8 6 8h35q8 0 11 -8l64 -212l66 -233h3l67 233l62 212q2 8 12 8h41q9 0 12 -8l63 -212l67 -233h2l66 233l64 212q3 8 11 8z" />
    <glyph glyph-name="Ygrave" unicode="&#x1ef2;" horiz-adv-x="616" 
d="M253 946l72 -157q2 -3 0.5 -5.5t-4.5 -2.5h-23q-8 0 -12 7l-81 157q-2 3 0 6t6 3h30q8 0 12 -8zM534 700h40q2 0 3.5 -1.5t2 -3t-0.5 -3.5l-246 -452v-233q0 -7 -6 -7h-38q-6 0 -6 7v233l-246 452v4q0 1 1.5 2.5t4.5 1.5h39q8 0 12 -7l152 -278l61 -120h2l61 120l152 278
q4 7 12 7z" />
    <glyph glyph-name="ygrave" unicode="&#x1ef3;" horiz-adv-x="494" 
d="M195 746l72 -157q1 -3 0 -5.5t-5 -2.5h-23q-7 0 -11 7l-82 157q-2 3 0 6t6 3h30q9 0 13 -8zM426 500h36q8 0 5 -8l-205 -539q-27 -70 -57 -101.5t-82 -31.5h-6q-34 0 -66 14q-7 3 -7 11v26q0 3 2.5 5t5.5 1q35 -15 62 -15h4q21 0 36.5 8.5t29 28t26.5 53.5l19 48h-7
q-8 0 -11 8l-184 484q-2 8 6 8h35q8 0 12 -8l104 -274l62 -174h3l61 174l105 274q3 8 11 8z" />
    <glyph glyph-name="uni2009" unicode="&#x2009;" horiz-adv-x="518" 
 />
    <glyph glyph-name="endash" unicode="&#x2013;" horiz-adv-x="537" 
d="M43 341h451q7 0 7 -6v-29q0 -7 -7 -7h-451q-6 0 -6 7v29q0 6 6 6z" />
    <glyph glyph-name="emdash" unicode="&#x2014;" horiz-adv-x="611" 
d="M43 341h525q7 0 7 -6v-29q0 -7 -7 -7h-525q-6 0 -6 7v29q0 6 6 6z" />
    <glyph glyph-name="quoteleft" unicode="&#x2018;" horiz-adv-x="150" 
d="M98 462h-54q-7 0 -7 8v49q0 7 2 13l35 162q1 6 8 6h26q6 0 5 -10l-35 -157h20q7 0 7 -7v-56q0 -8 -7 -8z" />
    <glyph glyph-name="quoteright" unicode="&#x2019;" horiz-adv-x="150" 
d="M52 700h54q7 0 7 -7v-50q0 -7 -1 -13l-36 -162q-1 -6 -8 -6h-26q-6 0 -5 10l35 157h-20q-7 0 -7 7v57q0 7 7 7z" />
    <glyph glyph-name="quotesinglbase" unicode="&#x201a;" horiz-adv-x="150" 
d="M52 71h54q7 0 7 -8v-49q0 -7 -1 -13l-36 -162q-1 -6 -8 -6h-26q-6 0 -5 10l35 157h-20q-7 0 -7 7v56q0 8 7 8z" />
    <glyph glyph-name="quotedblleft" unicode="&#x201c;" horiz-adv-x="299" 
d="M98 462h-54q-7 0 -7 8v49q0 7 2 13l35 162q1 6 8 6h26q6 0 5 -10l-35 -157h20q7 0 7 -7v-56q0 -8 -7 -8zM247 462h-54q-8 0 -8 8v49q0 7 2 13l36 162q1 6 8 6h25q7 0 6 -10l-35 -157h20q7 0 7 -7v-56q0 -8 -7 -8z" />
    <glyph glyph-name="quotedblright" unicode="&#x201d;" horiz-adv-x="299" 
d="M52 700h54q7 0 7 -7v-50q0 -7 -1 -13l-36 -162q-1 -6 -8 -6h-26q-6 0 -5 10l35 157h-20q-7 0 -7 7v57q0 7 7 7zM201 700h54q7 0 7 -7v-50q0 -7 -2 -13l-35 -162q-1 -6 -8 -6h-26q-6 0 -5 10l34 157h-19q-8 0 -8 7v57q0 7 8 7z" />
    <glyph glyph-name="quotedblbase" unicode="&#x201e;" horiz-adv-x="299" 
d="M52 71h54q7 0 7 -8v-49q0 -7 -1 -13l-36 -162q-1 -6 -8 -6h-26q-6 0 -5 10l35 157h-20q-7 0 -7 7v56q0 8 7 8zM201 71h54q7 0 7 -8v-49q0 -7 -2 -13l-35 -162q-1 -6 -8 -6h-26q-6 0 -5 10l34 157h-19q-8 0 -8 7v56q0 8 8 8z" />
    <glyph glyph-name="dagger" unicode="&#x2020;" horiz-adv-x="467" 
d="M259 500h164q7 0 7 -7v-33q0 -6 -7 -6h-164v-521q0 -7 -7 -7h-38q-6 0 -6 7v521h-165q-6 0 -6 6v33q0 7 6 7h165v193q0 7 6 7h38q7 0 7 -7v-193z" />
    <glyph glyph-name="daggerdbl" unicode="&#x2021;" horiz-adv-x="467" 
d="M259 189h164q7 0 7 -7v-33q0 -6 -7 -6h-164v-210q0 -7 -7 -7h-38q-6 0 -6 7v210h-165q-6 0 -6 6v33q0 7 6 7h165v265h-165q-6 0 -6 6v33q0 7 6 7h165v193q0 7 6 7h38q7 0 7 -7v-193h164q7 0 7 -7v-33q0 -6 -7 -6h-164v-265z" />
    <glyph glyph-name="bullet" unicode="&#x2022;" horiz-adv-x="205" 
d="M102.5 352q27.5 0 46.5 -19.5t19 -46.5t-19 -46.5t-46.5 -19.5t-46.5 19.5t-19 46.5t19 46.5t46.5 19.5z" />
    <glyph glyph-name="ellipsis" unicode="&#x2026;" horiz-adv-x="625" 
d="M44 71h52q7 0 7 -8v-56q0 -7 -7 -7h-52q-7 0 -7 7v56q0 8 7 8zM287 71h51q8 0 8 -8v-56q0 -7 -8 -7h-51q-8 0 -8 7v56q0 8 8 8zM529 71h52q7 0 7 -8v-56q0 -7 -7 -7h-52q-7 0 -7 7v56q0 8 7 8z" />
    <glyph glyph-name="perthousand" unicode="&#x2030;" horiz-adv-x="1368" 
d="M213 310h-12q-76 0 -120 50.5t-44 134.5v33q0 84 44 134.5t120 50.5h12q76 0 120.5 -50.5t44.5 -134.5v-33q0 -84 -44.5 -134.5t-120.5 -50.5zM326 0h-24q-11 0 -7 10l323 681q5 9 14 9h23q11 0 7 -10l-323 -681q-5 -9 -13 -9zM203 350h8q59 0 91 39.5t32 105.5v33
q0 66 -32 105.5t-91 39.5h-8q-58 0 -90 -39.5t-32 -105.5v-33q0 -66 32 -105.5t90 -39.5zM744 390h12q76 0 120 -50.5t44 -134.5v-33q0 -84 -44 -134.5t-120 -50.5h-12q-38 0 -69 13.5t-52 37.5t-32.5 58.5t-11.5 75.5v33q0 41 11.5 75.5t32.5 58.5t52 37.5t69 13.5z
M1154 390h13q75 0 119.5 -50.5t44.5 -134.5v-33q0 -84 -44.5 -134.5t-119.5 -50.5h-13q-76 0 -120 50.5t-44 134.5v33q0 84 44 134.5t120 50.5zM754 350h-8q-59 0 -91 -39.5t-32 -105.5v-33q0 -66 32 -105.5t91 -39.5h8q39 0 67 18.5t42 51t14 75.5v33q0 66 -32.5 105.5
t-90.5 39.5zM1164 350h-8q-58 0 -90 -39.5t-32 -105.5v-33q0 -66 32 -105.5t90 -39.5h8q59 0 91 39.5t32 105.5v33q0 66 -32 105.5t-91 39.5z" />
    <glyph glyph-name="guilsinglleft" unicode="&#x2039;" horiz-adv-x="238" 
d="M82 256l118 -149q2 -3 1 -5t-4 -2h-31q-5 0 -8 4l-117 137q-4 4 -4 10v10q0 6 4 10l117 137q3 4 8 4h31q3 0 4 -2t-1 -5z" />
    <glyph glyph-name="guilsinglright" unicode="&#x203a;" horiz-adv-x="238" 
d="M157 256l-119 149q-2 3 -1 5t4 2h31q5 0 9 -4l117 -137q4 -4 4 -10v-10q0 -6 -4 -10l-117 -137q-4 -4 -9 -4h-31q-3 0 -4 2t1 5z" />
    <glyph glyph-name="fraction" unicode="&#x2044;" horiz-adv-x="169" 
d="M237 700h24q11 0 7 -10l-323 -681q-5 -9 -14 -9h-23q-12 0 -7 10l323 681q5 9 13 9z" />
    <glyph glyph-name="Euro" unicode="&#x20ac;" horiz-adv-x="665" 
d="M447 667h-7q-93 0 -159 -59.5t-77 -168.5h276q6 0 6 -7v-23q0 -7 -6 -7h-278v-1v-102v-1h278q6 0 6 -7v-23q0 -7 -6 -7h-276q11 -109 77 -168.5t159 -59.5h7q81 0 165 45q3 1 5 0t2 -4v-32q0 -8 -7 -12q-30 -17 -75.5 -30t-91.5 -13h-11q-72 0 -132.5 30t-102 93.5
t-47.5 150.5h-109q-6 0 -6 7v23q0 7 6 7h107v104h-107q-6 0 -6 7v23q0 7 6 7h109q7 87 48.5 150.5t101.5 93.5t132 30h11q91 0 167 -43q7 -4 7 -12v-32q0 -3 -2 -4t-5 0q-85 45 -165 45z" />
    <glyph glyph-name="uni2116" unicode="&#x2116;" horiz-adv-x="1043" 
d="M830 713h12q76 0 120.5 -50.5t44.5 -134.5v-33q0 -84 -44.5 -134.5t-120.5 -50.5h-12q-76 0 -120.5 50.5t-44.5 134.5v33q0 84 44.5 134.5t120.5 50.5zM549 700h38q7 0 7 -7v-686q0 -7 -7 -7h-46q-7 0 -10 5l-392 616h-3l2 -254v-360q0 -7 -6 -7h-38q-7 0 -7 7v686
q0 7 7 7h46q7 0 10 -5l392 -616h3l-2 309v305q0 7 6 7zM840 673h-8q-59 0 -91 -39.5t-32 -105.5v-33q0 -66 32 -105.5t91 -39.5h8q58 0 90.5 39.5t32.5 105.5v33q0 66 -32.5 105.5t-90.5 39.5zM682 249h308q7 0 7 -6v-33q0 -7 -7 -7h-308q-7 0 -7 7v33q0 6 7 6z" />
    <glyph glyph-name="trademark" unicode="&#x2122;" horiz-adv-x="791" 
d="M41 740h294q3 0 3 -4v-28q0 -3 -3 -3h-129v-351q0 -4 -3 -4h-30q-4 0 -4 4v351h-128q-4 0 -4 3v28q0 4 4 4zM704 740h46q4 0 4 -4v-382q0 -4 -4 -4h-30q-4 0 -4 4v238l3 104h-3l-62 -105l-65 -107q-3 -5 -8 -5h-14q-5 0 -9 5l-65 107l-61 105h-3l3 -105v-237q0 -4 -4 -4
h-30q-4 0 -4 4v382q0 4 4 4h46q5 0 6 -4l122 -208h3l122 208q2 4 7 4z" />
    <glyph glyph-name="estimated" unicode="&#x212e;" horiz-adv-x="752" 
d="M376 667q98 0 176 -46t120.5 -123.5t42.5 -170.5h-576v-208q44 -49 104.5 -76.5t132.5 -27.5q135 0 224 73q3 2 6.5 1t3.5 -5v-15q0 -8 -7 -13q-91 -69 -227 -69q-98 0 -176 46t-120.5 123.5t-42.5 170.5t42.5 170.5t120.5 123.5t176 46zM376 639q-72 0 -132.5 -27
t-104.5 -76v-182h473v182q-28 32 -64 55t-80 35.5t-92 12.5z" />
    <glyph glyph-name="oneeighth" unicode="&#x215b;" horiz-adv-x="820" 
d="M174 363h78q7 0 7 -7v-26q0 -7 -7 -7h-209q-6 0 -6 7v26q0 7 6 7h88v291l-88 -36q-6 -2 -6 5v26q0 7 6 10l96 39q6 2 13 2h15q7 0 7 -7v-330zM533 700h24q11 0 7 -10l-324 -681q-4 -9 -13 -9h-24q-11 0 -6 10l323 681q4 9 13 9zM716 196q30 -13 48.5 -37.5t18.5 -56.5
v-10q0 -46 -38.5 -75.5t-96.5 -29.5h-12q-58 0 -96.5 29.5t-38.5 75.5v10q0 32 19 56.5t49 37.5q-58 28 -58 84v7q0 46 37.5 74.5t90.5 28.5h6q53 0 91 -28.5t38 -74.5v-7q0 -56 -58 -84zM552 280v-2q0 -24 22 -45.5t62 -21.5h12q41 0 63 21.5t22 45.5v2q0 34 -26 54t-63 20
h-4q-36 0 -62 -20t-26 -54zM741 99v4q0 26 -22 49t-64 23h-26q-29 0 -49.5 -12.5t-28.5 -28t-8 -31.5v-4q0 -34 27 -55t69 -21h6q42 0 69 21t27 55z" />
    <glyph glyph-name="threeeighths" unicode="&#x215c;" horiz-adv-x="855" 
d="M152 713h5q54 0 91 -28.5t37 -75.5v-7q0 -55 -55 -84q29 -11 46.5 -34.5t17.5 -55.5v-10q0 -47 -39 -77.5t-99 -30.5h-7q-52 0 -105 26q-7 3 -7 11v25q0 7 6 4q61 -28 104 -28h6q42 0 69.5 21.5t27.5 55.5v5q0 27 -20.5 48t-62.5 21h-62q-6 0 -6 7v21q0 6 6 6h54
q41 0 62 21.5t21 45.5v2q0 35 -25.5 54.5t-62.5 19.5h-3q-41 0 -102 -29q-6 -2 -6 5v24q0 8 7 11q53 26 102 26zM568 700h24q11 0 6 -10l-323 -681q-4 -9 -13 -9h-24q-11 0 -7 10l324 681q4 9 13 9zM751 196q30 -12 48.5 -37t18.5 -57v-10q0 -46 -38.5 -75.5t-96.5 -29.5
h-12q-58 0 -96.5 29.5t-38.5 75.5v10q0 32 19 56.5t49 37.5q-58 28 -58 84v7q0 23 10.5 43t28 33t41 20t48.5 7h6q53 0 91 -28.5t38 -74.5v-7q0 -56 -58 -84zM586 280v-2q0 -24 22.5 -45.5t62.5 -21.5h12q40 0 62.5 21.5t22.5 45.5v2q0 34 -26 54t-63 20h-4q-17 0 -33 -5
t-28.5 -14t-20 -23.5t-7.5 -31.5zM776 99v4q0 26 -22 49t-64 23h-26q-42 0 -64 -23t-22 -49v-4q0 -34 27 -55t69 -21h6q28 0 49.5 9.5t34 26.5t12.5 40z" />
    <glyph glyph-name="fiveeighths" unicode="&#x215d;" horiz-adv-x="858" 
d="M58 700h205q7 0 7 -7v-24q0 -7 -7 -7h-171v-129q57 16 86 16q51 0 85 -28t34 -84v-10q0 -50 -38 -83.5t-99 -33.5h-7q-56 0 -109 26q-7 3 -7 11v24q0 7 6 4q61 -28 108 -28h6q43 0 70 23.5t27 60.5v4q0 35 -21 58t-65 23q-31 0 -89 -17q-8 -2 -13 1l-7 5q-8 5 -8 12v176
q0 7 7 7zM571 700h24q11 0 7 -10l-324 -681q-4 -9 -13 -9h-23q-12 0 -7 10l323 681q4 9 13 9zM754 196q30 -12 48.5 -37t18.5 -57v-10q0 -46 -38 -75.5t-96 -29.5h-13q-58 0 -96.5 29.5t-38.5 75.5v10q0 32 19 56.5t49 37.5q-58 28 -58 84v7q0 23 10.5 43t28 33t41 20
t49.5 7h5q54 0 91.5 -28.5t37.5 -74.5v-7q0 -56 -58 -84zM590 280v-2q0 -24 22 -45.5t62 -21.5h12q41 0 63 21.5t22 45.5v2q0 34 -26 54t-63 20h-3q-37 0 -63 -20t-26 -54zM779 99v4q0 26 -22 49t-64 23h-25q-43 0 -65 -23t-22 -49v-4q0 -34 27 -55t70 -21h5q28 0 49.5 9.5
t34 26.5t12.5 40z" />
    <glyph glyph-name="seveneighths" unicode="&#x215e;" horiz-adv-x="784" 
d="M43 700h249q6 0 6 -7v-16q0 -8 -7 -17l-128 -167q-5 -6 -5 -14v-149q0 -7 -6 -7h-30q-7 0 -7 7v157q0 8 5 14l125 159h-202q-6 0 -6 7v26q0 7 6 7zM497 700h24q11 0 7 -10l-324 -681q-4 -9 -13 -9h-23q-12 0 -7 10l323 681q5 9 13 9zM680 196q30 -12 49 -37t19 -57v-10
q0 -46 -38.5 -75.5t-96.5 -29.5h-13q-38 0 -68.5 13.5t-48.5 37.5t-18 54v10q0 32 19 56.5t49 37.5q-58 28 -58 84v7q0 46 37.5 74.5t91.5 28.5h5q54 0 91.5 -28.5t37.5 -74.5v-7q0 -56 -58 -84zM516 280v-2q0 -24 22 -45.5t62 -21.5h12q28 0 48 11.5t28.5 26t8.5 29.5v2
q0 34 -26 54t-63 20h-3q-37 0 -63 -20t-26 -54zM705 99v4q0 26 -21.5 49t-64.5 23h-25q-29 0 -49.5 -12.5t-28.5 -28t-8 -31.5v-4q0 -34 26.5 -55t69.5 -21h5q28 0 49.5 9.5t34 26.5t12.5 40z" />
    <glyph glyph-name="arrowleft" unicode="&#x2190;" horiz-adv-x="638" 
d="M43 337l154 81q7 5 7 -5v-8q0 -6 -4 -10l-82 -53h477q7 0 7 -6v-30q0 -7 -7 -7h-477l82 -52q4 -4 4 -10v-8q0 -10 -7 -5l-154 80q-6 4 -6 11v12q0 7 6 10z" />
    <glyph glyph-name="arrowup" unicode="&#x2191;" horiz-adv-x="271" 
d="M130 565h11q8 0 10 -7l82 -152q4 -9 -5 -9h-9q-7 0 -10 6l-52 81v-477q0 -7 -7 -7h-29q-7 0 -7 7v477l-52 -81q-4 -6 -11 -6h-8q-10 0 -5 9l81 152q3 7 11 7z" />
    <glyph glyph-name="arrowright" unicode="&#x2192;" horiz-adv-x="638" 
d="M442 418l153 -82q7 -2 7 -10v-11q0 -8 -7 -11l-153 -81q-8 -5 -8 5v9q0 6 6 10l80 52h-477q-6 0 -6 7v29q0 7 6 7h477l-80 52q-6 3 -6 10v9q0 9 8 5z" />
    <glyph glyph-name="arrowdown" unicode="&#x2193;" horiz-adv-x="271" 
d="M121 552h29q6 0 6 -7v-477l53 81q3 6 10 6h9q9 0 5 -9l-82 -153q-2 -6 -10 -6h-11q-8 0 -11 6l-81 153q-5 9 5 9h8q7 0 11 -6l52 -81v477q0 7 7 7z" />
    <glyph glyph-name="uni2194" unicode="&#x2194;" horiz-adv-x="754" 
d="M558 418l153 -81q7 -3 7 -10v-12q0 -7 -7 -11l-153 -80q-8 -5 -8 5v8q0 6 5 10l82 52h-519l82 -52q4 -4 4 -10v-8q0 -10 -7 -5l-154 80q-6 4 -6 11v12q0 7 6 10l154 81q7 5 7 -5v-8q0 -6 -4 -10l-82 -53h519l-82 53q-5 4 -5 10v8q0 10 8 5z" />
    <glyph glyph-name="arrowupdn" unicode="&#x2195;" horiz-adv-x="270" 
d="M129 668h12q7 0 10 -7l81 -154q5 -7 -5 -7h-8q-6 0 -10 5l-52 82v-519l52 82q4 4 10 4h8q10 0 5 -7l-81 -154q-3 -6 -10 -6h-12q-7 0 -10 6l-81 154q-5 7 5 7h8q6 0 10 -4l53 -82v519l-53 -82q-4 -5 -10 -5h-8q-10 0 -5 7l81 154q3 7 10 7z" />
    <glyph glyph-name="uni2196" unicode="&#x2196;" horiz-adv-x="493" 
d="M60 417l166 -51q9 -3 2 -10l-6 -6q-5 -4 -11 -3l-95 20l338 -337q5 -5 0 -9l-21 -21q-4 -5 -9 0l-337 337l20 -94q1 -6 -3 -11l-6 -6q-7 -7 -10 2l-51 166q-2 7 3 11l8 9q5 5 12 3z" />
    <glyph glyph-name="uni2197" unicode="&#x2197;" horiz-adv-x="493" 
d="M267 366l166 51q6 2 12 -3l7 -8q6 -5 3 -12l-50 -166q-3 -9 -10 -2l-6 6q-5 5 -3 11l20 94l-337 -337q-5 -5 -10 0l-20 21q-5 4 0 9l337 337l-94 -20q-7 -1 -11 4l-7 6q-6 6 3 9z" />
    <glyph glyph-name="uni2198" unicode="&#x2198;" horiz-adv-x="493" 
d="M406 66l-20 95q-2 6 3 11l6 6q7 7 10 -2l50 -166q3 -7 -3 -12l-7 -8q-6 -5 -12 -3l-166 51q-9 3 -3 9l7 6q4 5 11 4l94 -20l-337 337q-5 5 0 9l20 21q5 4 10 0z" />
    <glyph glyph-name="uni2199" unicode="&#x2199;" horiz-adv-x="493" 
d="M433 404l21 -21q5 -4 0 -9l-337 -337l94 20q6 1 11 -4l6 -6q7 -6 -2 -9l-166 -51q-7 -2 -12 3l-8 8q-5 5 -3 12l51 166q3 9 9 2l6 -6q5 -5 4 -11l-20 -95l337 338q5 4 9 0z" />
    <glyph glyph-name="partialdiff" unicode="&#x2202;" horiz-adv-x="518" 
d="M299 750h5q90 0 137 -49t39 -144l-31 -344q-9 -109 -68 -167.5t-151 -58.5h-11q-88 0 -139.5 60t-41.5 166l6 62q7 71 33 121t71 76.5t106 26.5h6q41 0 84 -20t73 -59l12 138q13 150 -136 150h-4q-29 0 -59.5 -7t-47.5 -14l-49 -20q-6 -3 -6 4l2 29q1 9 8 11
q83 39 162 39zM399 211l14 161q-66 84 -150 84h-2q-74 0 -116 -46.5t-50 -134.5l-6 -64q-8 -86 29.5 -133.5t105.5 -47.5h8q73 0 116 47t51 134z" />
    <glyph glyph-name="emptyset" unicode="&#x2205;" horiz-adv-x="602" 
d="M553 475l-52 -52q63 -73 63 -173q0 -110 -76 -186.5t-188 -76.5q-100 1 -173 63l-51 -52q-5 -5 -10 0l-17 18q-5 5 0 9l51 51q-64 74 -63 174q1 111 76 186.5t187 76.5q101 0 174 -63l52 52q5 5 10 0l17 -18q4 -5 0 -9zM82 250q-1 -82 49 -143l312 312q-60 50 -143 51
q-93 -1 -155.5 -63.5t-62.5 -156.5zM300 30q94 1 157 64t63 156q0 82 -50 142l-312 -312q60 -49 142 -50z" />
    <glyph glyph-name="product" unicode="&#x220f;" horiz-adv-x="611" 
d="M43 700h525q7 0 7 -7v-33q0 -6 -7 -6h-80v-647q0 -7 -7 -7h-38q-6 0 -6 7v647h-262v-647q0 -7 -7 -7h-38q-7 0 -7 7v647h-80q-6 0 -6 6v33q0 7 6 7z" />
    <glyph glyph-name="summation" unicode="&#x2211;" horiz-adv-x="508" 
d="M472 693v-33q0 -6 -7 -6h-359l273 -282q4 -4 4 -10v-24q0 -6 -4 -10l-273 -282h359q7 0 7 -6v-33q0 -7 -7 -7h-422q-6 0 -6 7v32q0 5 3 8l292 303l-292 303q-3 3 -3 8v32q0 7 6 7h422q7 0 7 -7z" />
    <glyph glyph-name="minus" unicode="&#x2212;" horiz-adv-x="537" 
d="M43 341h451q7 0 7 -6v-29q0 -7 -7 -7h-451q-6 0 -6 7v29q0 6 6 6z" />
    <glyph glyph-name="radical" unicode="&#x221a;" horiz-adv-x="690" 
d="M612 700h36q7 0 5 -8l-258 -684q-3 -8 -11 -8h-49q-10 0 -11 8l-171 450h-110q-6 0 -6 6v29q0 7 6 7h139q8 0 11 -8l83 -220l82 -228h2l82 228l158 420q4 8 12 8z" />
    <glyph glyph-name="infinity" unicode="&#x221e;" horiz-adv-x="669" 
d="M494 513h7q60 0 95.5 -47t35.5 -115v-15q0 -71 -35.5 -119t-100.5 -48h-6q-53 0 -86 32t-72 103q-38 -70 -72 -102.5t-85 -32.5h-7q-61 0 -96 47t-35 115v16q0 70 35.5 118t99.5 48h7q52 0 86 -32t72 -102q38 70 72 102t85 32zM498 476h-6q-40 0 -67 -28.5t-67 -100.5
q40 -71 67 -99.5t67 -28.5h6q43 0 68 35.5t25 86.5v13q0 51 -25 86.5t-68 35.5zM177 463h-6q-43 0 -68 -35.5t-25 -86.5v-13q0 -51 24.5 -86.5t67.5 -35.5h7q40 0 67 29t67 101q-40 71 -67 99t-67 28z" />
    <glyph glyph-name="integral" unicode="&#x222b;" horiz-adv-x="430" 
d="M387 731q7 -3 7 -10v-25q0 -3 -2.5 -5t-6.5 -1q-42 17 -70 17h-4q-19 0 -32.5 -5t-22 -15t-12.5 -25t-4 -36v-757q0 -119 -112 -119h-7q-36 0 -78 19q-6 3 -6 10v25q0 3 2.5 5t5.5 1q42 -17 70 -17h5q37 0 53.5 19.5t16.5 61.5v757q0 119 112 119h7q37 0 78 -19z" />
    <glyph glyph-name="approxequal" unicode="&#x2248;" horiz-adv-x="455" 
d="M151 404q34 0 80 -24.5t75 -24.5q17 0 39.5 7t30.5 11l32 17q5 2 8 0t3 -6v-18q0 -7 -7 -10l-9 -5q-8 -5 -10 -6t-10 -5.5t-11.5 -6t-11.5 -4.5t-14 -5l-13 -3q-7 -2 -14 -2.5t-14 -0.5q-35 0 -80.5 24.5t-74.5 24.5q-18 0 -40 -7t-31 -12l-32 -16q-5 -2 -7.5 -0.5
t-2.5 6.5v18q0 7 4 9q3 2 13 7l15 8q5 3 14 7.5t16 6.5t16 5t17.5 4t18.5 1zM151 263q34 0 80 -24.5t75 -24.5q17 0 39.5 7t30.5 11l32 17q5 2 8 0t3 -6v-18q0 -7 -7 -10l-9 -5q-8 -5 -10 -6t-10 -5.5t-11.5 -6t-11.5 -4.5t-14 -5l-13 -3q-7 -2 -14 -2.5t-14 -0.5
q-35 0 -80.5 24.5t-74.5 24.5q-18 0 -40 -7t-31 -12l-32 -16q-5 -2 -7.5 -0.5t-2.5 6.5v18q0 7 4 9q1 1 15 8.5t18 9.5t16.5 7.5t19.5 7.5t18.5 4t22.5 2z" />
    <glyph glyph-name="notequal" unicode="&#x2260;" horiz-adv-x="538" 
d="M320 357l-60 -104h235q7 0 7 -7v-23q0 -7 -7 -7h-257l-66 -115q-4 -5 -9 -3l-19 12q-6 2 -3 9l56 97h-154q-6 0 -6 7v23q0 7 6 7h175l61 104h-236q-6 0 -6 7v23q0 7 6 7h257l66 115q4 5 9 2l20 -11q5 -2 2 -9l-56 -97h154q7 0 7 -7v-23q0 -7 -7 -7h-175z" />
    <glyph glyph-name="lessequal" unicode="&#x2264;" horiz-adv-x="537" 
d="M44 361l446 109q11 3 11 -8v-19q0 -10 -10 -12l-386 -91l386 -90q10 -2 10 -12v-20q0 -10 -11 -7l-446 109q-7 2 -7 11v19q0 9 7 11zM43 121h451q7 0 7 -6v-24q0 -6 -7 -6h-451q-6 0 -6 6v24q0 6 6 6z" />
    <glyph glyph-name="greaterequal" unicode="&#x2265;" horiz-adv-x="537" 
d="M48 470l445 -109q8 -2 8 -11v-19q0 -9 -8 -11l-445 -109q-11 -3 -11 7v20q0 10 9 12l386 90l-386 91q-9 2 -9 12v19q0 11 11 8zM43 121h451q7 0 7 -6v-24q0 -7 -7 -7h-451q-6 0 -6 7v24q0 6 6 6z" />
    <glyph glyph-name="lozenge" unicode="&#x25ca;" horiz-adv-x="394" 
d="M185 700h25q5 0 10 -4l133 -134q5 -4 5 -10v-25q0 -6 -5 -10l-133 -134q-5 -4 -10 -4h-25q-6 0 -10 4l-134 134q-4 4 -4 10v25q0 6 4 10l134 134q4 4 10 4zM75 540l122 -124l123 124l-123 123z" />
    <glyph glyph-name="atsmall" unicode="&#xfe6b;" horiz-adv-x="650" 
d="M266 513h118q59 0 101.5 -20.5t66.5 -64t24 -107.5v-165q0 -22 -8 -38.5t-20.5 -24.5t-24 -11t-22.5 -3h-19q-20 0 -42 11.5t-24 39.5q-48 -51 -104 -51h-2q-40 0 -67.5 17t-41 49t-13.5 79v49q0 47 15.5 80t44.5 49.5t69 16.5h4q30 0 67.5 -11.5t59.5 -24.5q4 -4 4 -8
v-221q0 -42 35 -42h11q39 0 39 45v162q0 81 -40 119.5t-114 38.5h-116q-74 0 -114 -38.5t-40 -119.5v-131q0 -165 154 -165h170q4 0 4 -5v-27q0 -4 -4 -4h-171q-59 0 -101.5 20.5t-66.5 64t-24 107.5v142q0 95 51 143.5t141 48.5zM321 386h-3q-29 0 -49.5 -12.5t-32 -38
t-11.5 -61.5v-48q0 -113 91 -113h1q52 0 98 53v192q-49 28 -94 28z" />
    <glyph glyph-name="i.loclTRK" horiz-adv-x="195" 
d="M73 664h51q8 0 8 -7v-56q0 -8 -8 -8h-51q-8 0 -8 8v56q0 7 8 7zM80 500h37q7 0 7 -7v-486q0 -7 -7 -7h-37q-6 0 -6 7v486q0 7 6 7z" />
    <glyph glyph-name="a.ss01" horiz-adv-x="540" 
d="M462 457q6 -5 6 -12v-438q0 -7 -6 -7h-34q-6 0 -6 6l-2 64q-23 -28 -53 -47t-58.5 -27.5t-55.5 -8.5h-4q-61 0 -102.5 26.5t-62.5 76.5t-21 121v76q0 109 53 167.5t145 58.5h7q46 0 103 -17.5t91 -38.5zM419 114v311q-79 46 -152 46h-4q-71 0 -110.5 -47t-39.5 -134v-79
q0 -89 36.5 -135t109.5 -46h2q84 0 158 84z" />
    <glyph glyph-name="aacute.ss01" horiz-adv-x="540" 
d="M246 589l72 157q4 8 12 8h30q4 0 6 -3t0 -6l-82 -157q-3 -7 -11 -7h-23q-3 0 -4.5 2.5t0.5 5.5zM462 457q6 -5 6 -12v-438q0 -7 -6 -7h-34q-6 0 -6 6l-2 64q-35 -41 -80 -62t-87 -21h-4q-91 0 -138.5 58t-47.5 166v76q0 109 53 167.5t145 58.5h7q46 0 103 -17.5t91 -38.5
zM419 114v311q-79 46 -152 46h-4q-71 0 -110.5 -47t-39.5 -134v-79q0 -89 36.5 -135t109.5 -46h2q84 0 158 84z" />
    <glyph glyph-name="abreve.ss01" horiz-adv-x="540" 
d="M393 664q3 2 6 0.5t3 -5.5v-24q0 -7 -5 -11q-19 -15 -53 -28t-74 -13t-74 13t-52 28q-6 4 -6 11v24q0 4 3 5.5t7 -0.5q19 -12 32 -19t38.5 -14t51.5 -7t51.5 7t38.5 14t33 19zM462 457q6 -5 6 -12v-438q0 -7 -6 -7h-34q-6 0 -6 6l-2 64q-23 -28 -53 -47t-58.5 -27.5
t-56.5 -8.5h-3q-91 0 -138.5 58t-47.5 166v76q0 109 53 167.5t145 58.5h7q46 0 103 -17.5t91 -38.5zM419 114v311q-79 46 -152 46h-4q-71 0 -110.5 -47t-39.5 -134v-79q0 -89 36.5 -135t109.5 -46h2q84 0 158 84z" />
    <glyph glyph-name="acaron.ss01" horiz-adv-x="540" 
d="M349 754h27q4 0 6 -2.5t0 -6.5l-90 -157q-4 -7 -12 -7h-20q-7 0 -11 7l-91 157q-2 4 0 6.5t6 2.5h28q8 0 12 -8l66 -129l66 129q4 8 13 8zM462 457q6 -5 6 -12v-438q0 -7 -6 -7h-34q-6 0 -6 6l-2 64q-23 -28 -53 -47t-58.5 -27.5t-55.5 -8.5h-4q-91 0 -138.5 58
t-47.5 166v76q0 109 53 167.5t145 58.5h7q46 0 103 -17.5t91 -38.5zM419 114v311q-79 46 -152 46h-4q-70 0 -110 -47t-40 -134v-79q0 -89 36.5 -135t109.5 -46h2q84 0 158 84z" />
    <glyph glyph-name="acircumflex.ss01" horiz-adv-x="540" 
d="M292 746l90 -156q2 -4 0 -6.5t-6 -2.5h-27q-9 0 -13 8l-66 128l-66 -128q-4 -8 -12 -8h-28q-4 0 -6 2.5t0 6.5l91 156q4 8 11 8h20q8 0 12 -8zM462 457q6 -5 6 -12v-438q0 -7 -6 -7h-34q-6 0 -6 6l-2 64q-35 -41 -80 -62t-88 -21h-3q-91 0 -138.5 58t-47.5 166v76
q0 109 53 167.5t145 58.5h7q46 0 103 -17.5t91 -38.5zM419 114v311q-79 46 -152 46h-4q-71 0 -110.5 -47t-39.5 -134v-79q0 -89 36.5 -135t109.5 -46h2q84 0 158 84z" />
    <glyph glyph-name="adieresis.ss01" horiz-adv-x="540" 
d="M181 664h47q7 0 7 -7v-56q0 -8 -7 -8h-47q-8 0 -8 8v56q0 7 8 7zM325 664h47q7 0 7 -7v-56q0 -8 -7 -8h-47q-8 0 -8 8v56q0 7 8 7zM462 457q6 -5 6 -12v-438q0 -7 -6 -7h-34q-6 0 -6 6l-2 64q-35 -41 -80 -62t-87 -21h-4q-91 0 -138.5 58t-47.5 166v76q0 109 53 167.5
t145 58.5h7q46 0 103 -17.5t91 -38.5zM419 114v311q-79 46 -152 46h-4q-71 0 -110.5 -47t-39.5 -134v-79q0 -89 36.5 -135t109.5 -46h2q84 0 158 84z" />
    <glyph glyph-name="agrave.ss01" horiz-adv-x="540" 
d="M208 746l72 -157q1 -3 0 -5.5t-5 -2.5h-23q-7 0 -11 7l-82 157q-1 3 0.5 6t5.5 3h30q9 0 13 -8zM462 457q6 -5 6 -12v-438q0 -7 -6 -7h-34q-6 0 -6 6l-2 64q-35 -41 -80 -62t-87 -21h-4q-61 0 -102.5 26.5t-62.5 76.5t-21 121v76q0 109 53 167.5t145 58.5h7
q46 0 103 -17.5t91 -38.5zM419 114v311q-79 46 -152 46h-4q-71 0 -110.5 -47t-39.5 -134v-79q0 -89 36.5 -135t109.5 -46h2q84 0 158 84z" />
    <glyph glyph-name="amacron.ss01" horiz-adv-x="540" 
d="M161 634h246q7 0 7 -7v-27q0 -7 -7 -7h-246q-6 0 -6 7v27q0 7 6 7zM462 457q6 -5 6 -12v-438q0 -7 -6 -7h-34q-6 0 -6 6l-2 64q-23 -28 -53 -47t-58.5 -27.5t-55.5 -8.5h-4q-61 0 -102.5 26.5t-62.5 76.5t-21 121v76q0 109 53 167.5t145 58.5h7q46 0 103 -17.5t91 -38.5z
M419 114v311q-79 46 -152 46h-4q-71 0 -110.5 -47t-39.5 -134v-79q0 -89 36.5 -135t109.5 -46h2q84 0 158 84z" />
    <glyph glyph-name="aogonek.ss01" horiz-adv-x="540" 
d="M462 457q6 -5 6 -12v-438q0 -7 -6 -7q-34 -27 -50.5 -43t-31.5 -39.5t-15 -46.5q0 -25 15.5 -38t42.5 -13q13 0 32 5q7 2 7 -6v-16q0 -9 -9 -12q-17 -6 -39 -6q-38 0 -62 21t-24 60q0 33 20.5 62t75.5 73q-2 2 -2 5l-2 64q-23 -28 -53 -47t-58.5 -27.5t-55.5 -8.5h-4
q-61 0 -102.5 26.5t-62.5 76.5t-21 121v76q0 109 53 167.5t145 58.5h7q46 0 103 -17.5t91 -38.5zM419 114v311q-79 46 -152 46h-4q-71 0 -110.5 -47t-39.5 -134v-79q0 -89 36.5 -135t109.5 -46h2q84 0 158 84z" />
    <glyph glyph-name="aring.ss01" horiz-adv-x="540" 
d="M279 722q33 0 55.5 -22t22.5 -54t-23 -54.5t-55 -22.5q-33 0 -55.5 23t-22.5 54q0 32 22.5 54t55.5 22zM279 691q-20 0 -32 -12.5t-12 -31.5q0 -7 2 -14t6 -13t9 -10.5t12 -7t15 -2.5q20 0 32.5 14t12.5 33t-12.5 31.5t-32.5 12.5zM462 457q6 -5 6 -12v-438q0 -7 -6 -7
h-34q-6 0 -6 6l-2 64q-35 -41 -80 -62t-87 -21h-4q-91 0 -138.5 58t-47.5 166v76q0 109 53 167.5t145 58.5h7q46 0 103 -17.5t91 -38.5zM419 114v311q-79 46 -152 46h-4q-71 0 -110.5 -47t-39.5 -134v-79q0 -89 36.5 -135t109.5 -46h2q84 0 158 84z" />
    <glyph glyph-name="atilde.ss01" horiz-adv-x="540" 
d="M395 658h18q8 0 5 -9q-10 -32 -35 -55t-55 -23h-4q-25 0 -50 22.5t-45 22.5q-30 0 -55 -39q-3 -6 -10 -6h-18q-8 0 -5 8q10 32 35 55t55 23h4q21 0 36 -11t28.5 -22.5t30.5 -11.5q31 0 55 40q3 6 10 6zM462 457q6 -5 6 -12v-438q0 -7 -6 -7h-34q-6 0 -6 6l-2 64
q-35 -41 -80 -62t-87 -21h-4q-91 0 -138.5 58t-47.5 166v76q0 109 53 167.5t145 58.5h7q46 0 103 -17.5t91 -38.5zM419 114v311q-79 46 -152 46h-4q-71 0 -110.5 -47t-39.5 -134v-79q0 -89 36.5 -135t109.5 -46h2q84 0 158 84z" />
    <glyph glyph-name="ae.ss01" horiz-adv-x="886" 
d="M624 513h11q91 0 140.5 -57.5t49.5 -167.5v-32q0 -8 -8 -8h-348v-53q0 -77 49 -121.5t126 -44.5h4q70 0 154 42q7 3 7 -4v-29q0 -8 -7 -12q-30 -16 -75 -27.5t-83 -11.5h-7q-59 0 -107 23.5t-75 67.5v-71q0 -7 -7 -7h-20q-6 0 -6 6l-2 64q-14 -17 -31 -30.5t-34 -23
t-34.5 -16.5t-34.5 -10t-33 -3h-4q-61 0 -102.5 26.5t-62.5 76.5t-21 121v76q0 109 53 167.5t145 58.5h7q41 0 93 -16t84 -35q6 -5 6 -12v-41q26 50 71.5 77t101.5 27zM634 472h-8q-70 0 -113 -50.5t-44 -137.5h309q0 188 -144 188zM267 471h-4q-71 0 -110.5 -47t-39.5 -134
v-79q0 -89 36.5 -135t109.5 -46h2q84 0 158 84v311q-79 46 -152 46z" />
    <glyph glyph-name="y.ss01" 
d="M414 500h37q6 0 6 -7v-482q0 -47 -13.5 -83.5t-39 -60t-60.5 -35.5t-79 -12h-6q-80 0 -158 39q-7 3 -7 11v29q0 7 7 4q82 -41 152 -41h4q151 0 151 150v56q-39 -34 -86 -54.5t-88 -20.5h-6q-83 0 -120.5 46t-37.5 136v318q0 7 6 7h37q7 0 7 -7v-312q0 -73 27 -109t94 -36
h3q79 0 164 75v382q0 7 6 7z" />
    <glyph glyph-name="yacute.ss01" 
d="M251 589l72 157q4 8 12 8h31q3 0 5 -3t0 -6l-81 -157q-4 -7 -12 -7h-23q-3 0 -4.5 2.5t0.5 5.5zM414 500h37q6 0 6 -7v-482q0 -94 -51 -142.5t-141 -48.5h-6q-80 0 -158 39q-7 3 -7 11v29q0 7 7 4q81 -41 152 -41h4q151 0 151 150v56q-39 -34 -86 -54.5t-88 -20.5h-6
q-83 0 -120.5 46t-37.5 136v318q0 7 6 7h37q7 0 7 -7v-312q0 -73 27 -109t94 -36h3q79 0 164 75v382q0 7 6 7z" />
    <glyph glyph-name="ycircumflex.ss01" 
d="M286 746l90 -156q2 -4 0 -6.5t-6 -2.5h-28q-8 0 -12 8l-66 128l-66 -128q-4 -8 -12 -8h-28q-4 0 -6 2.5t0 6.5l90 156q4 8 12 8h20q8 0 12 -8zM414 500h37q6 0 6 -7v-482q0 -47 -13.5 -83.5t-39 -60t-60.5 -35.5t-79 -12h-6q-80 0 -158 39q-7 3 -7 11v29q0 7 7 4
q82 -41 152 -41h4q151 0 151 150v56q-40 -34 -86.5 -54.5t-87.5 -20.5h-6q-83 0 -120.5 46t-37.5 136v318q0 7 6 7h37q7 0 7 -7v-312q0 -73 27 -109t94 -36h3q79 0 164 75v382q0 7 6 7z" />
    <glyph glyph-name="ydieresis.ss01" 
d="M168 664h48q7 0 7 -7v-56q0 -8 -7 -8h-48q-7 0 -7 8v56q0 7 7 7zM312 664h48q7 0 7 -7v-56q0 -8 -7 -8h-48q-7 0 -7 8v56q0 7 7 7zM414 500h37q6 0 6 -7v-482q0 -63 -24 -106t-66.5 -64t-101.5 -21h-6q-80 0 -158 39q-7 3 -7 11v29q0 7 7 4q82 -41 152 -41h4
q151 0 151 150v56q-40 -34 -86.5 -54.5t-87.5 -20.5h-6q-83 0 -120.5 46t-37.5 136v318q0 7 6 7h37q7 0 7 -7v-312q0 -73 27 -109t94 -36h3q79 0 164 75v382q0 7 6 7z" />
    <glyph glyph-name="ygrave.ss01" 
d="M210 746l72 -157q2 -3 0.5 -5.5t-4.5 -2.5h-23q-7 0 -11 7l-82 157q-2 3 0 6t6 3h30q8 0 12 -8zM414 500h37q6 0 6 -7v-482q0 -94 -51 -142.5t-141 -48.5h-6q-80 0 -158 39q-7 3 -7 11v29q0 7 7 4q82 -41 152 -41h4q151 0 151 150v56q-39 -34 -86 -54.5t-88 -20.5h-6
q-83 0 -120.5 46t-37.5 136v318q0 7 6 7h37q7 0 7 -7v-312q0 -73 27 -109t94 -36h3q79 0 164 75v382q0 7 6 7z" />
    <glyph glyph-name="a.ss02" horiz-adv-x="489" 
d="M80 500h332q7 0 7 -7v-486q0 -7 -7 -7h-33q-6 0 -7 6l-1 64q-35 -40 -80.5 -61.5t-88.5 -21.5h-6q-73 0 -116 39t-43 104v5q0 80 56 118.5t173 43.5l103 4v157h-289q-7 0 -7 6v29q0 7 7 7zM369 264l-111 -4q-88 -3 -129.5 -33t-41.5 -88v-5q0 -48 33 -76.5t90 -28.5h4
q83 0 155 84v151z" />
    <glyph glyph-name="aacute.ss02" horiz-adv-x="489" 
d="M230 589l72 157q4 8 13 8h30q4 0 5.5 -3t0.5 -6l-82 -157q-4 -7 -11 -7h-23q-4 0 -5 2.5t0 5.5zM80 500h332q7 0 7 -7v-486q0 -7 -7 -7h-33q-6 0 -7 6l-1 64q-35 -40 -80.5 -61.5t-88.5 -21.5h-6q-73 0 -116 39t-43 104v5q0 80 56 118.5t173 43.5l103 4v157h-289
q-7 0 -7 6v29q0 7 7 7zM369 264l-111 -4q-88 -3 -129.5 -33t-41.5 -88v-5q0 -32 15 -55.5t43 -36.5t65 -13h4q83 0 155 84v151z" />
    <glyph glyph-name="abreve.ss02" horiz-adv-x="489" 
d="M369 664q4 2 7 0.5t3 -5.5v-24q0 -7 -6 -11q-18 -15 -52 -28t-74 -13q-28 0 -55 7.5t-43.5 16t-28.5 17.5q-5 4 -5 11v24q0 4 3 5.5t6 -0.5q20 -12 33 -19t38.5 -14t51.5 -7t51.5 7t38.5 14t32 19zM80 500h332q7 0 7 -7v-486q0 -7 -7 -7h-33q-6 0 -7 6l-1 64
q-35 -40 -80.5 -61.5t-88.5 -21.5h-6q-73 0 -116 39t-43 104v5q0 80 56 118.5t173 43.5l103 4v157h-289q-7 0 -7 6v29q0 7 7 7zM369 264l-111 -4q-88 -3 -129.5 -33t-41.5 -88v-5q0 -48 33 -76.5t90 -28.5h4q83 0 155 84v151z" />
    <glyph glyph-name="acaron.ss02" horiz-adv-x="489" 
d="M325 754h27q4 0 6 -2.5t0 -6.5l-90 -157q-4 -7 -11 -7h-21q-7 0 -11 7l-90 157q-2 4 -0.5 6.5t5.5 2.5h28q8 0 12 -8l66 -129l66 129q4 8 13 8zM80 500h332q7 0 7 -7v-486q0 -7 -7 -7h-33q-6 0 -7 6l-1 64q-35 -40 -80.5 -61.5t-88.5 -21.5h-6q-73 0 -116 39t-43 104v5
q0 80 56 118.5t173 43.5l103 4v157h-289q-7 0 -7 6v29q0 7 7 7zM369 264l-111 -4q-88 -3 -129.5 -33t-41.5 -88v-5q0 -48 33 -76.5t90 -28.5h4q83 0 155 84v151z" />
    <glyph glyph-name="acircumflex.ss02" horiz-adv-x="489" 
d="M267 746l91 -156q2 -4 0 -6.5t-6 -2.5h-28q-8 0 -12 8l-66 128l-66 -128q-4 -8 -13 -8h-27q-4 0 -6 2.5t0 6.5l90 156q4 8 12 8h20q8 0 11 -8zM80 500h332q7 0 7 -7v-486q0 -7 -7 -7h-33q-6 0 -7 6l-1 64q-35 -40 -80.5 -61.5t-88.5 -21.5h-6q-73 0 -116 39t-43 104v5
q0 80 56 118.5t173 43.5l103 4v157h-289q-7 0 -7 6v29q0 7 7 7zM369 264l-111 -4q-88 -3 -129.5 -33t-41.5 -88v-5q0 -48 33 -76.5t90 -28.5h4q83 0 155 84v151z" />
    <glyph glyph-name="adieresis.ss02" horiz-adv-x="489" 
d="M149 664h47q8 0 8 -7v-56q0 -8 -8 -8h-47q-8 0 -8 8v56q0 7 8 7zM293 664h47q8 0 8 -7v-56q0 -8 -8 -8h-47q-8 0 -8 8v56q0 7 8 7zM80 500h332q7 0 7 -7v-486q0 -7 -7 -7h-33q-6 0 -7 6l-1 64q-35 -40 -80.5 -61.5t-88.5 -21.5h-6q-73 0 -116 39t-43 104v5q0 80 56 118.5
t173 43.5l103 4v157h-289q-7 0 -7 6v29q0 7 7 7zM369 264l-111 -4q-88 -3 -129.5 -33t-41.5 -88v-5q0 -48 33 -76.5t90 -28.5h4q83 0 155 84v151z" />
    <glyph glyph-name="agrave.ss02" horiz-adv-x="489" 
d="M190 746l72 -157q1 -3 0 -5.5t-4 -2.5h-24q-7 0 -11 7l-82 157q-1 3 0.5 6t5.5 3h30q9 0 13 -8zM80 500h332q7 0 7 -7v-486q0 -7 -7 -7h-33q-6 0 -7 6l-1 64q-18 -20 -39 -36t-43 -26t-44 -15.5t-43 -5.5h-6q-73 0 -116 39t-43 104v5q0 80 56 118.5t173 43.5l103 4v157
h-289q-7 0 -7 6v29q0 7 7 7zM369 264l-111 -4q-88 -3 -129.5 -33t-41.5 -88v-5q0 -48 33 -76.5t90 -28.5h4q83 0 155 84v151z" />
    <glyph glyph-name="amacron.ss02" horiz-adv-x="489" 
d="M125 634h246q6 0 6 -7v-27q0 -7 -6 -7h-246q-7 0 -7 7v27q0 7 7 7zM80 500h332q7 0 7 -7v-486q0 -7 -7 -7h-33q-6 0 -7 6l-1 64q-35 -40 -80.5 -61.5t-88.5 -21.5h-6q-73 0 -116 39t-43 104v5q0 80 56 118.5t173 43.5l103 4v157h-289q-7 0 -7 6v29q0 7 7 7zM369 264
l-111 -4q-88 -3 -129.5 -33t-41.5 -88v-5q0 -48 33 -76.5t90 -28.5h4q83 0 155 84v151z" />
    <glyph glyph-name="aogonek.ss02" horiz-adv-x="489" 
d="M80 500h332q7 0 7 -7v-486q0 -7 -7 -7q-33 -27 -50 -43t-32 -39.5t-15 -46.5q0 -25 16 -38t42 -13q14 0 32 5q7 2 7 -6v-16q0 -9 -9 -12q-16 -6 -39 -6q-24 0 -43 9t-31 27.5t-12 44.5q0 33 21 62t76 73q-2 2 -3 5l-1 64q-35 -40 -80.5 -61.5t-88.5 -21.5h-6
q-73 0 -116 39t-43 104v5q0 80 56 118.5t173 43.5l103 4v157h-289q-7 0 -7 6v29q0 7 7 7zM369 264l-111 -4q-88 -3 -129.5 -33t-41.5 -88v-5q0 -48 33 -76.5t90 -28.5h4q83 0 155 84v151z" />
    <glyph glyph-name="aring.ss02" horiz-adv-x="489" 
d="M247 722q33 0 55.5 -22t22.5 -54t-23 -54.5t-55 -22.5q-33 0 -55.5 23t-22.5 54q0 16 6 29.5t16.5 24t25 16.5t30.5 6zM247 691q-13 0 -23.5 -6t-15.5 -16t-5 -22t5 -23t15.5 -17.5t23.5 -6.5q10 0 18.5 4t14 10.5t9 15t3.5 17.5q0 19 -12.5 31.5t-32.5 12.5zM80 500h332
q7 0 7 -7v-486q0 -7 -7 -7h-33q-6 0 -7 6l-1 64q-35 -40 -80.5 -61.5t-88.5 -21.5h-6q-73 0 -116 39t-43 104v5q0 80 56 118.5t173 43.5l103 4v157h-289q-7 0 -7 6v29q0 7 7 7zM369 264l-111 -4q-88 -3 -129.5 -33t-41.5 -88v-5q0 -32 15 -55.5t43 -36.5t65 -13h4
q83 0 155 84v151z" />
    <glyph glyph-name="atilde.ss02" horiz-adv-x="489" 
d="M364 658h17q9 0 6 -9q-10 -32 -35 -55t-56 -23h-4q-25 0 -50 22.5t-44 22.5q-31 0 -55 -39q-4 -6 -10 -6h-18q-8 0 -6 8q10 32 35.5 55t55.5 23h4q20 0 35.5 -11t29 -22.5t29.5 -11.5q31 0 55 40q4 6 11 6zM80 500h332q7 0 7 -7v-486q0 -7 -7 -7h-33q-6 0 -7 6l-1 64
q-35 -40 -80.5 -61.5t-88.5 -21.5h-6q-73 0 -116 39t-43 104v5q0 80 56 118.5t173 43.5l103 4v157h-289q-7 0 -7 6v29q0 7 7 7zM369 264l-111 -4q-88 -3 -129.5 -33t-41.5 -88v-5q0 -32 15 -55.5t43 -36.5t65 -13h4q83 0 155 84v151z" />
    <glyph glyph-name="ae.ss02" horiz-adv-x="837" 
d="M575 513h11q91 0 140.5 -57.5t49.5 -167.5v-32q0 -8 -8 -8h-348v-53q0 -77 49 -121.5t125 -44.5h4q71 0 154 42q7 3 7 -4v-29q0 -8 -7 -12q-30 -16 -75 -27.5t-82 -11.5h-7q-60 0 -107.5 23.5t-74.5 67.5v-71q0 -7 -6 -7h-21q-6 0 -7 6l-1 64q-35 -40 -80.5 -61.5
t-88.5 -21.5h-6q-73 0 -116 39t-43 104v5q0 80 56 118.5t173 43.5l103 4v157h-289q-7 0 -7 6v29q0 7 7 7h320q6 0 6 -7v-80q17 32 42.5 54.5t57.5 34t69 11.5zM420 284h308q1 188 -144 188h-8q-69 0 -112 -50.5t-44 -137.5zM369 264l-111 -4q-88 -3 -129.5 -33t-41.5 -88v-5
q0 -48 33 -76.5t90 -28.5h4q83 0 155 84v151z" />
    <glyph glyph-name="f.ss02" horiz-adv-x="354" 
d="M106 737h214q7 0 7 -7v-29q0 -6 -7 -6h-171v-195h144q6 0 6 -7v-29q0 -6 -6 -6h-144v-451q0 -7 -7 -7h-36q-7 0 -7 7v451h-66q-6 0 -6 6v29q0 7 6 7h66v230q0 7 7 7z" />
    <glyph glyph-name="g.ss02" horiz-adv-x="540" 
d="M462 457q6 -5 6 -12v-605q0 -7 -6 -7h-355q-7 0 -7 7v29q0 6 7 6h312v197q-36 -39 -80 -59t-85 -20h-5q-91 0 -138.5 58t-47.5 165v71q0 109 53 167.5t145 58.5h6q47 0 103.5 -17.5t91.5 -38.5zM259 36h2q84 0 158 83v306q-79 46 -152 46h-4q-71 0 -110.5 -47t-39.5 -134
v-74q0 -180 146 -180z" />
    <glyph glyph-name="gbreve.ss02" horiz-adv-x="540" 
d="M393 664q3 2 6 0.5t3 -5.5v-24q0 -7 -6 -11q-11 -9 -27.5 -17.5t-43.5 -16t-55 -7.5t-55 7.5t-43.5 16t-27.5 17.5q-6 4 -6 11v24q0 4 3 5.5t7 -0.5q19 -12 32 -19t38.5 -14t51.5 -7t51.5 7t38.5 14t33 19zM462 457q6 -5 6 -12v-605q0 -7 -6 -7h-355q-7 0 -7 7v29
q0 6 7 6h311v197q-35 -39 -79 -59t-85 -20h-6q-90 0 -137.5 58t-47.5 165v71q0 109 53 167.5t145 58.5h6q24 0 53 -5t55 -13.5t48.5 -18t38.5 -19.5zM259 36h2q84 0 158 83v306q-79 46 -152 46h-4q-71 0 -110.5 -47t-39.5 -134v-74q0 -180 146 -180z" />
    <glyph glyph-name="gcommaaccent.ss02" horiz-adv-x="540" 
d="M292 581h-54q-8 0 -8 7v44q0 8 2 13l36 110q2 6 8 6h25q9 0 6 -10l-35 -105h20q7 0 7 -7v-51q0 -7 -7 -7zM462 457q6 -5 6 -12v-605q0 -7 -6 -7h-355q-7 0 -7 7v29q0 6 7 6h312v197q-36 -39 -80 -59t-85 -20h-5q-91 0 -138.5 58t-47.5 165v71q0 109 53 167.5t145 58.5h6
q47 0 103.5 -17.5t91.5 -38.5zM259 36h2q84 0 158 83v306q-79 46 -152 46h-4q-71 0 -110.5 -47t-39.5 -134v-74q0 -180 146 -180z" />
    <glyph glyph-name="gdotaccent.ss02" horiz-adv-x="540" 
d="M260 664h52q7 0 7 -7v-56q0 -8 -7 -8h-52q-7 0 -7 8v56q0 7 7 7zM462 457q6 -5 6 -12v-605q0 -7 -6 -7h-355q-7 0 -7 7v29q0 6 7 6h312v197q-36 -39 -80 -59t-85 -20h-5q-91 0 -138.5 58t-47.5 165v71q0 109 53 167.5t145 58.5h6q47 0 103.5 -17.5t91.5 -38.5zM259 36h2
q84 0 158 83v306q-79 46 -152 46h-4q-71 0 -110.5 -47t-39.5 -134v-74q0 -180 146 -180z" />
    <glyph glyph-name="r.ss02" horiz-adv-x="345" 
d="M78 500h234q7 0 7 -7v-29q0 -6 -7 -6h-190v-451q0 -7 -7 -7h-37q-6 0 -6 7v486q0 7 6 7z" />
    <glyph glyph-name="racute.ss02" horiz-adv-x="345" 
d="M175 589l72 157q4 8 13 8h30q4 0 6 -3t0 -6l-82 -157q-4 -7 -11 -7h-23q-3 0 -4.5 2.5t-0.5 5.5zM78 500h234q7 0 7 -7v-29q0 -6 -7 -6h-190v-451q0 -7 -7 -7h-37q-6 0 -6 7v486q0 7 6 7z" />
    <glyph glyph-name="rcaron.ss02" horiz-adv-x="345" 
d="M251 754h28q4 0 6 -2.5t0 -6.5l-91 -157q-4 -7 -11 -7h-21q-7 0 -11 7l-90 157q-2 4 0 6.5t6 2.5h27q9 0 13 -8l66 -129l66 129q4 8 12 8zM78 500h234q7 0 7 -7v-29q0 -6 -7 -6h-190v-451q0 -7 -7 -7h-37q-6 0 -6 7v486q0 7 6 7z" />
    <glyph glyph-name="rcommaaccent.ss02" horiz-adv-x="345" 
d="M78 500h234q7 0 7 -7v-29q0 -6 -7 -6h-190v-451q0 -7 -7 -7h-37q-6 0 -6 7v486q0 7 6 7zM79 -50h54q7 0 7 -7v-44q0 -8 -1 -13l-36 -110q-2 -6 -8 -6h-26q-9 0 -5 10l35 105h-20q-7 0 -7 7v51q0 7 7 7z" />
    <glyph glyph-name="t.ss02" horiz-adv-x="328" 
d="M104 611l33 7q10 3 10 -7v-111h147q7 0 7 -7v-29q0 -6 -7 -6h-147v-416h147q7 0 7 -6v-29q0 -7 -7 -7h-190q-6 0 -6 7v451h-65q-6 0 -6 6v29q0 7 6 7h65v100q0 9 6 11z" />
    <glyph glyph-name="tbar.ss02" horiz-adv-x="328" 
d="M147 297v-255h147q7 0 7 -6v-29q0 -7 -7 -7h-190q-6 0 -6 7v290h-65q-6 0 -6 7v27q0 6 6 6h65v121h-65q-6 0 -6 6v29q0 7 6 7h65v100q0 9 6 10l33 8q10 3 10 -7v-111h147q7 0 7 -7v-29q0 -6 -7 -6h-147v-121h147q7 0 7 -6v-27q0 -7 -7 -7h-147z" />
    <glyph glyph-name="tcaron.ss02" horiz-adv-x="429" 
d="M341 737h54q7 0 7 -7v-44q0 -8 -1 -13l-36 -110q-2 -6 -8 -6h-26q-9 0 -5 10l35 105h-20q-7 0 -7 7v51q0 7 7 7zM104 611l33 7q10 3 10 -7v-111h147q7 0 7 -7v-29q0 -6 -7 -6h-147v-416h147q7 0 7 -6v-29q0 -7 -7 -7h-190q-6 0 -6 7v451h-65q-6 0 -6 6v29q0 7 6 7h65v100
q0 9 6 11z" />
    <glyph glyph-name="tcedilla.ss02" horiz-adv-x="328" 
d="M147 458v-416h147q7 0 7 -6v-29q0 -7 -7 -7h-112l-11 -63q17 5 35 5q36 0 58 -20t22 -55q0 -20 -7.5 -35.5t-20.5 -25.5t-30.5 -15.5t-38.5 -5.5q-36 0 -63 10q-9 3 -9 13v12q0 7 7 6q40 -10 60 -10q65 0 65 49q0 22 -14 33.5t-37 11.5q-9 0 -41 -7q-9 -2 -13 1l-3 3
q-6 6 -5 11l14 82h-46q-6 0 -6 7v451h-65q-6 0 -6 6v29q0 7 6 7h65v100q0 9 6 11l33 7q10 3 10 -7v-111h147q7 0 7 -7v-29q0 -6 -7 -6h-147z" />
    <glyph glyph-name="uni021B.ss02" horiz-adv-x="328" 
d="M104 611l33 7q10 3 10 -7v-111h147q7 0 7 -7v-29q0 -6 -7 -6h-147v-416h147q7 0 7 -6v-29q0 -7 -7 -7h-190q-6 0 -6 7v451h-65q-6 0 -6 6v29q0 7 6 7h65v100q0 9 6 11zM174 -50h53q8 0 8 -7v-44q0 -8 -2 -13l-36 -110q-2 -6 -8 -6h-25q-9 0 -6 10l35 105h-19q-8 0 -8 7
v51q0 7 8 7z" />
    <glyph glyph-name="y.ss02" 
d="M414 500h37q6 0 6 -7v-653q0 -7 -6 -7h-355q-7 0 -7 7v29q0 6 7 6h312v193q-39 -34 -86 -54.5t-88 -20.5h-6q-83 0 -120.5 46t-37.5 136v318q0 7 6 7h37q7 0 7 -7v-312q0 -73 27 -109t94 -36h3q79 0 164 75v382q0 7 6 7z" />
    <glyph glyph-name="yacute.ss02" 
d="M252 589l72 157q4 8 12 8h31q3 0 5 -3t0 -6l-81 -157q-4 -7 -12 -7h-23q-3 0 -4.5 2.5t0.5 5.5zM414 500h37q6 0 6 -7v-653q0 -7 -6 -7h-355q-7 0 -7 7v29q0 6 7 6h312v193q-39 -34 -86 -54.5t-88 -20.5h-6q-83 0 -120.5 46t-37.5 136v318q0 7 6 7h37q7 0 7 -7v-312
q0 -73 27 -109t94 -36h3q79 0 164 75v382q0 7 6 7z" />
    <glyph glyph-name="ycircumflex.ss02" 
d="M286 746l90 -156q2 -4 0 -6.5t-6 -2.5h-28q-8 0 -12 8l-66 128l-66 -128q-4 -8 -12 -8h-28q-4 0 -6 2.5t0 6.5l90 156q4 8 12 8h20q8 0 12 -8zM414 500h37q6 0 6 -7v-653q0 -7 -6 -7h-355q-7 0 -7 7v29q0 6 7 6h312v193q-40 -34 -86.5 -54.5t-87.5 -20.5h-6
q-83 0 -120.5 46t-37.5 136v318q0 7 6 7h37q7 0 7 -7v-312q0 -73 27 -109t94 -36h3q79 0 164 75v382q0 7 6 7z" />
    <glyph glyph-name="ydieresis.ss02" 
d="M168 664h48q7 0 7 -7v-56q0 -8 -7 -8h-48q-7 0 -7 8v56q0 7 7 7zM312 664h48q7 0 7 -7v-56q0 -8 -7 -8h-48q-7 0 -7 8v56q0 7 7 7zM414 500h37q6 0 6 -7v-653q0 -7 -6 -7h-355q-7 0 -7 7v29q0 6 7 6h312v193q-40 -34 -86.5 -54.5t-87.5 -20.5h-6q-83 0 -120.5 46
t-37.5 136v318q0 7 6 7h37q7 0 7 -7v-312q0 -73 27 -109t94 -36h3q79 0 164 75v382q0 7 6 7z" />
    <glyph glyph-name="ygrave.ss02" 
d="M207 746l72 -157q2 -3 0.5 -5.5t-4.5 -2.5h-23q-8 0 -11 7l-82 157q-2 3 0 6t6 3h30q8 0 12 -8zM414 500h37q6 0 6 -7v-653q0 -7 -6 -7h-355q-7 0 -7 7v29q0 6 7 6h312v193q-39 -34 -86 -54.5t-88 -20.5h-6q-83 0 -120.5 46t-37.5 136v318q0 7 6 7h37q7 0 7 -7v-312
q0 -73 27 -109t94 -36h3q79 0 164 75v382q0 7 6 7z" />
    <glyph glyph-name="uni0430.ss01" horiz-adv-x="540" 
d="M462 457q6 -5 6 -12v-438q0 -7 -6 -7h-34q-6 0 -6 6l-2 64q-23 -28 -53 -47t-58.5 -27.5t-55.5 -8.5h-4q-61 0 -102.5 26.5t-62.5 76.5t-21 121v76q0 109 53 167.5t145 58.5h7q46 0 103 -17.5t91 -38.5zM419 114v311q-79 46 -152 46h-4q-71 0 -110.5 -47t-39.5 -134v-79
q0 -89 36.5 -135t109.5 -46h2q84 0 158 84z" />
    <glyph glyph-name="uni0443.ss01" 
d="M414 500h37q6 0 6 -7v-482q0 -47 -13.5 -83.5t-39 -60t-60.5 -35.5t-79 -12h-6q-80 0 -158 39q-7 3 -7 11v29q0 7 7 4q82 -41 152 -41h4q151 0 151 150v56q-39 -34 -86 -54.5t-88 -20.5h-6q-83 0 -120.5 46t-37.5 136v318q0 7 6 7h37q7 0 7 -7v-312q0 -73 27 -109t94 -36
h3q79 0 164 75v382q0 7 6 7z" />
    <glyph glyph-name="uni045E.ss01" 
d="M383 664q4 2 7 0.5t3 -5.5v-24q0 -7 -6 -11q-8 -7 -19.5 -13t-28 -12.5t-37 -11t-41.5 -4.5q-40 0 -74 13t-53 28q-5 4 -5 11v24q0 4 3 5.5t6 -0.5q20 -12 33 -19t38 -14t52 -7q16 0 32 2.5t27 6t24.5 10t20.5 10.5t18 11zM414 500h37q6 0 6 -7v-482q0 -47 -13.5 -83.5
t-39 -60t-60.5 -35.5t-79 -12h-6q-80 0 -158 39q-7 3 -7 11v29q0 7 7 4q82 -41 152 -41h4q151 0 151 150v56q-40 -34 -86.5 -54.5t-87.5 -20.5h-6q-83 0 -120.5 46t-37.5 136v318q0 7 6 7h37q7 0 7 -7v-312q0 -73 27 -109t94 -36h3q79 0 164 75v382q0 7 6 7z" />
    <glyph glyph-name="uni0430.ss02" horiz-adv-x="489" 
d="M80 500h332q7 0 7 -7v-486q0 -7 -7 -7h-33q-6 0 -7 6l-1 64q-35 -40 -80.5 -61.5t-88.5 -21.5h-6q-73 0 -116 39t-43 104v5q0 80 56 118.5t173 43.5l103 4v157h-289q-7 0 -7 6v29q0 7 7 7zM369 264l-111 -4q-88 -3 -129.5 -33t-41.5 -88v-5q0 -48 33 -76.5t90 -28.5h4
q83 0 155 84v151z" />
    <glyph glyph-name="uni0431.ss02" horiz-adv-x="536" 
d="M278 499h5q91 0 141 -58.5t50 -165.5v-62q0 -107 -56 -166.5t-144 -59.5h-11q-92 0 -146 59t-54 167v517q0 7 6 7h357q7 0 7 -7v-29q0 -6 -7 -6h-313v-275q17 20 38 35t42.5 25t43 14.5t41.5 4.5zM423 211v64q0 89 -38.5 135t-111.5 46h-3q-84 0 -157 -84v-161
q0 -88 40 -134.5t111 -46.5h9q68 0 109 47t41 134z" />
    <glyph glyph-name="uni0442.ss02" horiz-adv-x="804" 
d="M726 0h-37q-6 0 -6 7v451h-256v-451q0 -7 -7 -7h-36q-7 0 -7 7v451h-255v-451q0 -7 -7 -7h-37q-6 0 -6 7v486q0 7 6 7h648q6 0 6 -7v-486q0 -7 -6 -7z" />
    <glyph glyph-name="uni0443.ss02" 
d="M414 500h37q6 0 6 -7v-653q0 -7 -6 -7h-355q-7 0 -7 7v29q0 6 7 6h312v193q-39 -34 -86 -54.5t-88 -20.5h-6q-83 0 -120.5 46t-37.5 136v318q0 7 6 7h37q7 0 7 -7v-312q0 -73 27 -109t94 -36h3q79 0 164 75v382q0 7 6 7z" />
    <glyph glyph-name="uni045E.ss02" 
d="M383 664q4 2 7 0.5t3 -5.5v-24q0 -7 -6 -11q-8 -7 -19.5 -13t-28 -12.5t-37 -11t-41.5 -4.5q-40 0 -74 13t-53 28q-5 4 -5 11v24q0 4 3 5.5t6 -0.5q20 -12 33 -19t38 -14t52 -7q16 0 32 2.5t27 6t24.5 10t20.5 10.5t18 11zM414 500h37q6 0 6 -7v-653q0 -7 -6 -7h-355
q-7 0 -7 7v29q0 6 7 6h312v193q-40 -34 -86.5 -54.5t-87.5 -20.5h-6q-83 0 -120.5 46t-37.5 136v318q0 7 6 7h37q7 0 7 -7v-312q0 -73 27 -109t94 -36h3q79 0 164 75v382q0 7 6 7z" />
    <glyph glyph-name="zero.osf" horiz-adv-x="592" 
d="M291 513h11q96 0 156 -59.5t60 -167.5v-72q0 -108 -60 -167.5t-156 -59.5h-11q-97 0 -157 59.5t-60 167.5v72q0 108 60 167.5t157 59.5zM300 467h-8q-76 0 -121.5 -47t-45.5 -134v-72q0 -87 45.5 -134t121.5 -47h8q76 0 121.5 47t45.5 134v72q0 58 -21.5 99t-58.5 61.5
t-87 20.5z" />
    <glyph glyph-name="one.osf" horiz-adv-x="388" 
d="M225 46h120q6 0 6 -6v-33q0 -7 -6 -7h-302q-6 0 -6 7v33q0 6 6 6h130v397l-130 -53q-6 -2 -6 5v36q0 8 6 10l138 57q6 2 14 2h23q7 0 7 -7v-447z" />
    <glyph glyph-name="two.osf" horiz-adv-x="548" 
d="M150 46h335q7 0 7 -6v-33q0 -7 -7 -7h-422q-6 0 -6 7v18q0 5 6 10l137 85q57 36 91.5 60t64 51.5t41.5 54t12 56.5v5q0 60 -41.5 90.5t-98.5 30.5h-7q-71 0 -162 -46q-2 -1 -4.5 0.5t-2.5 4.5v31q0 9 7 12q30 17 75.5 30t88.5 13h9q37 0 70 -9.5t60 -28t42.5 -48.5
t15.5 -69v-10q0 -65 -49.5 -119t-153.5 -118z" />
    <glyph glyph-name="three.osf" horiz-adv-x="529" 
d="M345 167q48 -13 80 -41.5t45 -61t13 -68.5v-18q0 -83 -64.5 -137t-166.5 -54h-10q-51 0 -98 12.5t-77 30.5q-8 3 -8 12v32q0 3 2.5 4.5t5.5 0.5q90 -46 174 -46h8q81 0 131.5 44t50.5 109v8q0 17 -4 33.5t-12 33.5t-22.5 31t-33.5 25.5t-46.5 17.5t-61.5 6h-92q-7 0 -7 7
v28q0 7 7 7h74q36 0 65.5 8t49 22t33 32t19.5 37t6 37v10q0 31 -12 56.5t-33.5 43.5t-52 28t-66.5 10h-7q-80 0 -171 -46q-3 -1 -5 0.5t-2 4.5v32q0 9 7 12q30 17 76.5 30t95.5 13h9q93 0 152.5 -47.5t59.5 -127.5v-19q0 -46 -28.5 -88t-83.5 -64z" />
    <glyph glyph-name="four.osf" horiz-adv-x="599" 
d="M375 500h54q7 0 7 -7v-457h120q6 0 6 -7v-33q0 -7 -6 -7h-120v-182q0 -7 -7 -7h-38q-6 0 -6 7v182h-342q-6 0 -6 7v29q0 9 4 15l320 453q4 7 14 7zM93 36h292v409z" />
    <glyph glyph-name="five.osf" horiz-adv-x="531" 
d="M274 214q105 0 158 -56.5t53 -147.5v-17q0 -88 -64.5 -147t-169.5 -59h-9q-52 0 -100 13t-78 30q-7 3 -7 12v32q0 2 1 3.5t2 1.5h4q91 -46 177 -46h8q84 0 134 48t50 118v7q0 75 -43 121t-132 46q-24 0 -51.5 -5t-62.5 -13.5t-41 -9.5q-7 -1 -13 5l-6 7q-4 4 -4 10v326
q0 7 6 7h344q7 0 7 -7v-33q0 -6 -7 -6h-299v-263q101 23 143 23z" />
    <glyph glyph-name="six.osf" horiz-adv-x="581" 
d="M329 421q64 0 111 -25t71 -69.5t24 -102.5v-17q0 -91 -60 -155.5t-162 -64.5h-9q-104 0 -167 77t-63 213v17q0 93 14.5 165.5t38 119.5t56.5 78t68.5 43.5t75.5 12.5h9q80 0 156 -43q7 -3 7 -12v-32q0 -3 -2.5 -4.5t-4.5 -0.5q-31 16 -49 24t-46.5 15t-58.5 7h-7
q-27 0 -51.5 -7.5t-51 -28t-46.5 -53.5t-34.5 -88.5t-19.5 -128.5q103 60 201 60zM483 214v7q0 72 -43 115t-121 43q-88 0 -192 -62l-1 -46q0 -111 47.5 -174.5t130.5 -63.5h6q82 0 127.5 52.5t45.5 128.5z" />
    <glyph glyph-name="seven.osf" 
d="M43 500h440q7 0 7 -7v-31q0 -5 -3 -9l-239 -320q-4 -6 -4 -12v-314q0 -7 -6 -7h-38q-7 0 -7 7v326q0 10 5 17l229 304h-384q-6 0 -6 6v33q0 7 6 7z" />
    <glyph glyph-name="eight.osf" horiz-adv-x="587" 
d="M289 713h9q96 0 156.5 -48t60.5 -128v-19q0 -46 -29 -88t-85 -63q71 -19 105.5 -67.5t34.5 -103.5v-19q0 -83 -66 -136.5t-174 -53.5h-15q-71 0 -126 24.5t-84.5 68t-29.5 97.5v19q0 55 34.5 103.5t105.5 66.5q-37 15 -63.5 40.5t-38.5 54t-12 57.5v19q0 53 27.5 93
t77 61.5t112.5 21.5zM298 667h-9q-75 0 -120.5 -37.5t-45.5 -99.5v-10q0 -24 9.5 -47t27.5 -43.5t50 -33.5t73 -13h16q43 0 76 13t51.5 33.5t28 43.5t9.5 47v10q0 62 -45.5 99.5t-120.5 37.5zM310 341h-33q-49 0 -85.5 -14t-56 -36.5t-28.5 -46.5t-9 -50v-8
q0 -66 50.5 -109.5t137.5 -43.5h15q87 0 137.5 43.5t50.5 109.5v8q0 20 -5 39.5t-18 39.5t-33 34.5t-51.5 24t-71.5 9.5z" />
    <glyph glyph-name="nine.osf" horiz-adv-x="581" 
d="M268 513h9q104 0 167 -77t63 -213v-17q0 -93 -14.5 -165.5t-38 -119.5t-56.5 -78t-68.5 -43.5t-75.5 -12.5h-9q-80 0 -156 43q-7 3 -7 12v32q0 2 1 3.5t3 1.5h3q31 -16 49 -24t46.5 -15t58.5 -7h7q27 0 51.5 7.5t51 28t46.5 53.5t34.5 88.5t19.5 128.5q-103 -60 -201 -60
q-64 0 -111 25t-71 69.5t-24 102.5v17q0 91 60 155.5t162 64.5zM277 467h-7q-81 0 -126.5 -52.5t-45.5 -128.5v-7q0 -72 43 -115t121 -43q88 0 192 62l1 46q0 111 -47.5 174.5t-130.5 63.5z" />
    <glyph glyph-name="zero.zero" horiz-adv-x="657" 
d="M321 713h15q111 0 178.5 -76t67.5 -221v-132q0 -145 -67.5 -221t-178.5 -76h-15q-111 0 -179 76t-68 221v132q0 145 68 221t179 76zM126 414v-128q0 -129 57 -194l259 545q-44 30 -108 30h-12q-91 0 -143.5 -63.5t-52.5 -189.5zM530 286v128q0 130 -57 195l-259 -545
q45 -31 108 -31h12q91 0 143.5 63.5t52.5 189.5z" />
    <glyph glyph-name="zero.osf.zero" horiz-adv-x="592" 
d="M291 513h11q96 0 156 -59.5t60 -167.5v-72q0 -108 -60 -167.5t-156 -59.5h-11q-97 0 -157 59.5t-60 167.5v72q0 108 60 167.5t157 59.5zM125 286v-72q0 -103 64 -150l185 389q-33 14 -74 14h-8q-76 0 -121.5 -47t-45.5 -134zM467 214v72q0 103 -64 150l-185 -388
q33 -15 74 -15h8q76 0 121.5 47t45.5 134z" />
    <glyph glyph-name="zero.dnom" horiz-adv-x="415" 
d="M201 390h13q75 0 119.5 -50.5t44.5 -134.5v-33q0 -84 -44.5 -134.5t-119.5 -50.5h-13q-75 0 -119.5 50.5t-44.5 134.5v33q0 84 44 134.5t120 50.5zM212 350h-9q-58 0 -90 -39.5t-32 -105.5v-33q0 -66 32 -105.5t90 -39.5h9q58 0 90 39.5t32 105.5v33q0 66 -32 105.5
t-90 39.5z" />
    <glyph glyph-name="one.dnom" horiz-adv-x="296" 
d="M174 40h78q7 0 7 -7v-26q0 -7 -7 -7h-209q-6 0 -6 7v26q0 7 6 7h88v291l-88 -36q-6 -2 -6 5v26q0 7 6 10l96 39q6 2 13 2h15q7 0 7 -7v-330z" />
    <glyph glyph-name="two.dnom" horiz-adv-x="339" 
d="M157 390h9q49 0 85 -29.5t36 -78.5v-10q0 -11 -2.5 -22t-8 -22.5t-10.5 -20.5t-16 -22l-18 -20q-7 -8 -22.5 -23l-23.5 -23l-27 -24l-28 -25l-34 -30h198q7 0 7 -7v-26q0 -7 -7 -7h-252q-6 0 -6 7v24q0 6 3 9l56 49q8 6 22 19l52 48q17 16 37 38.5t28 40t8 34.5v5
q0 36 -24.5 56.5t-56.5 20.5h-7q-42 0 -99 -28q-7 -3 -7 4v26q0 8 7 11q50 26 101 26z" />
    <glyph glyph-name="three.dnom" horiz-adv-x="331" 
d="M152 390h5q54 0 91 -28.5t37 -75.5v-7q0 -55 -55 -84q19 -7 33 -19.5t22.5 -31t8.5 -39.5v-10q0 -47 -39 -77.5t-99 -30.5h-7q-52 0 -105 26q-7 3 -7 11v25q0 7 6 4q61 -28 104 -28h6q42 0 69.5 21.5t27.5 55.5v5q0 27 -20.5 48t-62.5 21h-62q-6 0 -6 7v21q0 6 6 6h54
q28 0 47.5 11.5t27.5 26t8 29.5v2q0 35 -25.5 54.5t-62.5 19.5h-3q-41 0 -102 -29q-6 -2 -6 5v24q0 8 7 11q53 26 102 26z" />
    <glyph glyph-name="four.dnom" horiz-adv-x="396" 
d="M274 136h78q7 0 7 -7v-24q0 -7 -7 -7h-78v-91q0 -7 -7 -7h-29q-6 0 -6 7v91h-189q-6 0 -6 7v19q0 6 3 11l170 232q6 10 18 10h39q7 0 7 -7v-234zM232 338l-149 -202h149v202z" />
    <glyph glyph-name="five.dnom" horiz-adv-x="334" 
d="M58 377h205q7 0 7 -7v-24q0 -7 -7 -7h-171v-129q57 16 86 16q51 0 85 -28t34 -84v-10q0 -50 -38 -83.5t-99 -33.5h-7q-56 0 -109 26q-7 3 -7 11v24q0 7 6 4q61 -28 108 -28h6q43 0 70 23.5t27 60.5v4q0 35 -21 58t-65 23q-31 0 -89 -17q-8 -2 -13 1l-7 5q-8 5 -8 12v176
q0 7 7 7z" />
    <glyph glyph-name="six.dnom" horiz-adv-x="346" 
d="M188 390h6q42 0 86 -26q7 -3 7 -11v-24q-2 -5 -7 -5q-51 28 -85 28h-5q-46 0 -76.5 -40.5t-34.5 -118.5q57 33 111 33q51 0 85.5 -27t34.5 -82v-10q0 -49 -37 -84.5t-92 -35.5h-7q-24 0 -46 8t-43.5 26.5t-34.5 55.5t-13 89v9q0 102 42.5 158.5t108.5 56.5zM185 193
q-51 0 -106 -37v-9q0 -61 27.5 -92t66.5 -31h6q38 0 62.5 25t24.5 61v5q0 34 -20 56t-61 22z" />
    <glyph glyph-name="seven.dnom" horiz-adv-x="260" 
d="M43 377h249q6 0 6 -7v-16q0 -8 -7 -17l-128 -167q-5 -6 -5 -14v-149q0 -7 -6 -7h-30q-7 0 -7 7v157q0 8 5 14l125 159h-202q-6 0 -6 7v26q0 7 6 7z" />
    <glyph glyph-name="eight.dnom" horiz-adv-x="356" 
d="M251 196q30 -12 49 -37t19 -57v-10q0 -46 -38.5 -75.5t-96.5 -29.5h-12q-58 0 -96.5 29.5t-38.5 75.5v10q0 32 18.5 56.5t49.5 37.5q-59 28 -59 84v7q0 46 38 74.5t91 28.5h6q53 0 90.5 -28.5t37.5 -74.5v-7q0 -56 -58 -84zM87 280v-2q0 -24 22 -45.5t63 -21.5h12
q17 0 31 4.5t24 11.5t16.5 15.5t10 17.5t3.5 18v2q0 34 -26.5 54t-63.5 20h-3q-37 0 -63 -20t-26 -54zM277 99v4q0 26 -22 49t-64 23h-26q-42 0 -64 -23t-22 -49v-4q0 -34 27 -55t69 -21h6q27 0 49 9.5t34.5 26.5t12.5 40z" />
    <glyph glyph-name="nine.dnom" horiz-adv-x="346" 
d="M159 -13h-7q-42 0 -85 26q-7 3 -7 11v24q0 3 2 4.5t4 0.5q51 -28 86 -28h4q46 0 76.5 40.5t34.5 118.5q-56 -33 -111 -33q-50 0 -84.5 27t-34.5 82v10q0 32 16 59.5t46 44t66 16.5h7q25 0 47 -8t43.5 -26.5t34.5 -55.5t13 -89v-9q0 -102 -43 -158.5t-108 -56.5zM161 184
q52 0 106 37v9q0 61 -27 92t-67 31h-5q-39 0 -63.5 -25t-24.5 -61v-5q0 -11 2 -20.5t6 -18.5t11 -16t15.5 -12t20.5 -8t26 -3z" />
    <glyph glyph-name="zero.numr" horiz-adv-x="415" 
d="M201 713h13q75 0 119.5 -50.5t44.5 -134.5v-33q0 -84 -44.5 -134.5t-119.5 -50.5h-13q-75 0 -119.5 50.5t-44.5 134.5v33q0 84 44 134.5t120 50.5zM212 673h-9q-58 0 -90 -39.5t-32 -105.5v-33q0 -66 32 -105.5t90 -39.5h9q58 0 90 39.5t32 105.5v33q0 66 -32 105.5
t-90 39.5z" />
    <glyph glyph-name="one.numr" horiz-adv-x="296" 
d="M174 363h78q7 0 7 -7v-26q0 -7 -7 -7h-209q-6 0 -6 7v26q0 7 6 7h88v291l-88 -36q-6 -2 -6 5v26q0 7 6 10l96 39q6 2 13 2h15q7 0 7 -7v-330z" />
    <glyph glyph-name="two.numr" horiz-adv-x="339" 
d="M157 713h9q49 0 85 -29.5t36 -78.5v-10q0 -11 -2.5 -22t-8 -22.5t-10.5 -20.5t-16 -22l-18 -20q-7 -9 -22 -24l-24 -22l-28 -24l-27 -25l-34 -30h198q7 0 7 -7v-26q0 -7 -7 -7h-252q-6 0 -6 7v24q0 6 3 9l56 49q8 6 22 19l52 49q17 15 37.5 37.5t28 40t7.5 34.5v5
q0 36 -24.5 56.5t-56.5 20.5h-7q-42 0 -99 -28q-7 -3 -7 4v26q0 8 7 11q50 26 101 26z" />
    <glyph glyph-name="three.numr" horiz-adv-x="331" 
d="M152 713h5q54 0 91 -28.5t37 -75.5v-7q0 -55 -55 -84q29 -11 46.5 -34.5t17.5 -55.5v-10q0 -47 -39 -77.5t-99 -30.5h-7q-52 0 -105 26q-7 3 -7 11v25q0 7 6 4q61 -28 104 -28h6q42 0 69.5 21.5t27.5 55.5v5q0 27 -20.5 48t-62.5 21h-62q-6 0 -6 7v21q0 6 6 6h54
q41 0 62 21.5t21 45.5v2q0 35 -25.5 54.5t-62.5 19.5h-3q-41 0 -102 -29q-6 -2 -6 5v24q0 8 7 11q53 26 102 26z" />
    <glyph glyph-name="four.numr" horiz-adv-x="396" 
d="M274 459h78q7 0 7 -7v-24q0 -7 -7 -7h-78v-91q0 -7 -7 -7h-29q-6 0 -6 7v91h-189q-6 0 -6 7v19q0 6 3 11l170 232q6 10 18 10h39q7 0 7 -7v-234zM232 661l-148 -202h148v202z" />
    <glyph glyph-name="five.numr" horiz-adv-x="334" 
d="M58 700h205q7 0 7 -7v-24q0 -7 -7 -7h-171v-129q57 16 86 16q51 0 85 -28t34 -84v-10q0 -50 -38 -83.5t-99 -33.5h-7q-56 0 -109 26q-7 3 -7 11v24q0 7 6 4q61 -28 108 -28h6q43 0 70 23.5t27 60.5v4q0 35 -21 58t-65 23q-31 0 -89 -17q-8 -2 -13 1l-7 5q-8 5 -8 12v176
q0 7 7 7z" />
    <glyph glyph-name="six.numr" horiz-adv-x="346" 
d="M188 713h6q42 0 86 -26q7 -3 7 -11v-24q0 -3 -2.5 -4.5t-4.5 -0.5q-51 28 -85 28h-5q-46 0 -76.5 -40.5t-34.5 -118.5q56 33 111 33q51 0 85.5 -27t34.5 -82v-10q0 -32 -16.5 -59.5t-46 -44t-66.5 -16.5h-7q-24 0 -46 8t-43.5 26.5t-34.5 55.5t-13 89v9q0 102 42.5 158.5
t108.5 56.5zM185 516q-52 0 -106 -37v-9q0 -61 27.5 -92t66.5 -31h6q38 0 62.5 25t24.5 61v5q0 34 -20 56t-61 22z" />
    <glyph glyph-name="seven.numr" horiz-adv-x="260" 
d="M43 700h249q6 0 6 -7v-16q0 -8 -7 -17l-128 -167q-5 -6 -5 -14v-149q0 -7 -6 -7h-30q-7 0 -7 7v157q0 8 5 14l125 159h-202q-6 0 -6 7v26q0 7 6 7z" />
    <glyph glyph-name="eight.numr" horiz-adv-x="356" 
d="M251 519q20 -8 35 -21.5t24 -32.5t9 -40v-10q0 -30 -17.5 -54t-48.5 -37.5t-69 -13.5h-12q-58 0 -96.5 29.5t-38.5 75.5v10q0 32 18.5 56.5t48.5 36.5q-58 30 -58 85v7q0 46 38 74.5t91 28.5h6q53 0 90.5 -28.5t37.5 -74.5v-7q0 -28 -15.5 -49.5t-42.5 -34.5zM87 603v-2
q0 -11 5 -22t15 -21.5t27 -17t38 -6.5h12q40 0 62.5 21.5t22.5 45.5v2q0 34 -26.5 54t-63.5 20h-3q-37 0 -63 -20t-26 -54zM277 422v4q0 26 -22 49t-64 23h-26q-42 0 -64 -23t-22 -49v-4q0 -34 27 -55t69 -21h6q42 0 69 21t27 55z" />
    <glyph glyph-name="nine.numr" horiz-adv-x="346" 
d="M159 310h-7q-42 0 -85 26q-7 3 -7 11v24q0 3 2 4.5t4 0.5q51 -28 86 -28h4q30 0 53.5 17t39 53.5t18.5 88.5q-56 -33 -111 -33q-50 0 -84.5 27t-34.5 82v10q0 49 36.5 84.5t91.5 35.5h7q25 0 47 -8t43.5 -26.5t34.5 -55.5t13 -89v-9q0 -102 -43 -158.5t-108 -56.5z
M161 507q52 0 106 37v9q0 61 -27 92t-67 31h-5q-39 0 -63.5 -25t-24.5 -61v-5q0 -34 20 -56t61 -22z" />
    <glyph glyph-name="zero.dnom.zero" horiz-adv-x="415" 
d="M201 390h13q75 0 119.5 -50.5t44.5 -134.5v-33q0 -84 -44.5 -134.5t-119.5 -50.5h-13q-75 0 -119.5 50.5t-44.5 134.5v33q0 84 44 134.5t120 50.5zM81 205v-33q0 -81 45 -119l137 287q-23 10 -52 10h-8q-58 0 -90 -39.5t-32 -105.5zM334 172v33q0 81 -46 120l-137 -288
q23 -10 52 -10h9q58 0 90 39.5t32 105.5z" />
    <glyph glyph-name="zero.numr.zero" horiz-adv-x="415" 
d="M201 713h13q75 0 119.5 -50.5t44.5 -134.5v-33q0 -84 -44.5 -134.5t-119.5 -50.5h-13q-75 0 -119.5 50.5t-44.5 134.5v33q0 84 44 134.5t120 50.5zM81 528v-33q0 -81 45 -119l137 287q-23 10 -52 10h-8q-58 0 -90 -39.5t-32 -105.5zM334 495v33q0 81 -46 120l-137 -288
q23 -10 52 -10h9q58 0 90 39.5t32 105.5z" />
    <glyph glyph-name="bitcoin" horiz-adv-x="603" 
d="M423 367q70 -19 102 -65.5t32 -109.5v-17q0 -78 -44.5 -123t-137.5 -51v-134q0 -7 -6 -7h-29q-6 0 -6 7v133h-117v-133q0 -7 -6 -7h-29q-6 0 -6 7v133h-78q-6 0 -6 7v686q0 7 6 7h78v133q0 7 6 7h29q6 0 6 -7v-133h104h13v133q0 7 6 7h29q6 0 6 -7v-136q157 -20 157 -165
v-14q0 -50 -27.5 -90.5t-81.5 -60.5zM143 383h167q86 0 128 38.5t42 97.5v4q0 65 -38 98t-124 33h-175v-271zM505 184v6q0 67 -41 109t-136 42h-185v-295h199q59 0 96 17.5t52 47.5t15 73z" />
    </font>
</defs>
</svg>
